<?xml version="1.0" encoding="UTF-8"?>
<svg version="1.1" xmlns="http://www.w3.org/2000/svg" width="2031" height="625">
<path d="M0 0 C670.23 0 1340.46 0 2031 0 C2031 206.25 2031 412.5 2031 625 C1360.77 625 690.54 625 0 625 C0 418.75 0 212.5 0 0 Z " fill="#FEFEFE" transform="translate(0,0)"/>
<path d="M0 0 C0.77698242 0.44939941 1.55396484 0.89879883 2.35449219 1.36181641 C3.04293213 1.73741699 3.73137207 2.11301758 4.44067383 2.5 C5.12508545 2.91588379 5.80949707 3.33176758 6.51464844 3.76025391 C7.29912354 4.23414551 8.08359863 4.70803711 8.8918457 5.19628906 C9.72514404 5.70466309 10.55844238 6.21303711 11.41699219 6.73681641 C13.19815926 7.81507841 14.9794119 8.89319906 16.76074219 9.97119141 C17.67726563 10.52742188 18.59378906 11.08365234 19.53808594 11.65673828 C25.00973084 14.9693222 30.50367949 18.244847 35.9934082 21.52734375 C36.78416748 22.00123535 37.57492676 22.47512695 38.38964844 22.96337891 C39.08453369 23.3792627 39.77941895 23.79514648 40.49536133 24.22363281 C42.13979752 25.2303776 43.75018671 26.29227942 45.35449219 27.36181641 C45.71525574 29.76626587 45.71525574 29.76626587 45.69506836 32.82128906 C45.69484177 33.96232086 45.69461517 35.10335266 45.69438171 36.27896118 C45.67889786 37.51544403 45.663414 38.75192688 45.64746094 40.02587891 C45.64321609 41.28822357 45.63897125 42.55056824 45.63459778 43.85116577 C45.62062356 47.20842991 45.59366521 50.56508573 45.56048584 53.92218018 C45.52980571 57.34731789 45.51609689 60.77251841 45.50097656 64.19775391 C45.4678386 70.9192769 45.41758758 77.64051152 45.35449219 84.36181641 C44.33943604 84.92666748 43.32437988 85.49151855 42.27856445 86.07348633 C33.84690255 90.78101254 25.51310246 95.60510585 17.29199219 100.67431641 C14.46858485 102.409045 11.64427712 104.1417268 8.81103516 105.86035156 C7.29271085 106.78836731 5.78413676 107.73282431 4.29248047 108.703125 C1.72870356 110.31750868 -0.09980354 111.36097166 -3.16894531 111.36572266 C-7.20917205 109.72796513 -10.72247513 107.39167817 -14.26855469 104.8894043 C-18.9628557 101.69258531 -23.24589017 99.77485746 -28.70019531 98.14306641 C-36.72729692 95.31767388 -44.58998084 92.37033992 -48.64550781 84.36181641 C-51.36902726 74.98381189 -51.31981889 65.17595306 -51.33300781 55.48681641 C-51.35492187 54.19363495 -51.37683594 52.90045349 -51.39941406 51.56808472 C-51.54205281 31.39759669 -51.54205281 31.39759669 -47.18887329 25.33227539 C-43.56714905 21.9893209 -39.38790073 20.13080505 -34.85263062 18.31561279 C-31.21219688 16.74241871 -28.00565771 14.54325709 -24.69628906 12.37744141 C-23.40668431 11.57618339 -22.11437108 10.77926754 -20.81933594 9.98681641 C-18.85997229 8.7851861 -16.90514816 7.5784681 -14.96118164 6.35205078 C-13.02891786 5.13471277 -11.08353108 3.94152486 -9.13378906 2.75244141 C-8.55357498 2.37976135 -7.9733609 2.0070813 -7.37556458 1.62310791 C-4.59959588 -0.03785132 -3.20667159 -0.77355477 0 0 Z " fill="#141414" transform="translate(1173.6455078125,100.63818359375)"/>
<path d="M0 0 C3.26997544 1.25600043 6.20227466 3.03046571 9.1953125 4.82788086 C10.20954285 5.42988564 10.20954285 5.42988564 11.2442627 6.04405212 C12.67796212 6.89656578 14.11018032 7.75157469 15.54101562 8.60888672 C18.38923302 10.31457187 21.24613696 12.00546772 24.10313416 13.69639587 C25.50108564 14.53595386 26.89048231 15.38991906 28.27101135 16.25782776 C31.44594217 18.25207828 34.33463921 19.89776226 37.84350586 21.27880859 C41.82761205 23.05579946 43.66740867 24.28049426 46.2265625 27.85522461 C48.95247662 36.87272405 48.79832003 46.45700706 48.7890625 55.79272461 C48.80622314 57.75098679 48.80622314 57.75098679 48.82373047 59.74880981 C48.77912108 83.72616773 48.77912108 83.72616773 41.99839783 90.64692688 C35.81713434 95.68287374 28.34404229 98.29965271 20.80859375 100.62719727 C15.85911591 102.32402616 11.94049609 104.94172939 7.7265625 107.98022461 C2.06545822 111.92363699 2.06545822 111.92363699 -1.07861328 111.66723633 C-4.37933131 110.67265505 -6.92557145 109.16811287 -9.859375 107.35522461 C-10.43399979 107.0031897 -11.00862457 106.65115479 -11.60066223 106.28845215 C-13.45423471 105.15088815 -15.30129495 104.00319368 -17.1484375 102.85522461 C-18.41530194 102.07516465 -19.68263711 101.29586867 -20.95043945 100.51733398 C-23.4353297 98.9908319 -25.91826636 97.46122927 -28.39990234 95.92944336 C-32.56551524 93.36821546 -36.75682809 90.85258789 -40.9609375 88.35522461 C-46.66076144 84.96790067 -46.66076144 84.96790067 -47.7734375 83.85522461 C-54.61711131 36.58925221 -54.61711131 36.58925221 -45.31103516 23.71606445 C-39.49344666 17.54121478 -31.24561935 14.71879854 -23.35644531 12.14672852 C-18.12907968 10.26251182 -13.82988573 7.35518788 -9.2734375 4.23022461 C-2.53392955 -0.20685851 -2.53392955 -0.20685851 0 0 Z " fill="#141414" transform="translate(1109.7734375,197.144775390625)"/>
<path d="M0 0 C18.81 0 37.62 0 57 0 C57 2.64 57 5.28 57 8 C55.78763672 8.12955078 55.78763672 8.12955078 54.55078125 8.26171875 C53.48214844 8.40222656 52.41351563 8.54273437 51.3125 8.6875 C50.25675781 8.81511719 49.20101562 8.94273438 48.11328125 9.07421875 C43.99723435 10.29818753 42.59806649 11.55534825 40 15 C39.25130934 18.58511306 39.27824342 22.11690548 39.29296875 25.76953125 C39.27834595 26.6884314 39.26372314 27.60733154 39.24865723 28.55407715 C39.20143253 31.97328609 39.19699518 35.39297813 39.1875 38.8125 C39.125625 46.464375 39.06375 54.11625 39 62 C60.45 62 81.9 62 104 62 C103.938125 54.513125 103.87625 47.02625 103.8125 39.3125 C103.80581299 36.95649658 103.79912598 34.60049316 103.79223633 32.1730957 C103.76578448 30.29896235 103.73750602 28.4248535 103.70703125 26.55078125 C103.71101929 25.58313843 103.71500732 24.61549561 103.71911621 23.61853027 C103.61997475 18.92117126 103.56060943 16.7210284 100.60424805 12.91870117 C95.91384948 9.46301145 91.75190801 8.67669506 86 8 C86 5.36 86 2.72 86 0 C104.81 0 123.62 0 143 0 C143 2.64 143 5.28 143 8 C141.78763672 8.12955078 141.78763672 8.12955078 140.55078125 8.26171875 C139.48214844 8.40222656 138.41351563 8.54273437 137.3125 8.6875 C136.25675781 8.81511719 135.20101562 8.94273438 134.11328125 9.07421875 C130.00750605 10.29513308 128.59638915 11.57111396 126 15 C125.25870767 18.49540236 125.31673153 21.93167964 125.35302734 25.49414062 C125.33988495 27.07789742 125.33988495 27.07789742 125.32647705 28.69364929 C125.30448162 32.18160165 125.31903751 35.66828489 125.3359375 39.15625 C125.33256944 41.58093509 125.32771691 44.00561854 125.32144165 46.43029785 C125.31407007 51.5111499 125.32478577 56.59156234 125.34814453 61.67236328 C125.37663157 68.18623088 125.36022926 74.69906845 125.33028221 81.21289825 C125.31221749 86.21950039 125.31796368 91.22585817 125.33092117 96.23246765 C125.33425742 98.63425315 125.33016048 101.03606081 125.31852341 103.43782043 C125.30582917 106.79443144 125.32517441 110.14937279 125.35302734 113.50585938 C125.34290619 114.49925827 125.33278503 115.49265717 125.32235718 116.51615906 C125.39362942 121.15061093 125.47035702 123.30362101 128.34585571 127.08435059 C131.34850537 129.25153648 133.69925291 130.05808577 137.3125 130.8125 C138.38113281 131.04582031 139.44976562 131.27914062 140.55078125 131.51953125 C141.35902344 131.67808594 142.16726563 131.83664063 143 132 C143 134.31 143 136.62 143 139 C124.19 139 105.38 139 86 139 C86 136.69 86 134.38 86 132 C86.73605469 131.86722656 87.47210938 131.73445312 88.23046875 131.59765625 C89.20628906 131.42105469 90.18210937 131.24445313 91.1875 131.0625 C92.15042969 130.88847656 93.11335938 130.71445313 94.10546875 130.53515625 C96.74239972 130.0476265 99.3719905 129.53328895 102 129 C102.93418497 125.81334869 103.15110186 122.9040574 103.20532227 119.58886719 C103.22550415 118.49300293 103.24568604 117.39713867 103.26647949 116.26806641 C103.28295532 115.12257324 103.29943115 113.97708008 103.31640625 112.796875 C103.33505737 111.73936035 103.3537085 110.6818457 103.3729248 109.59228516 C103.44118226 105.64494112 103.50135665 101.69746064 103.5625 97.75 C103.706875 88.9225 103.85125 80.095 104 71 C82.55 71 61.1 71 39 71 C39.061875 79.641875 39.12375 88.28375 39.1875 97.1875 C39.19418701 99.90895264 39.20087402 102.63040527 39.20776367 105.43432617 C39.23421171 107.59556516 39.2624893 109.75678286 39.29296875 111.91796875 C39.28898071 113.03675415 39.28499268 114.15553955 39.28088379 115.30822754 C39.34592116 121.6954388 39.34592116 121.6954388 42.34960938 127.18359375 C45.34772278 129.2383067 47.76259554 130.07131116 51.3125 130.8125 C52.38113281 131.04582031 53.44976562 131.27914062 54.55078125 131.51953125 C55.35902344 131.67808594 56.16726562 131.83664063 57 132 C57 134.31 57 136.62 57 139 C38.19 139 19.38 139 0 139 C0 136.69 0 134.38 0 132 C0.80824219 131.91363281 1.61648437 131.82726562 2.44921875 131.73828125 C3.51785156 131.59777344 4.58648437 131.45726562 5.6875 131.3125 C7.27111328 131.12107422 7.27111328 131.12107422 8.88671875 130.92578125 C12.99249395 129.70486692 14.40361085 128.42888604 17 125 C17.74129233 121.50459764 17.68326847 118.06832036 17.64697266 114.50585938 C17.65573425 113.45002151 17.66449585 112.39418365 17.67352295 111.30635071 C17.69551838 107.81839835 17.68096249 104.33171511 17.6640625 100.84375 C17.66743056 98.41906491 17.67228309 95.99438146 17.67855835 93.56970215 C17.68592993 88.4888501 17.67521423 83.40843766 17.65185547 78.32763672 C17.62336843 71.81376912 17.63977074 65.30093155 17.66971779 58.78710175 C17.68778251 53.78049961 17.68203632 48.77414183 17.66907883 43.76753235 C17.66574258 41.36574685 17.66983952 38.96393919 17.68147659 36.56217957 C17.69417083 33.20556856 17.67482559 29.85062721 17.64697266 26.49414062 C17.66215439 25.00404228 17.66215439 25.00404228 17.67764282 23.48384094 C17.60590579 18.81916636 17.54523164 16.70154376 14.60800171 12.92224121 C9.91599002 9.46396961 5.75475419 8.6770299 0 8 C0 5.36 0 2.72 0 0 Z " fill="#181818" transform="translate(166,111)"/>
<path d="M0 0 C2.97 0 5.94 0 9 0 C14.80029259 14.36272663 20.42011092 28.79058165 25.97927856 43.24816895 C27.40588165 46.95524706 28.8358829 50.66100308 30.26733398 54.36621094 C30.75645661 55.63244546 31.24557709 56.89868081 31.73469543 58.16491699 C32.0989862 59.10798958 32.0989862 59.10798958 32.47063637 60.07011414 C35.993616 69.19073532 39.50624982 78.31507243 42.99176025 87.45010376 C44.62278649 91.71830979 46.26428704 95.9824343 47.90826416 100.2456665 C48.67248141 102.23482972 49.43195229 104.2258235 50.1864624 106.21868896 C51.22805545 108.96834302 52.28585023 111.71122542 53.34765625 114.453125 C53.64572678 115.2525351 53.9437973 116.05194519 54.25090027 116.87557983 C56.82080794 123.42632839 60.57137896 127.86044089 67 131 C69.65360651 131.79212135 72.29156166 132.40322545 75 133 C75 135.31 75 137.62 75 140 C55.86 140 36.72 140 17 140 C17 137.69 17 135.38 17 133 C17.80824219 132.87882813 18.61648438 132.75765625 19.44921875 132.6328125 C20.51785156 132.46523437 21.58648438 132.29765625 22.6875 132.125 C23.74324219 131.96257812 24.79898438 131.80015625 25.88671875 131.6328125 C28.79794914 131.04106931 31.28955607 130.1968194 34 129 C34.28522683 124.12336205 33.37611075 120.66881844 31.59375 116.140625 C31.34959351 115.51017273 31.10543701 114.87972046 30.85388184 114.23016357 C30.07867509 112.23294415 29.29008968 110.24137308 28.5 108.25 C27.71230197 106.24350868 26.92748324 104.23595564 26.14611816 102.22698975 C25.43962223 100.41377451 24.72489507 98.6037729 24.00976562 96.79394531 C23 94 23 94 23 92 C6.83 92 -9.34 92 -26 92 C-26.99 95.3 -27.98 98.6 -29 102 C-29.88843655 104.50263818 -30.78365329 107.00288597 -31.6875 109.5 C-34.6466392 118.10285963 -34.6466392 118.10285963 -34 127 C-30.83235593 130.32407094 -27.14257559 130.83338808 -22.75 131.6875 C-21.48671875 131.93886719 -20.2234375 132.19023437 -18.921875 132.44921875 C-17.95765625 132.63097656 -16.9934375 132.81273437 -16 133 C-16 135.31 -16 137.62 -16 140 C-33.16 140 -50.32 140 -68 140 C-68 137.69 -68 135.38 -68 133 C-67.11957031 132.75765625 -66.23914063 132.5153125 -65.33203125 132.265625 C-64.17058594 131.93046875 -63.00914062 131.5953125 -61.8125 131.25 C-60.66394531 130.92515625 -59.51539063 130.6003125 -58.33203125 130.265625 C-51.76919832 127.77282562 -49.2458428 124.30060121 -46.35791016 118.13720703 C-43.47125504 111.46810989 -40.82460099 104.70829852 -38.1875 97.9375 C-37.53040818 96.26043093 -36.87292885 94.58351364 -36.21508789 92.90673828 C-34.48583656 88.49533349 -32.76247708 84.08165177 -31.04077148 79.66729736 C-29.68204054 76.18513099 -28.32035464 72.7041238 -26.95866394 69.22311401 C-17.93847087 46.16200402 -8.96839197 23.08129478 0 0 Z " fill="#171717" transform="translate(737,110)"/>
<path d="M0 0 C2.97 0 5.94 0 9 0 C11.81300262 7.24980507 14.6254106 14.49984065 17.4375 21.75 C18.07667358 23.39782974 18.07667358 23.39782974 18.72875977 25.07894897 C24.11719261 38.97171151 29.496881 52.86778923 34.86083984 66.77001953 C37.29107476 73.06826221 39.72628163 79.36457872 42.16278076 85.66040039 C43.96894964 90.32872906 45.76918838 94.99926507 47.5630188 99.67234802 C48.33686602 101.68519775 49.11393435 103.69676511 49.89257812 105.70776367 C50.80180736 108.05603263 51.70593777 110.40628611 52.60351562 112.7590332 C56.58200839 123.22759192 56.58200839 123.22759192 65.05078125 130.1875 C68.2968435 131.54056803 71.56153939 132.27611355 75 133 C75 135.31 75 137.62 75 140 C55.86 140 36.72 140 17 140 C17 137.69 17 135.38 17 133 C18.05960937 132.79503906 19.11921875 132.59007812 20.2109375 132.37890625 C21.59898822 132.10692334 22.98700744 131.83477956 24.375 131.5625 C25.07367188 131.42779297 25.77234375 131.29308594 26.4921875 131.15429688 C30.35628734 130.4227578 30.35628734 130.4227578 34 129 C33.54071508 121.16284032 30.74976366 114.39742871 27.9375 107.125 C27.00463587 104.69177149 26.0778785 102.25635201 25.15234375 99.8203125 C24.5334729 98.21567139 24.5334729 98.21567139 23.90209961 96.57861328 C23 94 23 94 23 92 C6.83 92.33 -9.34 92.66 -26 93 C-27.485 97.33125 -28.97 101.6625 -30.5 106.125 C-30.96986328 107.47996582 -31.43972656 108.83493164 -31.92382812 110.23095703 C-32.47200195 111.85300049 -32.47200195 111.85300049 -33.03125 113.5078125 C-33.40830078 114.60754395 -33.78535156 115.70727539 -34.17382812 116.84033203 C-35.02118188 120.08100941 -35.30535918 122.66810616 -35 126 C-31.44953745 129.93741545 -27.78950052 130.79635504 -22.6875 131.75 C-20.80611328 132.11351562 -20.80611328 132.11351562 -18.88671875 132.484375 C-17.93410156 132.65453125 -16.98148437 132.8246875 -16 133 C-16 135.31 -16 137.62 -16 140 C-33.16 140 -50.32 140 -68 140 C-68 137.69 -68 135.38 -68 133 C-66.67935547 132.65388672 -66.67935547 132.65388672 -65.33203125 132.30078125 C-64.17058594 131.97464844 -63.00914062 131.64851562 -61.8125 131.3125 C-60.66394531 130.99925781 -59.51539063 130.68601563 -58.33203125 130.36328125 C-49.19878886 126.62646813 -45.8396305 116.64542161 -42.2019043 108.13226318 C-40.2943037 103.51868343 -38.5224015 98.85425125 -36.75 94.1875 C-36.16058976 92.65229626 -35.57039446 91.11739374 -34.97949219 89.58276367 C-33.68900596 86.22918912 -32.40200055 82.87430665 -31.1171875 79.51855469 C-27.60065122 70.34233389 -24.04518653 61.1811221 -20.49295044 52.01867676 C-19.66638048 49.88654879 -18.84010538 47.75430648 -18.01412964 45.62194824 C-12.10762199 30.37438575 -6.14642406 15.15275237 0 0 Z " fill="#161616" transform="translate(408,110)"/>
<path d="M0 0 C1.7013208 0.00531738 1.7013208 0.00531738 3.43701172 0.01074219 C12.56481024 0.19066451 19.90753883 1.63893489 28.1875 5.5 C29.51201172 6.10521484 29.51201172 6.10521484 30.86328125 6.72265625 C32.66653862 7.59158338 34.43434143 8.53397385 36.1875 9.5 C36.496875 8.71625 36.80625 7.9325 37.125 7.125 C38.1875 4.5 38.1875 4.5 39.1875 2.5 C41.8275 2.5 44.4675 2.5 47.1875 2.5 C48.56272352 18.8062217 48.28474851 35.15177806 48.1875 51.5 C45.5475 51.5 42.9075 51.5 40.1875 51.5 C39.795625 50.2625 39.40375 49.025 39 47.75 C34.30341818 33.76998776 29.26061698 20.51793152 16.1875 12.5 C10.4355289 9.67153831 5.17271973 8.98049052 -1.1875 9.0625 C-2.44421509 9.07603516 -2.44421509 9.07603516 -3.72631836 9.08984375 C-14.94297846 9.40380994 -22.86087345 13.56176003 -30.8125 21.5 C-42.34713014 35.70509898 -45.20925838 53.5628711 -45.125 71.3125 C-45.11936035 72.55209473 -45.1137207 73.79168945 -45.10791016 75.06884766 C-44.87660846 92.46227749 -41.06654459 109.40985855 -28.8125 122.5 C-28.21824219 123.13550781 -27.62398437 123.77101563 -27.01171875 124.42578125 C-18.07924833 133.06235203 -8.24570941 135.17861187 3.80566406 135.03027344 C11.90740456 134.71310154 21.1975023 133.47298286 27.1875 127.5 C27.60689164 124.91301577 27.77250057 122.75333531 27.75390625 120.1640625 C27.76010483 119.44769623 27.76630341 118.73132996 27.77268982 117.99325562 C27.77978849 116.47859047 27.77661292 114.96384731 27.76391602 113.44921875 C27.75008472 111.13914985 27.78406596 108.83316176 27.82226562 106.5234375 C27.82321724 105.04947818 27.82135572 103.57551382 27.81640625 102.1015625 C27.82966446 101.41494537 27.84292267 100.72832825 27.85658264 100.02090454 C27.78382867 96.24407011 27.26869143 94.60245874 24.89746094 91.61010742 C22.49472893 89.73922339 21.10803793 88.77524003 18.19921875 88.13671875 C17.14057617 87.89018555 17.14057617 87.89018555 16.06054688 87.63867188 C15.33931641 87.48978516 14.61808594 87.34089844 13.875 87.1875 C13.13443359 87.01927734 12.39386719 86.85105469 11.63085938 86.67773438 C9.82001477 86.26883398 8.00418379 85.88212268 6.1875 85.5 C6.1875 83.52 6.1875 81.54 6.1875 79.5 C25.9875 79.5 45.7875 79.5 66.1875 79.5 C66.1875 81.81 66.1875 84.12 66.1875 86.5 C65.45144531 86.62117188 64.71539063 86.74234375 63.95703125 86.8671875 C62.98121094 87.03476563 62.00539063 87.20234375 61 87.375 C60.03707031 87.53742188 59.07414063 87.69984375 58.08203125 87.8671875 C55.20899914 88.49529978 52.78270513 89.10790062 50.1875 90.5 C48.78362853 94.60704853 48.9596578 98.90775536 48.87109375 103.203125 C48.8399221 104.45980988 48.8399221 104.45980988 48.80812073 105.74188232 C48.7428745 108.41117356 48.68385642 111.08056098 48.625 113.75 C48.58179106 115.56250984 48.53817601 117.37501005 48.49414062 119.1875 C48.38721871 123.62490209 48.28588134 128.06240068 48.1875 132.5 C39.8142356 136.80225397 39.8142356 136.80225397 35.671875 138.1328125 C34.51788208 138.5047876 34.51788208 138.5047876 33.34057617 138.88427734 C10.14212688 146.03495246 -12.81240527 148.04526314 -35.01293945 136.82617188 C-41.11982594 133.55265069 -46.01956328 129.50714618 -50.8125 124.5 C-51.43253906 123.91089844 -52.05257812 123.32179688 -52.69140625 122.71484375 C-65.0831183 110.10135609 -70.1331149 91.29271475 -70.3125 74.125 C-70.10422006 54.13988872 -64.35159371 33.96554011 -49.8125 19.5 C-35.18630385 6.62279708 -19.69663853 -0.11166228 0 0 Z " fill="#161616" transform="translate(580.8125,108.5)"/>
<path d="M0 0 C237.27 0 474.54 0 719 0 C719 1.32 719 2.64 719 4 C481.73 4 244.46 4 0 4 C0 2.68 0 1.36 0 0 Z " fill="#484848" transform="translate(156,295)"/>
<path d="M0 0 C4.69557647 -0.09954745 9.39052663 -0.17178467 14.08691406 -0.21972656 C15.68142408 -0.23973053 17.27586178 -0.26694301 18.87011719 -0.30175781 C35.36309976 -0.65267234 35.36309976 -0.65267234 42 4 C45.00229918 7.37758658 45.53437279 10.49261525 45.35546875 15.0078125 C44.60221812 19.22932702 42.12052405 22.04925232 38.9375 24.75 C38.298125 25.1625 37.65875 25.575 37 26 C36.01 26.66 35.02 27.32 34 28 C35.01320313 28.45439453 35.01320313 28.45439453 36.046875 28.91796875 C45.86078924 33.52710477 45.86078924 33.52710477 48 38 C48.75160174 43.22123339 48.65472781 47.52686244 46.5 52.375 C40.9765526 58.17461977 35.51393995 60.85380079 27.49487305 61.11352539 C25.52321167 61.10567017 25.52321167 61.10567017 23.51171875 61.09765625 C22.80852005 61.0962413 22.10532135 61.09482635 21.3808136 61.09336853 C19.14966456 61.08780109 16.91861836 61.07525475 14.6875 61.0625 C13.16862125 61.05748079 11.64974091 61.05291862 10.13085938 61.04882812 C6.42053988 61.03784236 2.71027999 61.02060034 -1 61 C-1 59.68 -1 58.36 -1 57 C1.31 56.34 3.62 55.68 6 55 C6 38.83 6 22.66 6 6 C4.02 5.01 2.04 4.02 0 3 C0 2.01 0 1.02 0 0 Z " fill="#545454" transform="translate(1243,377)"/>
<path d="M0 0 C3.08758775 1.15555923 5.7985496 2.67820075 8.6418457 4.34838867 C9.55377686 4.88133545 9.55377686 4.88133545 10.48413086 5.42504883 C12.416538 6.55818033 14.3421043 7.70229265 16.2668457 8.84838867 C17.18530273 9.39124512 17.18530273 9.39124512 18.12231445 9.94506836 C25.5205184 14.31852687 32.84826033 18.80277895 40.1418457 23.34838867 C41.18671143 23.99880127 41.18671143 23.99880127 42.25268555 24.66235352 C47.14365707 27.72520004 47.14365707 27.72520004 48.2668457 28.84838867 C55.12695538 78.75908626 55.12695538 78.75908626 45.83666992 92.11352539 C40.10953076 98.3750299 31.84302915 101.08300935 23.94458008 103.55786133 C18.33376509 105.5267121 13.68428561 108.68934128 8.7668457 111.97338867 C7.2051749 112.97295113 5.6331675 113.9566782 4.0480957 114.91870117 C3.40936523 115.31847168 2.77063477 115.71824219 2.11254883 116.13012695 C-0.2676847 117.05640302 -1.36500149 116.72611629 -3.7331543 115.84838867 C-6.11105035 114.5643248 -8.42022707 113.24122407 -10.7331543 111.84838867 C-11.44213867 111.42630127 -12.15112305 111.00421387 -12.8815918 110.56933594 C-15.50345201 109.00335153 -18.11864038 107.42660911 -20.7331543 105.84838867 C-21.90632602 105.14118578 -23.07950343 104.4339923 -24.25268555 103.72680664 C-28.08198718 101.41725598 -31.90815389 99.10255453 -35.7331543 96.78588867 C-36.36882324 96.40118408 -37.00449219 96.01647949 -37.65942383 95.62011719 C-39.47668089 94.5194819 -41.2926375 93.41673537 -43.1081543 92.31323242 C-44.16776367 91.66990967 -45.22737305 91.02658691 -46.3190918 90.36376953 C-48.7331543 88.84838867 -48.7331543 88.84838867 -49.7331543 87.84838867 C-56.65896936 40.9954529 -56.65896936 40.9954529 -48.42102051 25.35760498 C-41.989953 17.00609786 -31.65404177 13.52482361 -21.95141602 10.40942383 C-16.70447731 8.63090086 -12.20559369 5.74020671 -7.64451599 2.63825989 C-4.93570276 0.85965771 -3.29191304 -0.18260634 0 0 Z M-8.4831543 8.28588867 C-9.65707452 9.02635887 -10.83157659 9.76590728 -12.0065918 10.50463867 C-12.61857422 10.89135742 -13.23055664 11.27807617 -13.86108398 11.67651367 C-16.91744446 13.58972837 -20.01222071 15.43763774 -23.1081543 17.28588867 C-24.85566873 18.33153255 -26.60027444 19.38381752 -28.30615234 20.49609375 C-30.7331543 21.84838867 -30.7331543 21.84838867 -34.48242188 23.19091797 C-38.97646418 24.98551165 -42.80868586 26.8806546 -45.7331543 30.84838867 C-48.28486628 38.27337124 -47.93025611 46.29529068 -47.74365234 54.04931641 C-47.67075131 57.7809229 -47.76317861 61.48339 -47.87182617 65.21362305 C-48.26637985 76.56744195 -48.26637985 76.56744195 -44.29116821 86.85324097 C-40.6427627 90.19079891 -36.43668724 92.09176111 -31.88790894 93.92367554 C-28.50657379 95.3747758 -25.52130533 97.36663173 -22.44018555 99.36010742 C-21.2872046 100.06557599 -20.13162065 100.76680913 -18.97338867 101.46362305 C-17.23259194 102.51327596 -15.4953623 103.56703036 -13.76708984 104.63720703 C-12.04161285 105.7045246 -10.30355192 106.75141431 -8.56518555 107.79760742 C-7.56205322 108.40950928 -6.5589209 109.02141113 -5.52539062 109.65185547 C-2.31565282 111.02729702 -0.99667373 110.94430279 2.2668457 109.84838867 C4.22253824 108.8819792 6.13499369 107.826708 8.0168457 106.72338867 C8.58886719 106.39008545 9.16088867 106.05678223 9.75024414 105.71337891 C17.51047917 101.16621224 25.20718859 96.50846474 32.91040039 91.86547852 C33.96130859 91.23206543 35.0122168 90.59865234 36.0949707 89.94604492 C37.51664551 89.08765015 37.51664551 89.08765015 38.96704102 88.21191406 C40.37389011 87.37781086 41.8039848 86.57981912 43.2668457 85.84838867 C47.90717443 55.17530391 47.90717443 55.17530391 40.76049805 26.7199707 C34.87228982 20.55929303 26.63926349 17.66335145 18.7121582 15.05688477 C14.06880638 13.42815804 10.25544474 11.02740837 6.2043457 8.28588867 C-0.18874439 4.33962886 -2.13493739 4.23534729 -8.4831543 8.28588867 Z " fill="#1F1F1F" transform="translate(1297.733154296875,98.151611328125)"/>
<path d="M0 0 C2.37018797 1.325074 4.70436576 2.67359739 7.03125 4.0703125 C7.70361694 4.47023407 8.37598389 4.87015564 9.06872559 5.28219604 C11.21449673 6.55978791 13.35720869 7.8424181 15.5 9.125 C17.60680713 10.3795828 19.71411356 11.63325018 21.82377625 12.88302612 C23.21561089 13.71832883 24.59870209 14.56837079 25.97273254 15.43264771 C29.21611265 17.45741258 32.22139022 19.16607475 35.8659668 20.35107422 C39.86820056 21.92731997 42.82591967 23.24077047 45 27 C47.25120226 35.34755979 47.00504927 44.10636941 46.85961914 52.68896484 C46.81373812 55.48110614 46.83442445 58.25912993 46.92114258 61.05029297 C47.60830347 83.18096726 47.60830347 83.18096726 43.51916504 89.16821289 C39.87093006 92.60598697 35.69528506 94.4939491 31.03317261 96.21173096 C28.12812165 97.33803068 25.6024427 98.94551871 22.9765625 100.609375 C21.19397636 101.65840771 19.41015892 102.70535145 17.625 103.75 C15.82532224 104.8069536 14.02584191 105.86424342 12.2265625 106.921875 C11.36321289 107.42267578 10.49986328 107.92347656 9.61035156 108.43945312 C7.81026353 109.51560003 6.03695963 110.63740302 4.28808594 111.79492188 C3.41700195 112.36275391 2.54591797 112.93058594 1.6484375 113.515625 C0.87419434 114.03930664 0.09995117 114.56298828 -0.69775391 115.10253906 C-3 116 -3 116 -5.35107422 115.40966797 C-8.62977798 113.66485364 -11.8475592 111.8407018 -15.03125 109.9296875 C-15.70361694 109.52976593 -16.37598389 109.12984436 -17.06872559 108.71780396 C-19.21449673 107.44021209 -21.35720869 106.1575819 -23.5 104.875 C-25.60677307 103.62043748 -27.7140483 102.36678982 -29.82357788 101.11686707 C-31.21580245 100.28148133 -32.59954407 99.43179825 -33.97451782 98.5683136 C-37.20637231 96.55329724 -40.21510648 94.83690311 -43.83740234 93.63354492 C-47.81511657 92.04361475 -50.75903645 90.6883868 -53 87 C-55.71917318 78.18857186 -55.67307497 68.79353128 -55.63375473 59.6456604 C-55.62498911 57.55990986 -55.63700042 55.47488085 -55.64907837 53.38916016 C-55.64819062 28.22912358 -55.64819062 28.22912358 -48.84429932 21.08084106 C-42.72469681 16.00372004 -35.2408049 13.5418724 -27.72412109 11.27880859 C-22.16064581 9.36839273 -17.74034913 6.22474442 -13 2.8125 C-11.5560072 1.79827988 -10.09883877 0.80236983 -8.625 -0.16796875 C-8.03976562 -0.57297607 -7.45453125 -0.9779834 -6.8515625 -1.39526367 C-4.00317533 -2.32557156 -2.64175064 -1.33299998 0 0 Z M-11.14453125 7.40234375 C-12.0538868 7.9363253 -12.0538868 7.9363253 -12.98161316 8.48109436 C-14.27202975 9.24058384 -15.56058357 10.00324572 -16.84741211 10.76879883 C-19.39222422 12.2822807 -21.9467309 13.77902162 -24.50157166 15.27549744 C-25.77144372 16.03143045 -27.0326952 16.80202222 -28.28517151 17.58644104 C-31.46700717 19.57359254 -34.51877206 21.26208257 -38.02124023 22.61889648 C-42.14417603 24.38019436 -45.55202448 26.12145795 -48 30 C-50.19886614 37.58226357 -49.80085954 45.6053731 -49.55053711 53.4206543 C-49.43740904 57.19053118 -49.44782136 60.9455853 -49.47460938 64.71679688 C-49.4473945 67.11728122 -49.41313083 69.51769821 -49.37109375 71.91796875 C-49.37362656 73.03995163 -49.37615936 74.16193451 -49.37876892 75.31791687 C-49.19711129 81.15436871 -49.19711129 81.15436871 -46.17611694 85.91523743 C-43.8537325 87.48941955 -41.51334136 88.75687258 -39 90 C-37.69905633 90.79069055 -36.40518473 91.59318404 -35.12011719 92.40942383 C-33.84733493 93.17800178 -32.57288355 93.94382163 -31.296875 94.70703125 C-30.61119446 95.11789474 -29.92551392 95.52875824 -29.21905518 95.95207214 C-27.78810283 96.80783076 -26.35635523 97.66226097 -24.92382812 98.51538086 C-22.73668941 99.82044241 -20.55591109 101.13573659 -18.375 102.45117188 C-16.9743378 103.28709449 -15.57330902 104.12240325 -14.171875 104.95703125 C-13.52595398 105.34864944 -12.88003296 105.74026764 -12.21453857 106.14375305 C-7.40149046 109.02985585 -7.40149046 109.02985585 -2 110 C1.13343924 108.71930484 1.13343924 108.71930484 4.33984375 106.6953125 C5.24495445 106.15920853 5.24495445 106.15920853 6.16835022 105.61227417 C8.09983639 104.46332722 10.01835354 103.2944157 11.9375 102.125 C13.81869744 101.00283962 15.70215419 99.88454774 17.58587646 98.76663208 C18.84618445 98.00612822 20.09758515 97.23067847 21.33990479 96.44113159 C24.48140437 94.44766238 27.50513901 92.73632595 30.96191406 91.34814453 C35.04931752 89.55506522 38.42627595 87.74778202 41 84 C44.07587909 75.59187356 43.90440119 66.46381563 43.875 57.625 C43.88794098 56.39723846 43.90088196 55.16947693 43.91421509 53.9045105 C44.1295977 38.90423873 44.1295977 38.90423873 37.97509766 25.72998047 C30.99086885 19.06535299 21.88259758 15.59514413 12.89599609 12.48876953 C8.16831173 10.79959873 4.19999865 8.18906471 0.11254883 5.30053711 C-4.32565607 2.56826882 -7.08362867 5.00659101 -11.14453125 7.40234375 Z " fill="#202020" transform="translate(1238,196)"/>
<path d="M0 0 C2.55078125 1.3203125 2.55078125 1.3203125 5.3125 3.125 C13.15782837 8.13401035 21.14723693 12.88442832 29.15356445 17.63134766 C30.71337036 18.56213135 30.71337036 18.56213135 32.3046875 19.51171875 C33.6966333 20.33869263 33.6966333 20.33869263 35.11669922 21.18237305 C36.06818848 21.78218994 37.01967773 22.38200684 38 23 C38.61150406 23.29043182 39.22300812 23.58086365 39.8530426 23.88009644 C43.10538597 25.65835048 44.69254842 26.99275235 45.79571533 30.6068573 C46.28184379 34.01405691 46.51764981 37.35824162 46.66796875 40.796875 C46.73552872 42.05501511 46.80308868 43.31315521 46.87269592 44.60942078 C47.04617545 48.65792802 47.13760502 52.69856244 47.1875 56.75 C47.1987944 57.43102406 47.21008881 58.11204811 47.22172546 58.81370926 C47.60524754 85.71858017 47.60524754 85.71858017 41.05522156 92.87315369 C35.19716374 97.91356592 27.94828726 100.42302757 20.66894531 102.70507812 C15.08154145 104.67710302 10.4951606 107.87394137 5.625 111.1875 C4.09171249 112.20580087 2.54332157 113.20195981 0.9765625 114.16796875 C0.34830566 114.57297607 -0.27995117 114.9779834 -0.92724609 115.39526367 C-5.02451367 116.590662 -8.43604981 114.30645673 -11.99755859 112.37109375 C-13.03734863 111.73300781 -14.07713867 111.09492188 -15.1484375 110.4375 C-16.01101669 109.9113208 -16.01101669 109.9113208 -16.89102173 109.37451172 C-18.72252396 108.25528955 -20.54874863 107.12776479 -22.375 106 C-24.15647416 104.90966958 -25.93889961 103.82099195 -27.72344971 102.73570251 C-28.93373212 101.98888427 -30.13519933 101.22760727 -31.32781982 100.45289612 C-34.6008183 98.34641154 -37.74165317 96.6495018 -41.37597656 95.24194336 C-46.06230322 93.25060753 -49.99497411 91.22816042 -53 87 C-56.19038212 78.28530935 -56.11074104 68.80416662 -56.01865768 59.62753677 C-55.99994987 57.55695126 -56.00894459 55.48770069 -56.02005005 53.41708374 C-55.99986255 28.48296818 -55.99986255 28.48296818 -48.25521851 20.69752502 C-41.47001908 15.18221941 -33.45501643 12.20570386 -25.21435547 9.56103516 C-19.99209682 7.79128735 -15.51905267 4.90669615 -10.99925232 1.78987122 C-6.93883595 -0.89126244 -4.67037847 -1.42706009 0 0 Z M-11.4375 7.25 C-12.5980983 7.9831341 -13.75962075 8.71480646 -14.921875 9.4453125 C-15.56447266 9.85040039 -16.20707031 10.25548828 -16.86914062 10.67285156 C-20.94298757 13.21013754 -25.06835511 15.66220438 -29.1875 18.125 C-32.79337991 20.28347982 -32.79337991 20.28347982 -36.37948608 22.47451782 C-39 24 -39 24 -41.6113739 25.17507935 C-46.93130301 27.73200265 -46.93130301 27.73200265 -49.98460388 32.55239868 C-50.42690881 35.75261571 -50.54316295 38.81601207 -50.5390625 42.046875 C-50.5628598 43.213255 -50.5866571 44.37963501 -50.61117554 45.58135986 C-50.64421634 48.0455659 -50.6509953 50.51024536 -50.63330078 52.97460938 C-50.62504211 56.73084511 -50.75491767 60.46546328 -50.89453125 64.21875 C-51.43185714 75.63215543 -51.43185714 75.63215543 -47.57318115 86.01455688 C-43.92849974 89.36470257 -39.71329604 91.25439308 -35.15655518 93.07830811 C-31.77995054 94.52143794 -28.81102136 96.51396406 -25.7421875 98.51171875 C-24.59385236 99.21731447 -23.44282495 99.91854856 -22.2890625 100.61523438 C-20.55810549 101.66588963 -18.8274195 102.7171786 -17.109375 103.78881836 C-15.39263627 104.85821935 -13.66131585 105.90409981 -11.9296875 106.94921875 C-10.93179199 107.56112061 -9.93389648 108.17302246 -8.90576172 108.8034668 C-5.31492981 110.28209788 -3.69657672 110.1176322 0 109 C3.13882915 107.45139945 3.13882915 107.45139945 6.2890625 105.4296875 C6.87360199 105.0703714 7.45814148 104.7110553 8.06039429 104.34085083 C9.92103799 103.19460812 11.77314354 102.03537413 13.625 100.875 C15.44951235 99.74371502 17.27562913 98.61522795 19.10479736 97.4914856 C20.3147696 96.73959498 21.51663847 95.97451077 22.71014404 95.19674683 C25.65233063 93.30289254 28.1323775 91.95550944 31.48535156 90.82861328 C35.46048291 89.359543 37.32796204 88.3326669 40 85 C42.75323489 76.37651219 42.52118534 67.08359691 42.5 58.125 C42.51016144 56.86467957 42.52032288 55.60435913 42.53079224 54.30584717 C42.91751635 38.15073081 42.91751635 38.15073081 35.90428162 24.29728699 C29.94764626 19.30032598 22.75385289 16.61157595 15.4453125 14.20849609 C10.80196068 12.57976937 6.98859903 10.17901969 2.9375 7.4375 C-3.28112932 3.59892951 -5.25603356 3.29514761 -11.4375 7.25 Z " fill="#212121" transform="translate(1051,99)"/>
<path d="M0 0 C4.69557647 -0.09954745 9.39052663 -0.17178467 14.08691406 -0.21972656 C15.68142408 -0.23973053 17.27586178 -0.26694301 18.87011719 -0.30175781 C35.37589879 -0.65294466 35.37589879 -0.65294466 42 4 C46.17946838 8.50096594 47.42143925 11.52015308 47.34375 17.55078125 C46.55776407 23.15093099 43.34657491 26.91127986 39.0625 30.375 C31.82887131 34.21325196 26.11296113 34.18028803 18 34 C18.33 40.93 18.66 47.86 19 55 C21.31 55.66 23.62 56.32 26 57 C26 57.99 26 58.98 26 60 C17.75 60 9.5 60 1 60 C1 59.01 1 58.02 1 57 C4.465 56.505 4.465 56.505 8 56 C8.07587748 48.91592242 8.12852671 41.83194906 8.16479492 34.74755859 C8.17990945 32.33606043 8.20040153 29.92458986 8.22631836 27.51318359 C8.26258425 24.05299072 8.27969956 20.59316029 8.29296875 17.1328125 C8.30845261 16.04944611 8.32393646 14.96607971 8.33988953 13.84988403 C8.34011612 12.8489975 8.34034271 11.84811096 8.34057617 10.81689453 C8.34723801 9.93309113 8.35389984 9.04928772 8.36076355 8.13870239 C8.24171158 7.4329306 8.12265961 6.72715881 8 6 C5.08235 4.0549 3.37462715 3.54723683 0 3 C0 2.01 0 1.02 0 0 Z " fill="#4F4F4F" transform="translate(160,377)"/>
<path d="M0 0 C6.05322331 -1.17358411 12.05037044 -2.05108879 18 0 C23.39353446 4.20111322 26.75272624 10.50310632 30.27050781 16.25732422 C33.14202565 20.81105535 36.3940411 25.07282537 39.625 29.375 C40.76389935 30.92383355 41.90197404 32.47327398 43.0390625 34.0234375 C45.28323429 37.07967011 47.62034077 40.04799335 50 43 C50.02471738 38.21281308 50.04286825 33.4256633 50.05493164 28.63842773 C50.05996065 27.00984042 50.06678465 25.38125763 50.07543945 23.75268555 C50.08756769 21.41193528 50.09324263 19.0712447 50.09765625 16.73046875 C50.10281754 16.00224411 50.10797882 15.27401947 50.11329651 14.52372742 C50.11364279 11.40397712 49.99455604 8.98366812 49 6 C47.1346755 4.98245132 47.1346755 4.98245132 44.9375 4.3125 C44.20402344 4.06113281 43.47054687 3.80976563 42.71484375 3.55078125 C42.14894531 3.36902344 41.58304688 3.18726563 41 3 C41 2.01 41 1.02 41 0 C48.92 0 56.84 0 65 0 C65 0.99 65 1.98 65 3 C63.865625 3.474375 62.73125 3.94875 61.5625 4.4375 C58.24259834 5.63622083 58.24259834 5.63622083 57 7 C56.87700834 8.68709347 56.82214742 10.37920903 56.79467773 12.07055664 C56.77473251 13.15160172 56.75478729 14.23264679 56.73423767 15.34645081 C56.70916893 17.110485 56.70916893 17.110485 56.68359375 18.91015625 C56.66281265 20.10732773 56.64203156 21.30449921 56.62062073 22.53794861 C56.55499721 26.37940487 56.49618097 30.22093201 56.4375 34.0625 C56.39432695 36.65951267 56.35071307 39.25651806 56.30664062 41.85351562 C56.19930284 48.23560117 56.09756069 54.61775793 56 61 C51.93169141 60.31430379 50.31394019 59.7952727 47.80078125 56.45703125 C47.23657471 55.72009033 46.67236816 54.98314941 46.09106445 54.22387695 C45.50413818 53.42812256 44.91721191 52.63236816 44.3125 51.8125 C43.69528076 50.99676514 43.07806152 50.18103027 42.44213867 49.34057617 C38.01541378 43.46031698 33.70022157 37.4997191 29.46484375 31.48046875 C25.07470372 25.24982611 20.5176857 19.13833608 16 13 C15.92568868 18.17778402 15.87132192 23.35525569 15.83520508 28.53344727 C15.82014447 30.29391896 15.79969174 32.0543533 15.77368164 33.81469727 C15.73717771 36.34921503 15.72024646 38.88323552 15.70703125 41.41796875 C15.69154739 42.20149216 15.67606354 42.98501556 15.66011047 43.7922821 C15.65871213 48.3613418 16.02442003 51.44483323 19 55 C22.57996259 56.36900354 22.57996259 56.36900354 26 57 C26 58.32 26 59.64 26 61 C17.75 61 9.5 61 1 61 C1 59.68 1 58.36 1 57 C1.56589844 56.80664062 2.13179687 56.61328125 2.71484375 56.4140625 C3.81505859 56.02347656 3.81505859 56.02347656 4.9375 55.625 C5.66839844 55.36976563 6.39929688 55.11453125 7.15234375 54.8515625 C9.18682116 54.14728587 9.18682116 54.14728587 10 52 C10.09410335 50.62697532 10.1279354 49.24953594 10.12939453 47.87329102 C10.13254669 47.02223282 10.13569885 46.17117462 10.13894653 45.29432678 C10.1369223 44.37348801 10.13489807 43.45264923 10.1328125 42.50390625 C10.13376923 41.55942123 10.13472595 40.61493622 10.13571167 39.64183044 C10.13639293 37.64199761 10.13454242 35.64216258 10.13037109 33.64233398 C10.12502801 30.57856274 10.13031486 27.5149385 10.13671875 24.45117188 C10.13605784 22.51041634 10.13477642 20.5696609 10.1328125 18.62890625 C10.13584885 17.25068443 10.13584885 17.25068443 10.13894653 15.84461975 C10.13579437 14.99040939 10.13264221 14.13619904 10.12939453 13.25610352 C10.12859894 12.50490738 10.12780334 11.75371124 10.12698364 10.97975159 C10.07082043 8.78770401 10.07082043 8.78770401 9 6 C6.90280128 4.97718482 6.90280128 4.97718482 4.4375 4.3125 C3.61121094 4.06113281 2.78492188 3.80976563 1.93359375 3.55078125 C1.29550781 3.36902344 0.65742187 3.18726563 0 3 C0 2.01 0 1.02 0 0 Z " fill="#4C4C4C" transform="translate(815,377)"/>
<path d="M0 0 C5.98783824 -0.82186015 12.08462209 -1.60296178 18 0 C22.03147784 3.43305535 24.24537482 7.33669916 26.78417969 11.9296875 C28.88633542 15.50926193 31.45978854 18.72418733 34 22 C39.50187732 29.21247889 44.74568269 36.60657327 50 44 C50.07413521 38.92801112 50.12859451 33.85633732 50.16479492 28.78393555 C50.17988516 27.05829373 50.20035975 25.33269028 50.22631836 23.60717773 C50.26269209 21.12734512 50.27972359 18.64801936 50.29296875 16.16796875 C50.31619453 15.01001045 50.31619453 15.01001045 50.33988953 13.82865906 C50.37658442 9.71001962 50.37658442 9.71001962 48.6809082 6.0637207 C46.26543527 4.53514909 43.7328571 3.78949205 41 3 C41 2.01 41 1.02 41 0 C48.92 0 56.84 0 65 0 C65 0.99 65 1.98 65 3 C62.36 3.66 59.72 4.32 57 5 C55.77413751 10.81957493 55.77670429 16.60268425 55.68359375 22.5234375 C55.66281265 23.62475006 55.64203156 24.72606262 55.62062073 25.86074829 C55.5554381 29.36543773 55.49638603 32.87019966 55.4375 36.375 C55.39428502 38.7565178 55.35066978 41.13802837 55.30664062 43.51953125 C55.19978888 49.3462784 55.09796533 55.17309703 55 61 C50.28173828 60.32470703 50.28173828 60.32470703 47.74609375 57.40234375 C46.96296419 56.25657277 46.19432732 55.10081227 45.4375 53.9375 C44.56062771 52.6509551 43.68163546 51.36585314 42.80078125 50.08203125 C42.34396973 49.40994629 41.8871582 48.73786133 41.41650391 48.04541016 C39.07836188 44.66916853 36.602749 41.39944247 34.125 38.125 C33.12235292 36.79430317 32.11974924 35.46357363 31.1171875 34.1328125 C30.61155273 33.46282227 30.10591797 32.79283203 29.58496094 32.10253906 C26.79929866 28.40720272 24.02550591 24.70296646 21.25 21 C19.50011177 18.66658284 17.75007455 16.33327743 16 14 C15.97526018 19.19612278 15.95712108 24.39221118 15.94506836 29.58837891 C15.94004313 31.35563759 15.93322191 33.12289212 15.92456055 34.89013672 C15.91241572 37.43197657 15.90675355 39.9737614 15.90234375 42.515625 C15.89718246 43.30430969 15.89202118 44.09299438 15.88670349 44.90557861 C15.88633536 48.5145055 16.11807709 51.47230836 17 55 C19.97 55.66 22.94 56.32 26 57 C26 58.32 26 59.64 26 61 C17.75 61 9.5 61 1 61 C1 59.68 1 58.36 1 57 C1.56589844 56.81824219 2.13179687 56.63648438 2.71484375 56.44921875 C3.44832031 56.19785156 4.18179688 55.94648438 4.9375 55.6875 C5.66839844 55.44386719 6.39929688 55.20023437 7.15234375 54.94921875 C9.35932024 54.08759559 9.35932024 54.08759559 10 51 C10.10937784 49.66128725 10.16842944 48.31804887 10.19287109 46.97509766 C10.20893402 46.17061188 10.22499695 45.3661261 10.24154663 44.53726196 C10.28614742 40.86860163 10.32704261 37.20011805 10.35009766 33.53125 C10.36666959 31.59720843 10.39397593 29.66322841 10.43212891 27.72949219 C10.48692096 24.93652689 10.50877242 22.14499297 10.5234375 19.3515625 C10.55744156 18.05915146 10.55744156 18.05915146 10.59213257 16.7406311 C10.5766652 12.34040964 10.44598821 10.56813373 7.64306641 6.99755859 C5.1263248 5.09547289 2.9979677 3.94221842 0 3 C0 2.01 0 1.02 0 0 Z " fill="#4D4D4D" transform="translate(954,377)"/>
<path d="M0 0 C1.32 0 2.64 0 4 0 C4.34705742 0.90082809 4.34705742 0.90082809 4.7011261 1.81985474 C7.11480837 8.0831077 9.53264719 14.34474453 11.95288086 20.60546875 C12.85498534 22.94067043 13.7560374 25.27627897 14.65600586 27.61230469 C15.9514815 30.97438945 17.2507633 34.33498193 18.55078125 37.6953125 C19.15095818 39.25658371 19.15095818 39.25658371 19.76325989 40.84939575 C22.80951108 49.56733595 22.80951108 49.56733595 28 57 C30.57061311 57.64767793 30.57061311 57.64767793 33 58 C33 59.32 33 60.64 33 62 C24.42 62 15.84 62 7 62 C7 60.68 7 59.36 7 58 C9.64 57.67 12.28 57.34 15 57 C14.6390625 56.01257813 14.278125 55.02515625 13.90625 54.0078125 C13.43733319 52.71360209 12.96859231 51.41932794 12.5 50.125 C12.26152344 49.47402344 12.02304687 48.82304687 11.77734375 48.15234375 C10 43.2265625 10 43.2265625 10 41 C2.74 41 -4.52 41 -12 41 C-12.495 42.7325 -12.99 44.465 -13.5 46.25 C-13.7784375 47.22453125 -14.056875 48.1990625 -14.34375 49.203125 C-15.15228866 52.17023413 -15.15228866 52.17023413 -15 56 C-12.36 56.66 -9.72 57.32 -7 58 C-7 59.32 -7 60.64 -7 62 C-14.59 62 -22.18 62 -30 62 C-30 60.68 -30 59.36 -30 58 C-28.948125 57.71125 -27.89625 57.4225 -26.8125 57.125 C-20.29445533 54.32593637 -18.35359549 46.01516754 -15.88769531 39.84155273 C-15.19619458 38.04080317 -14.50982488 36.23807637 -13.828125 34.43359375 C-13.46023865 33.47348892 -13.09235229 32.51338409 -12.71331787 31.52418518 C-11.5540759 28.49709908 -10.40155625 25.4675173 -9.25 22.4375 C-8.08329922 19.37569097 -6.91513157 16.31446392 -5.74383545 13.25440979 C-5.01866825 11.35913567 -4.29629352 9.4627903 -3.57696533 7.56529236 C-3.25282654 6.71673172 -2.92868774 5.86817108 -2.59472656 4.99389648 C-2.31002502 4.24462387 -2.02532349 3.49535126 -1.73199463 2.72337341 C-1 1 -1 1 0 0 Z " fill="#525252" transform="translate(619,376)"/>
<path d="M0 0 C1.32 0 2.64 0 4 0 C4.34705742 0.90082809 4.34705742 0.90082809 4.7011261 1.81985474 C7.11480837 8.0831077 9.53264719 14.34474453 11.95288086 20.60546875 C12.85498534 22.94067043 13.7560374 25.27627897 14.65600586 27.61230469 C15.9514815 30.97438945 17.2507633 34.33498193 18.55078125 37.6953125 C19.15095818 39.25658371 19.15095818 39.25658371 19.76325989 40.84939575 C22.80951108 49.56733595 22.80951108 49.56733595 28 57 C30.57061311 57.64767793 30.57061311 57.64767793 33 58 C33 59.32 33 60.64 33 62 C24.42 62 15.84 62 7 62 C7 60.68 7 59.36 7 58 C9.64 57.67 12.28 57.34 15 57 C14.6390625 56.01257813 14.278125 55.02515625 13.90625 54.0078125 C13.43733319 52.71360209 12.96859231 51.41932794 12.5 50.125 C12.26152344 49.47402344 12.02304687 48.82304687 11.77734375 48.15234375 C10 43.2265625 10 43.2265625 10 41 C2.74 41 -4.52 41 -12 41 C-12.495 42.7325 -12.99 44.465 -13.5 46.25 C-13.7784375 47.22453125 -14.056875 48.1990625 -14.34375 49.203125 C-15.15228866 52.17023413 -15.15228866 52.17023413 -15 56 C-12.36 56.66 -9.72 57.32 -7 58 C-7 59.32 -7 60.64 -7 62 C-14.59 62 -22.18 62 -30 62 C-30 60.68 -30 59.36 -30 58 C-28.948125 57.71125 -27.89625 57.4225 -26.8125 57.125 C-20.29445533 54.32593637 -18.35359549 46.01516754 -15.88769531 39.84155273 C-15.19619458 38.04080317 -14.50982488 36.23807637 -13.828125 34.43359375 C-13.46023865 33.47348892 -13.09235229 32.51338409 -12.71331787 31.52418518 C-11.5540759 28.49709908 -10.40155625 25.4675173 -9.25 22.4375 C-8.08329922 19.37569097 -6.91513157 16.31446392 -5.74383545 13.25440979 C-5.01866825 11.35913567 -4.29629352 9.4627903 -3.57696533 7.56529236 C-3.25282654 6.71673172 -2.92868774 5.86817108 -2.59472656 4.99389648 C-2.31002502 4.24462387 -2.02532349 3.49535126 -1.73199463 2.72337341 C-1 1 -1 1 0 0 Z " fill="#515151" transform="translate(328,376)"/>
<path d="M0 0 C1.32 0 2.64 0 4 0 C4.38220703 1.02134033 4.76441406 2.04268066 5.15820312 3.0949707 C8.52527774 12.08284307 11.91563488 21.06146698 15.34156799 30.02708435 C17.06960559 34.54982335 18.77491871 39.08003466 20.46484375 43.6171875 C21.11990823 45.30825739 21.77715868 46.99848367 22.4375 48.6875 C22.705625 49.43233643 22.97375 50.17717285 23.25 50.94458008 C24.09062867 53.20420971 24.09062867 53.20420971 26 56 C29.58092781 57.54992953 29.58092781 57.54992953 33 58 C33 59.32 33 60.64 33 62 C24.42 62 15.84 62 7 62 C7 60.68 7 59.36 7 58 C9.64 57.67 12.28 57.34 15 57 C14.6390625 56.01257813 14.278125 55.02515625 13.90625 54.0078125 C13.43733319 52.71360209 12.96859231 51.41932794 12.5 50.125 C12.26152344 49.47402344 12.02304688 48.82304687 11.77734375 48.15234375 C10 43.2265625 10 43.2265625 10 41 C2.74 41 -4.52 41 -12 41 C-15.23945657 50.05813749 -15.23945657 50.05813749 -15 56 C-12.36 56.66 -9.72 57.32 -7 58 C-7 59.32 -7 60.64 -7 62 C-14.59 62 -22.18 62 -30 62 C-30 60.68 -30 59.36 -30 58 C-28.39125 57.505 -28.39125 57.505 -26.75 57 C-20.78425071 54.41595468 -19.19141222 47.56705994 -16.90942383 41.88500977 C-16.17154693 39.98859522 -15.43758194 38.09065509 -14.70703125 36.19140625 C-14.11978523 34.68041603 -14.11978523 34.68041603 -13.52067566 33.13890076 C-12.2809665 29.94816883 -11.04629406 26.75552337 -9.8125 23.5625 C-8.56755725 20.34465781 -7.32148662 17.12727177 -6.07218933 13.91111755 C-5.29717028 11.91561345 -4.52472961 9.9191057 -3.75508118 7.92152405 C-3.40769394 7.02646652 -3.0603067 6.131409 -2.70239258 5.20922852 C-2.39690994 4.41839371 -2.09142731 3.6275589 -1.77668762 2.8127594 C-1 1 -1 1 0 0 Z " fill="#545454" transform="translate(1189,376)"/>
<path d="M0 0 C0 -0.66 0 -1.32 0 -2 C1.32 -2 2.64 -2 4 -2 C4 4.93 4 11.86 4 19 C3.01 19 2.02 19 1 19 C0.65388672 18.02160156 0.65388672 18.02160156 0.30078125 17.0234375 C-2.07320964 10.66151724 -4.24044664 5.2354101 -10.3125 1.625 C-15.28815677 0.46787052 -19.33761082 0.43478768 -24.125 2.0625 C-29.82392753 5.9030816 -33.32961038 10.28030477 -35 17 C-35.96837602 26.82166819 -36.98804944 38.61249066 -31.5 47.21875 C-28.429965 50.86441656 -25.61909461 53.4603018 -21 55 C-19.23208748 55.11934103 -17.45939356 55.17524624 -15.6875 55.1875 C-14.76324219 55.20167969 -13.83898438 55.21585937 -12.88671875 55.23046875 C-9.40713354 55.06873824 -9.40713354 55.06873824 -4 53 C-4.33 47.72 -4.66 42.44 -5 37 C-7.97 36.34 -10.94 35.68 -14 35 C-14 33.68 -14 32.36 -14 31 C-5.09 31 3.82 31 13 31 C12.67 32.32 12.34 33.64 12 35 C10.02 35.66 8.04 36.32 6 37 C5.67 42.94 5.34 48.88 5 55 C-5.69453097 59.04305439 -17.50935446 62.99609802 -28.75 58.4375 C-38.49894626 53.36875439 -43.56252776 46.31241672 -47 36 C-47.85992702 24.36983946 -46.89160209 15.45391836 -39.375 6.1875 C-28.626247 -4.9156075 -13.90266506 -5.95828503 0 0 Z " fill="#4F4F4F" transform="translate(1089,379)"/>
<path d="M0 0 C2.91837862 2.91837862 3.90710408 6.57684594 5.3359375 10.375 C5.65656158 11.21409912 5.97718567 12.05319824 6.30752563 12.91772461 C7.33507261 15.60992203 8.35523777 18.30484539 9.375 21 C10.38725434 23.6609069 11.40101294 26.32123644 12.4151001 28.98144531 C13.0660377 30.69002016 13.715915 32.39899937 14.36468506 34.10839844 C16.30325296 39.20913056 18.29064489 44.28435771 20.39306641 49.3203125 C21 51 21 51 21 53 C7.47 53 -6.06 53 -20 53 C-16.62434886 41.74782954 -16.62434886 41.74782954 -15.20654297 38.02514648 C-14.73122635 36.76981361 -14.73122635 36.76981361 -14.24630737 35.48912048 C-13.91494781 34.62517166 -13.58358826 33.76122284 -13.2421875 32.87109375 C-12.8936673 31.95538101 -12.54514709 31.03966827 -12.18606567 30.09620667 C-11.456646 28.18221884 -10.72549767 26.26888896 -9.99267578 24.35620117 C-8.86665042 21.41569588 -7.74742081 18.47266624 -6.62890625 15.52929688 C-5.91706499 13.66391045 -5.20483952 11.79867058 -4.4921875 9.93359375 C-4.15677948 9.05142685 -3.82137146 8.16925995 -3.47579956 7.26036072 C-3.16522614 6.45184158 -2.85465271 5.64332245 -2.53466797 4.81030273 C-2.12521439 3.73968849 -2.12521439 3.73968849 -1.70748901 2.64744568 C-1 1 -1 1 0 0 Z " fill="#FAFAFA" transform="translate(735,140)"/>
<path d="M0 0 C1.71201708 2.56802561 2.75294737 4.66043422 3.86352539 7.49975586 C4.22052017 8.40757309 4.57751495 9.31539032 4.94532776 10.25071716 C5.51573036 11.71795982 5.51573036 11.71795982 6.09765625 13.21484375 C6.49198349 14.22213028 6.88631073 15.22941681 7.29258728 16.26722717 C8.12557174 18.3974499 8.95679015 20.52836392 9.78637695 22.65991211 C11.05680093 25.92286254 12.3336229 29.18325426 13.61132812 32.44335938 C14.4196535 34.51287141 15.22760863 36.5825281 16.03515625 38.65234375 C16.41744888 39.62848129 16.79974152 40.60461884 17.19361877 41.6103363 C17.5474614 42.52130569 17.90130402 43.43227509 18.26586914 44.37084961 C18.57738419 45.17010361 18.88889923 45.9693576 19.20985413 46.79283142 C20 49 20 49 21 53 C7.47 53 -6.06 53 -20 53 C-19.2752818 49.37640902 -18.54568596 46.51513447 -17.25 43.13378906 C-16.89292969 42.19641907 -16.53585937 41.25904907 -16.16796875 40.29327393 C-15.58982422 38.79458771 -15.58982422 38.79458771 -15 37.265625 C-14.60425781 36.2318573 -14.20851563 35.1980896 -13.80078125 34.13299561 C-12.96545717 31.95365123 -12.12817253 29.77505745 -11.2890625 27.59716797 C-10.00011649 24.25030248 -8.71835596 20.90075 -7.4375 17.55078125 C-6.6254242 15.43473299 -5.81293845 13.318842 -5 11.203125 C-4.42185547 9.6922934 -4.42185547 9.6922934 -3.83203125 8.15093994 C-3.47496094 7.22617859 -3.11789062 6.30141724 -2.75 5.34863281 C-2.43546875 4.5309845 -2.1209375 3.71333618 -1.796875 2.87091064 C-1 1 -1 1 0 0 Z " fill="#FAFAFA" transform="translate(406,140)"/>
<path d="M0 0 C1.36125 0.7425 1.36125 0.7425 2.75 1.5 C3.41 0.84 4.07 0.18 4.75 -0.5 C6.07 -0.5 7.39 -0.5 8.75 -0.5 C8.75 6.1 8.75 12.7 8.75 19.5 C7.43 19.17 6.11 18.84 4.75 18.5 C3.66015625 16.390625 3.66015625 16.390625 2.8125 13.75 C1.19250501 9.29182481 -0.45879185 6.51352443 -4.25 3.5 C-7.85572704 2.29809099 -10.4602435 2.17329685 -14.25 2.5 C-17.31873898 3.82161427 -17.31873898 3.82161427 -19.25 6.5 C-19.94863459 10.05139251 -19.70168906 13.14748475 -18.55859375 16.5703125 C-16.74716176 19.24149879 -14.78957697 20.02098393 -11.875 21.375 C-10.80378906 21.890625 -9.73257813 22.40625 -8.62890625 22.9375 C-6.41780661 23.95997382 -4.19660197 24.96093992 -1.96484375 25.9375 C3.75798581 28.54716701 8.11921322 30.6697796 11.04296875 36.4296875 C12.8273413 41.65464579 12.31913136 45.75581585 10.0625 50.75 C7.19542986 55.87263231 3.23417191 58.81463798 -2.24609375 60.95703125 C-10.50079073 63.19368404 -17.62951667 60.74522484 -25.25 57.5 C-25.58 58.49 -25.91 59.48 -26.25 60.5 C-27.57 60.17 -28.89 59.84 -30.25 59.5 C-30.25 52.9 -30.25 46.3 -30.25 39.5 C-28.93 39.5 -27.61 39.5 -26.25 39.5 C-26.01925781 40.08007812 -25.78851562 40.66015625 -25.55078125 41.2578125 C-23.19879476 46.8914244 -20.81212925 52.31603069 -15.40234375 55.6328125 C-11.42587002 57.23494892 -7.44783539 57.13747419 -3.25 56.5 C0.06366812 54.76977606 0.06366812 54.76977606 1.75 51.5 C2.44953197 48.3287884 2.62547463 45.63625912 1.75 42.5 C-1.88703021 36.96323945 -5.55065795 35.09685797 -11.6875 32.9375 C-18.10783651 30.63290759 -23.83157735 28.34749058 -27.625 22.3125 C-28.90269516 16.56287177 -29.2328158 11.46563161 -26.5625 6.125 C-19.61835477 -1.75754324 -9.97149239 -4.33187784 0 0 Z " fill="#4E4E4E" transform="translate(557.25,377.5)"/>
<path d="M0 0 C17.49 0 34.98 0 53 0 C53 5.28 53 10.56 53 16 C49 15 49 15 47.62109375 13.2578125 C47.03521484 12.20207031 47.03521484 12.20207031 46.4375 11.125 C44.77313865 8.16734804 43.48100178 6.48100178 41 4 C37.7 3.67 34.4 3.34 31 3 C31.33 19.83 31.66 36.66 32 54 C34.97 54.99 37.94 55.98 41 57 C41 58.32 41 59.64 41 61 C31.43 61 21.86 61 12 61 C12 59.68 12 58.36 12 57 C16.455 56.505 16.455 56.505 21 56 C21.33 38.51 21.66 21.02 22 3 C11.39078082 2.73367313 11.39078082 2.73367313 7.4375 7.8125 C5.76864283 10.45196846 4.36814051 13.19436624 3 16 C2.01 16 1.02 16 0 16 C0 10.72 0 5.44 0 0 Z " fill="#515151" transform="translate(742,377)"/>
<path d="M0 0 C17.49 0 34.98 0 53 0 C53 5.28 53 10.56 53 16 C49 15 49 15 47.62109375 13.00390625 C47.03521484 11.79541016 47.03521484 11.79541016 46.4375 10.5625 C44.79915776 7.21598454 44.20330873 6.13553915 41 4 C37.7 3.67 34.4 3.34 31 3 C31.33 19.83 31.66 36.66 32 54 C34.97 54.99 37.94 55.98 41 57 C41 58.32 41 59.64 41 61 C31.43 61 21.86 61 12 61 C12 59.68 12 58.36 12 57 C13.11375 56.87625 14.2275 56.7525 15.375 56.625 C19.03103677 56.3534187 19.03103677 56.3534187 21 54 C21.33085773 51.73732275 21.33085773 51.73732275 21.31884766 49.09130859 C21.33871735 48.07040131 21.35858704 47.04949402 21.37905884 45.99765015 C21.39061005 44.89240997 21.40216125 43.7871698 21.4140625 42.6484375 C21.43342865 41.5192691 21.4527948 40.39010071 21.4727478 39.22671509 C21.53267069 35.60955428 21.57898002 31.99236187 21.625 28.375 C21.66316805 25.92706922 21.70221908 23.47915204 21.7421875 21.03125 C21.83838259 15.02095376 21.92339265 9.01057607 22 3 C20.239937 3.06536892 18.48086769 3.15785635 16.72265625 3.26171875 C15.25324585 3.33459106 15.25324585 3.33459106 13.75415039 3.40893555 C10.44140251 4.11987984 9.45161028 5.15053064 7.4375 7.8125 C5.76864283 10.45196846 4.36814051 13.19436624 3 16 C2.01 16 1.02 16 0 16 C0 10.72 0 5.44 0 0 Z " fill="#4F4F4F" transform="translate(669,377)"/>
<path d="M0 0 C17.49 0 34.98 0 53 0 C53 5.28 53 10.56 53 16 C49 15 49 15 47.62109375 13.2578125 C47.03521484 12.20207031 47.03521484 12.20207031 46.4375 11.125 C44.77313865 8.16734804 43.48100178 6.48100178 41 4 C37.7 3.67 34.4 3.34 31 3 C31.495 29.235 31.495 29.235 32 56 C34.97 56.33 37.94 56.66 41 57 C41 58.32 41 59.64 41 61 C31.43 61 21.86 61 12 61 C12 59.68 12 58.36 12 57 C13.11375 56.87625 14.2275 56.7525 15.375 56.625 C19.03103677 56.3534187 19.03103677 56.3534187 21 54 C21.33085773 51.73732275 21.33085773 51.73732275 21.31884766 49.09130859 C21.33871735 48.07040131 21.35858704 47.04949402 21.37905884 45.99765015 C21.39061005 44.89240997 21.40216125 43.7871698 21.4140625 42.6484375 C21.43342865 41.5192691 21.4527948 40.39010071 21.4727478 39.22671509 C21.53267069 35.60955428 21.57898002 31.99236187 21.625 28.375 C21.66316805 25.92706922 21.70221908 23.47915204 21.7421875 21.03125 C21.83838259 15.02095376 21.92339265 9.01057607 22 3 C20.239937 3.06536892 18.48086769 3.15785635 16.72265625 3.26171875 C15.25324585 3.33459106 15.25324585 3.33459106 13.75415039 3.40893555 C10.44140251 4.11987984 9.45161028 5.15053064 7.4375 7.8125 C5.76864283 10.45196846 4.36814051 13.19436624 3 16 C2.01 16 1.02 16 0 16 C0 10.72 0 5.44 0 0 Z " fill="#515151" transform="translate(451,377)"/>
<path d="M0 0 C17.49 0 34.98 0 53 0 C53 5.28 53 10.56 53 16 C49 15 49 15 47.62109375 13.00390625 C47.03521484 11.79541016 47.03521484 11.79541016 46.4375 10.5625 C44.79915776 7.21598454 44.20330873 6.13553915 41 4 C38.49103314 3.54398739 38.49103314 3.54398739 35.8125 3.375 C34.91144531 3.30023438 34.01039063 3.22546875 33.08203125 3.1484375 C32.39496094 3.09945313 31.70789063 3.05046875 31 3 C31.06681698 10.22690133 31.15654988 17.45325383 31.26245117 24.6796875 C31.29576766 27.13958212 31.32377836 29.59955442 31.34643555 32.05957031 C31.37985781 35.5895305 31.43216766 39.11877434 31.48828125 42.6484375 C31.49467117 43.75367767 31.5010611 44.85891785 31.50764465 45.99765015 C31.53733589 47.52901108 31.53733589 47.52901108 31.56762695 49.09130859 C31.57873001 49.99287689 31.58983307 50.89444519 31.60127258 51.82333374 C31.79864265 52.90078354 31.79864265 52.90078354 32 54 C35.18762365 56.12508244 37.26512223 56.5020163 41 57 C41 58.32 41 59.64 41 61 C31.43 61 21.86 61 12 61 C12 59.68 12 58.36 12 57 C16.455 56.505 16.455 56.505 21 56 C21.33 38.51 21.66 21.02 22 3 C11.39078082 2.73367313 11.39078082 2.73367313 7.4375 7.8125 C5.76864283 10.45196846 4.36814051 13.19436624 3 16 C2.01 16 1.02 16 0 16 C0 10.72 0 5.44 0 0 Z " fill="#4E4E4E" transform="translate(378,377)"/>
<path d="M0 0 C8.25 0 16.5 0 25 0 C25 0.99 25 1.98 25 3 C22.69 3.66 20.38 4.32 18 5 C17.97473213 12.10244999 17.95716799 19.20488848 17.94506836 26.30737305 C17.94002651 28.72567172 17.93319322 31.14396733 17.92456055 33.56225586 C17.91248843 37.02979283 17.90677037 40.49728966 17.90234375 43.96484375 C17.89718246 45.05337143 17.89202118 46.14189911 17.88670349 47.26341248 C17.88662796 48.26437454 17.88655243 49.26533661 17.88647461 50.29663086 C17.88314369 51.62566689 17.88314369 51.62566689 17.87974548 52.98155212 C17.77571959 54.9969869 17.77571959 54.9969869 19 56 C21.43212772 56.15423249 23.81635567 56.23166746 26.25 56.25 C26.91902344 56.270625 27.58804687 56.29125 28.27734375 56.3125 C32.73502104 56.34753086 35.54641772 55.85876495 39 53 C40.86642222 50.31903846 40.86642222 50.31903846 42.3125 47.3125 C42.82425781 46.31863281 43.33601563 45.32476562 43.86328125 44.30078125 C44.23839844 43.54152344 44.61351562 42.78226562 45 42 C45.99 42 46.98 42 48 42 C47.67 48.27 47.34 54.54 47 61 C31.16 61 15.32 61 -1 61 C-1 59.68 -1 58.36 -1 57 C1.64 56.67 4.28 56.34 7 56 C7 39.17 7 22.34 7 5 C4.69 4.34 2.38 3.68 0 3 C0 2.01 0 1.02 0 0 Z " fill="#4C4C4C" transform="translate(233,377)"/>
<path d="M0 0 C9.24 0 18.48 0 28 0 C28 0.99 28 1.98 28 3 C25.36 3.66 22.72 4.32 20 5 C20 21.5 20 38 20 55 C22.64 55.66 25.28 56.32 28 57 C28 58.32 28 59.64 28 61 C18.76 61 9.52 61 0 61 C0 59.68 0 58.36 0 57 C1.134375 56.855625 2.26875 56.71125 3.4375 56.5625 C6.80777201 56.38828522 6.80777201 56.38828522 8 55 C8.09319449 53.4651703 8.117458 51.92607918 8.11352539 50.38842773 C8.11344986 49.40748642 8.11337433 48.4265451 8.11329651 47.4158783 C8.10813522 46.3492244 8.10297394 45.2825705 8.09765625 44.18359375 C8.0962413 43.0974025 8.09482635 42.01121124 8.09336853 40.8921051 C8.08775048 37.40720925 8.07519492 33.92237658 8.0625 30.4375 C8.05748733 28.08138113 8.05292402 25.72526126 8.04882812 23.36914062 C8.03777519 17.57940536 8.02101951 11.78970719 8 6 C5.36 5.01 2.72 4.02 0 3 C0 2.01 0 1.02 0 0 Z " fill="#585858" transform="translate(903,377)"/>
<path d="M0 0 C0.33 0 0.66 0 1 0 C5.69934737 53.01227668 5.69934737 53.01227668 -1.42578125 63.26953125 C-7.15039709 69.52938351 -15.42677198 72.23562902 -23.32226562 74.70947266 C-28.93308062 76.67832343 -33.5825601 79.84095261 -38.5 83.125 C-40.06167081 84.12456246 -41.6336782 85.10828953 -43.21875 86.0703125 C-43.85748047 86.47008301 -44.49621094 86.86985352 -45.15429688 87.28173828 C-47.53879169 88.20967264 -48.62743734 87.8823969 -51 87 C-53.48084245 85.65241812 -55.89638432 84.26806307 -58.3125 82.8125 C-59.0336499 82.38122803 -59.7547998 81.94995605 -60.49780273 81.50561523 C-62.10208887 80.54438816 -63.70495549 79.58078924 -65.30664062 78.61523438 C-68.2729564 76.83630533 -71.25340995 75.08238551 -74.234375 73.328125 C-76.34418491 72.07364781 -78.45356396 70.81844571 -80.5625 69.5625 C-82.10707886 68.65818237 -82.10707886 68.65818237 -83.68286133 67.7355957 C-84.63443115 67.16413818 -85.58600098 66.59268066 -86.56640625 66.00390625 C-87.42177979 65.49674072 -88.27715332 64.9895752 -89.15844727 64.46704102 C-89.76615967 63.98291748 -90.37387207 63.49879395 -91 63 C-91 60 -91 60 -89 58 C-85.05265606 60.31050891 -81.10573593 62.62173963 -77.15917969 64.93359375 C-75.82107523 65.71731312 -74.4828621 66.50084698 -73.14453125 67.28417969 C-71.84446761 68.04514508 -70.54464075 68.80651513 -69.24505615 69.56829834 C-67.96471612 70.31798848 -66.68334616 71.06592251 -65.40093994 71.81207275 C-62.56234551 73.46869659 -59.76480481 75.15115864 -56.99902344 76.92871094 C-56.13051758 77.4859082 -55.26201172 78.04310547 -54.3671875 78.6171875 C-53.6335498 79.10558105 -52.89991211 79.59397461 -52.14404297 80.09716797 C-49.3548085 81.27168278 -47.85656637 80.87275881 -45 80 C-43.04430746 79.03359053 -41.13185202 77.97831933 -39.25 76.875 C-38.39196777 76.37613281 -38.39196777 76.37613281 -37.51660156 75.8671875 C-33.18331788 73.33191944 -28.89057019 70.72922633 -24.59375 68.1328125 C-23.46807617 67.4536377 -22.34240234 66.77446289 -21.18261719 66.07470703 C-18.90333816 64.69902305 -16.62905042 63.31597882 -14.35644531 61.92919922 C-13.30553711 61.29256348 -12.25462891 60.65592773 -11.171875 60 C-10.2240918 59.4225 -9.27630859 58.845 -8.29980469 58.25 C-6 57 -6 57 -4 57 C-4 38.85 -4 20.7 -4 2 C-3.67 2 -3.34 2 -3 2 C-2.67 18.83 -2.34 35.66 -2 53 C-0.34702091 51.34702091 -0.83307817 49.38963445 -0.79467773 47.11303711 C-0.77473251 46.07203354 -0.75478729 45.03102997 -0.73423767 43.95848083 C-0.71752518 42.8262056 -0.70081268 41.69393036 -0.68359375 40.52734375 C-0.66281265 39.37456436 -0.64203156 38.22178497 -0.62062073 37.03407288 C-0.55500036 33.33527843 -0.49618245 29.63641041 -0.4375 25.9375 C-0.39432665 23.43684121 -0.35071276 20.93618999 -0.30664062 18.43554688 C-0.19930632 12.29044338 -0.09756357 6.14526596 0 0 Z " fill="#1F1F1F" transform="translate(1345,127)"/>
<path d="M0 0 C-0.36463549 2.57790409 -0.66929861 3.71918148 -2.68652344 5.43212891 C-3.40356445 5.85929199 -4.12060547 6.28645508 -4.859375 6.7265625 C-6.03886719 7.438125 -6.03886719 7.438125 -7.2421875 8.1640625 C-8.06976562 8.64617187 -8.89734375 9.12828125 -9.75 9.625 C-10.56210937 10.11484375 -11.37421875 10.6046875 -12.2109375 11.109375 C-16.07442552 13.41236623 -19.80849234 15.35574594 -24 17 C-27.90918439 45.95977723 -27.90918439 45.95977723 -21.60534668 73.35083008 C-14.84091936 81.36476264 -4.45727098 85.36642429 5.28369141 88.54516602 C9.28834573 90.11287953 12.96095103 91.89879254 16 95 C16.69277954 97.16114807 16.69277954 97.16114807 17 99 C12.0864327 98.47774062 8.86244739 97.01767104 4.67578125 94.4296875 C4.08887009 94.0703714 3.50195892 93.7110553 2.89726257 93.34085083 C1.02995784 92.19455758 -0.82870233 91.03502519 -2.6875 89.875 C-3.91547996 89.11892098 -5.14399189 88.36370525 -6.37304688 87.609375 C-12.71632549 83.70524609 -12.71632549 83.70524609 -14.97839355 82.22673035 C-17.09126436 80.90088101 -17.09126436 80.90088101 -19.81848145 79.63716125 C-27.34082341 75.68162766 -27.34082341 75.68162766 -29.11387634 71.15838623 C-29.65846187 67.63012499 -29.83826467 64.25359 -29.8828125 60.68359375 C-29.92179657 59.39493912 -29.96078064 58.10628448 -30.00094604 56.77857971 C-30.07110867 54.05347214 -30.09570961 51.33215958 -30.09326172 48.60620117 C-30.09683717 45.83092102 -30.17949068 43.07703058 -30.33935547 40.30639648 C-31.59612738 18.22357319 -31.59612738 18.22357319 -25.71325684 11.31427002 C-18.71746433 5.49133643 -9.41179025 -0.54267843 0 0 Z " fill="#171717" transform="translate(1026,112)"/>
<path d="M0 0 C2.45248876 2.19415015 3.65241226 4.09645203 4.82421875 7.16015625 C5.13037109 7.95357422 5.43652344 8.74699219 5.75195312 9.56445312 C6.21504883 10.80098633 6.21504883 10.80098633 6.6875 12.0625 C7.00783203 12.89072266 7.32816406 13.71894531 7.65820312 14.57226562 C10 20.70887193 10 20.70887193 10 23 C9.01 23 8.02 23 7 23 C8 25.5 8 25.5 12 27 C4.74 27 -2.52 27 -10 27 C-13.23945657 36.05813749 -13.23945657 36.05813749 -13 42 C-10.36 42.66 -7.72 43.32 -5 44 C-5 45.32 -5 46.64 -5 48 C-12.59 48 -20.18 48 -28 48 C-28 46.68 -28 45.36 -28 44 C-26.39125 43.505 -26.39125 43.505 -24.75 43 C-18.1469934 40.08285082 -16.4523759 31.74790768 -13.984375 25.4375 C-12.89867925 22.62787467 -11.82404341 19.81409591 -10.75 17 C-10.19047172 15.54282756 -9.63057891 14.08579504 -9.0703125 12.62890625 C-7.70933158 9.08753742 -6.35330474 5.54430893 -5 2 C-3.35 2 -1.7 2 0 2 C0 1.34 0 0.68 0 0 Z " fill="#5A5A5A" transform="translate(1187,390)"/>
<path d="M0 0 C0.84747803 0.49411377 1.69495605 0.98822754 2.56811523 1.49731445 C3.70385986 2.12686035 4.83960449 2.75640625 6.00976562 3.4050293 C7.31413289 4.16874469 8.61601595 4.93671407 9.91577148 5.70825195 C10.60948349 6.11766022 11.3031955 6.52706848 12.01792908 6.94888306 C13.4788657 7.8127911 14.93869012 8.67858242 16.39746094 9.54614258 C18.62277895 10.86766083 20.85397114 12.17883526 23.08569336 13.48950195 C24.50858948 14.33262771 25.93112778 15.17635768 27.35327148 16.02075195 C28.01690201 16.40943451 28.68053253 16.79811707 29.36427307 17.19857788 C32.86376174 19.29324064 35.96031027 21.33274043 38.56811523 24.49731445 C38.31811523 26.74731445 38.31811523 26.74731445 37.56811523 28.49731445 C35.71099106 27.46092973 33.85776399 26.41756487 32.00561523 25.37231445 C31.1027478 24.86390015 31.1027478 24.86390015 30.18164062 24.34521484 C25.95204654 21.93520304 21.81056782 19.41097482 17.69311523 16.8137207 C16.67290283 16.17515137 15.65269043 15.53658203 14.6015625 14.87866211 C12.55273253 13.59226638 10.51136739 12.29389701 8.47802734 10.9831543 C7.52677979 10.38841309 6.57553223 9.79367188 5.59545898 9.1809082 C4.74717529 8.64006592 3.8988916 8.09922363 3.02490234 7.54199219 C-0.04239807 6.23771131 -1.29903685 6.43142527 -4.43188477 7.49731445 C-7.12432191 8.83880834 -7.12432191 8.83880834 -9.86157227 10.55981445 C-10.90571289 11.19274414 -11.94985352 11.82567383 -13.02563477 12.4777832 C-14.10844727 13.14422852 -15.19125977 13.81067383 -16.30688477 14.49731445 C-18.42923063 15.78906323 -20.55162707 17.0807289 -22.67407227 18.37231445 C-23.75068115 19.06526611 -24.82729004 19.75821777 -25.93652344 20.47216797 C-28.40563923 21.99878353 -30.81588703 23.05716342 -33.54638672 24.03613281 C-37.94079483 25.77734261 -41.69861549 27.50497614 -44.43188477 31.49731445 C-47.07814827 40.3200078 -46.1587691 49.96778959 -45.86938477 59.05981445 C-45.84234368 61.62029808 -45.82208995 64.18086296 -45.80883789 66.74145508 C-45.76171505 72.99648828 -45.62977816 79.24533142 -45.43188477 85.49731445 C-45.76188477 85.49731445 -46.09188477 85.49731445 -46.43188477 85.49731445 C-46.44734596 84.49586395 -46.44734596 84.49586395 -46.46311951 83.47418213 C-46.57122185 76.5312732 -46.68581703 69.58849306 -46.80419922 62.64575195 C-46.84753605 60.05398247 -46.88921202 57.46218466 -46.92919922 54.87036133 C-46.98693179 51.14696717 -47.05061806 47.42371541 -47.11547852 43.70043945 C-47.13219101 42.53990051 -47.1489035 41.37936157 -47.16612244 40.18365479 C-47.18606766 39.1028363 -47.20601288 38.02201782 -47.2265625 36.90844727 C-47.24210678 35.95802551 -47.25765106 35.00760376 -47.27366638 34.02838135 C-47.41823132 31.7157327 -47.78187731 29.71459175 -48.43188477 27.49731445 C-47.08779541 26.70466187 -47.08779541 26.70466187 -45.71655273 25.89599609 C-42.31909403 23.89141559 -38.92379063 21.88320757 -35.52905273 19.87402344 C-34.07323724 19.01304181 -32.61687662 18.15298113 -31.15991211 17.29394531 C-29.03810708 16.04268072 -26.91837208 14.78797298 -24.79907227 13.5324707 C-24.09876892 13.11985992 -23.39846558 12.70724915 -22.67694092 12.28213501 C-19.19036203 10.21085957 -15.77465227 8.08269152 -12.42895508 5.78979492 C-11.79748566 5.36178085 -11.16601624 4.93376678 -10.51541138 4.49278259 C-9.32937116 3.68115044 -8.15363289 2.85417827 -6.99069214 2.00978088 C-4.44835522 0.27477924 -3.08648436 -0.63799531 0 0 Z " fill="#1F1F1F" transform="translate(1235.431884765625,194.502685546875)"/>
<path d="M0 0 C1.76161087 -0.03048616 3.52337424 -0.05224588 5.28515625 -0.0703125 C6.26621338 -0.08336426 7.24727051 -0.09641602 8.25805664 -0.10986328 C11.90747964 0.03636059 14.05425112 0.84457399 17 3 C20.71190621 7.10263318 21.64935205 10.44085808 21.38671875 15.8203125 C20.59047431 20.3082357 18.17789571 22.9903751 14.8125 25.875 C10.9054114 27.43783544 7.16052196 27.59992545 3 27 C2.01 26.34 1.02 25.68 0 25 C-0.34057617 22.47802734 -0.34057617 22.47802734 -0.29296875 19.3359375 C-0.28330078 18.21445312 -0.27363281 17.09296875 -0.26367188 15.9375 C-0.23853516 14.761875 -0.21339844 13.58625 -0.1875 12.375 C-0.17396484 11.19164062 -0.16042969 10.00828125 -0.14648438 8.7890625 C-0.11103916 5.85892461 -0.06162769 2.92968541 0 0 Z " fill="#FBFBFB" transform="translate(1260,407)"/>
<path d="M0 0 C0.66 0 1.32 0 2 0 C3.33871641 3.45627381 4.67005392 6.91534297 6 10.375 C6.3815625 11.35984375 6.763125 12.3446875 7.15625 13.359375 C7.69765625 14.77089844 7.69765625 14.77089844 8.25 16.2109375 C8.58515625 17.08024902 8.9203125 17.94956055 9.265625 18.84521484 C10 21 10 21 10 23 C9.00097656 23.04898437 8.00195312 23.09796875 6.97265625 23.1484375 C5.68230469 23.22320312 4.39195312 23.29796875 3.0625 23.375 C1.77472656 23.44460938 0.48695313 23.51421875 -0.83984375 23.5859375 C-1.88269531 23.72257812 -2.92554688 23.85921875 -4 24 C-4.33 24.66 -4.66 25.32 -5 26 C0.61 26 6.22 26 12 26 C12 26.33 12 26.66 12 27 C4.74 27 -2.52 27 -10 27 C-10.495 28.7325 -10.99 30.465 -11.5 32.25 C-11.7784375 33.22453125 -12.056875 34.1990625 -12.34375 35.203125 C-13.15228866 38.17023413 -13.15228866 38.17023413 -13 42 C-10.36 42.66 -7.72 43.32 -5 44 C-5 45.32 -5 46.64 -5 48 C-12.59 48 -20.18 48 -28 48 C-28 46.68 -28 45.36 -28 44 C-26.948125 43.71125 -25.89625 43.4225 -24.8125 43.125 C-19.48700465 40.810499 -18.03677306 36.13914261 -16 31 C-14.16137798 25.85815576 -14.16137798 25.85815576 -12.40625 20.6875 C-11 18 -11 18 -8.55078125 17.1328125 C-5.5428158 15.79696261 -5.39464847 15.24330667 -4.19921875 12.3046875 C-3.67615187 10.83480337 -3.17279762 9.3577827 -2.6875 7.875 C-2.42388672 7.12089844 -2.16027344 6.36679687 -1.88867188 5.58984375 C-1.24209349 3.7324004 -0.61875492 1.86689629 0 0 Z " fill="#5E5E5E" transform="translate(617,390)"/>
<path d="M0 0 C0.66 0 1.32 0 2 0 C3.33871641 3.45627381 4.67005392 6.91534297 6 10.375 C6.3815625 11.35984375 6.763125 12.3446875 7.15625 13.359375 C7.69765625 14.77089844 7.69765625 14.77089844 8.25 16.2109375 C8.58515625 17.08024902 8.9203125 17.94956055 9.265625 18.84521484 C10 21 10 21 10 23 C4.72 23.33 -0.56 23.66 -6 24 C-6 24.33 -6 24.66 -6 25 C-0.06 25.33 5.88 25.66 12 26 C12 26.33 12 26.66 12 27 C4.74 27 -2.52 27 -10 27 C-10.495 28.7325 -10.99 30.465 -11.5 32.25 C-11.7784375 33.22453125 -12.056875 34.1990625 -12.34375 35.203125 C-13.15228866 38.17023413 -13.15228866 38.17023413 -13 42 C-10.36 42.66 -7.72 43.32 -5 44 C-5 45.32 -5 46.64 -5 48 C-12.59 48 -20.18 48 -28 48 C-28 46.68 -28 45.36 -28 44 C-26.948125 43.71125 -25.89625 43.4225 -24.8125 43.125 C-19.49162177 40.84002608 -18.07028625 36.0900486 -16 31 C-15.60554688 30.04996094 -15.21109375 29.09992188 -14.8046875 28.12109375 C-13.84279451 25.75672043 -12.90845118 23.38531874 -12 21 C-10.68 21 -9.36 21 -8 21 C-5.36 14.07 -2.72 7.14 0 0 Z " fill="#5C5C5C" transform="translate(326,390)"/>
<path d="M0 0 C12 0 12 0 15.1875 2.375 C18.54957511 7.24421223 18.48257344 11.18230912 18 17 C16.71320376 20.93187741 15.73164943 22.47739326 12.375 24.875 C9 26 9 26 0 26 C0 17.42 0 8.84 0 0 Z " fill="#FCFCFC" transform="translate(178,381)"/>
<path d="M0 0 C12.65384615 0 12.65384615 0 17.8125 4.625 C19.67759504 8.35519007 19.52624769 11.91427139 19 16 C17.65193976 19.44504283 16.4487336 20.68260306 13.4375 22.8125 C10 24 10 24 0 24 C0 16.08 0 8.16 0 0 Z " fill="#F3F3F3" transform="translate(1259,380)"/>
<path d="M0 0 C0.33 0 0.66 0 1 0 C1.33 17.16 1.66 34.32 2 52 C2.33 51.01 2.66 50.02 3 49 C3.66 49 4.32 49 5 49 C6.09766746 53.79960479 6.09766746 53.79960479 5 57 C1.17295919 60.42453609 -3.27898754 62.77787072 -7.75 65.25 C-9.03229861 65.9847102 -10.31305605 66.72211652 -11.59228516 67.4621582 C-13.52741027 68.57951442 -15.46410096 69.69319786 -17.40847778 70.79438782 C-21.37606698 73.04155895 -25.25841844 75.38288911 -29.1015625 77.83984375 C-30.00165039 78.40993164 -30.90173828 78.98001953 -31.82910156 79.56738281 C-33.4877454 80.62288344 -35.13863591 81.69069979 -36.78027344 82.77246094 C-42.21695636 86.1547073 -42.21695636 86.1547073 -46.5390625 85.30078125 C-47.35117188 84.87152344 -48.16328125 84.44226563 -49 84 C-49 81 -49 81 -48 78 C-47.16065918 78.24508301 -46.32131836 78.49016602 -45.45654297 78.74267578 C-40.95243831 79.0779863 -38.37588216 77.4326473 -34.6953125 75.1171875 C-34.01250214 74.70590607 -33.32969177 74.29462463 -32.62619019 73.87088013 C-30.44920157 72.55449422 -28.28732619 71.21530475 -26.125 69.875 C-24.67931612 68.99586353 -23.23270909 68.11824321 -21.78515625 67.2421875 C-19.10118067 65.61318454 -16.42193553 63.977109 -13.75048828 62.32763672 C-12.83858734 61.76517242 -12.83858734 61.76517242 -11.90826416 61.19134521 C-10.53901231 60.33650988 -9.17696721 59.47008955 -7.81976318 58.59625244 C-6.74664886 57.90882965 -6.74664886 57.90882965 -5.65185547 57.20751953 C-4.67537552 56.57476608 -4.67537552 56.57476608 -3.6791687 55.92922974 C-2 55 -2 55 0 55 C0 36.85 0 18.7 0 0 Z " fill="#1E1E1E" transform="translate(1091,129)"/>
<path d="M0 0 C1.32 0 2.64 0 4 0 C5.73704609 4.51700296 7.464097 9.03764979 9.18188477 13.56201172 C9.7679985 15.10147431 10.35685853 16.63989417 10.94848633 18.17724609 C11.79707738 20.38372508 12.63580932 22.59373215 13.47265625 24.8046875 C13.74030289 25.49432587 14.00794952 26.18396423 14.28370667 26.89450073 C14.91442471 28.57549046 15.46490789 30.28617149 16 32 C14.768606 34.46278801 13.21935077 35.42497687 11 37 C10.34 36.34 9.68 35.68 9 35 C8.34 35 7.68 35 7 35 C4.36 28.4 1.72 21.8 -1 15 C-2.65 15.33 -4.3 15.66 -6 16 C-4.43551329 10.3856009 -2.83604813 5.13189662 0 0 Z " fill="#4E4E4E" transform="translate(1189,376)"/>
<path d="M0 0 C1.65 0 3.3 0 5 0 C4.99476318 1.19077148 4.98952637 2.38154297 4.98413086 3.60839844 C4.96602212 8.0289637 4.95454647 12.44952569 4.94506836 16.87011719 C4.94004159 18.78288321 4.93321923 20.6956454 4.92456055 22.60839844 C4.91242252 25.3587336 4.9067551 28.10901793 4.90234375 30.859375 C4.89718246 31.71368103 4.89202118 32.56798706 4.88670349 33.44818115 C4.88662796 34.24870911 4.88655243 35.04923706 4.88647461 35.87402344 C4.88314369 36.92659332 4.88314369 36.92659332 4.87974548 38.00042725 C4.96027882 40.36204901 4.96027882 40.36204901 6 44 C8.97 44.66 11.94 45.32 15 46 C15 47.32 15 48.64 15 50 C6.75 50 -1.5 50 -10 50 C-10 48.68 -10 47.36 -10 46 C-9.43410156 45.81824219 -8.86820313 45.63648438 -8.28515625 45.44921875 C-7.55167969 45.19785156 -6.81820312 44.94648438 -6.0625 44.6875 C-5.33160156 44.44386719 -4.60070312 44.20023437 -3.84765625 43.94921875 C-1.64067976 43.08759559 -1.64067976 43.08759559 -1 40 C-0.88764839 38.66548737 -0.82424351 37.32645611 -0.79467773 35.98754883 C-0.77473251 35.18694534 -0.75478729 34.38634186 -0.73423767 33.56147766 C-0.71752518 32.70201035 -0.70081268 31.84254303 -0.68359375 30.95703125 C-0.6524221 29.63163582 -0.6524221 29.63163582 -0.62062073 28.27946472 C-0.55524246 25.45722215 -0.49629472 22.63488665 -0.4375 19.8125 C-0.39430363 17.89907894 -0.35068898 15.98566727 -0.30664062 14.07226562 C-0.19957305 9.38160563 -0.09827248 4.69085217 0 0 Z " fill="#545454" transform="translate(965,388)"/>
<path d="M0 0 C2.97 1.65 5.94 3.3 9 5 C9 24.8 9 44.6 9 65 C6.525 65.99 6.525 65.99 4 67 C4.33 47.53 4.66 28.06 5 8 C2.525 7.01 2.525 7.01 0 6 C-0.875 3.4375 -0.875 3.4375 -1 1 C-0.67 0.67 -0.34 0.34 0 0 Z " fill="#151515" transform="translate(1274,218)"/>
<path d="M0 0 C0.66 0.66 1.32 1.32 2 2 C1.67 2.66 1.34 3.32 1 4 C0.90938144 5.72606453 0.88245499 7.45564507 0.88647461 9.18408203 C0.88655014 10.26505157 0.88662567 11.34602112 0.88670349 12.45974731 C0.89186478 13.63060883 0.89702606 14.80147034 0.90234375 16.0078125 C0.9037587 17.20356903 0.90517365 18.39932556 0.90663147 19.63131714 C0.91224337 23.46256987 0.92479792 27.29376484 0.9375 31.125 C0.94251347 33.71744707 0.94707664 36.30989506 0.95117188 38.90234375 C0.96221667 45.26824898 0.97896641 51.63412037 1 58 C1.66 58.33 2.32 58.66 3 59 C3.625 61.0625 3.625 61.0625 4 63 C2.25 63.6875 2.25 63.6875 0 64 C-2.11224365 62.88505554 -2.11224365 62.88505554 -4 61 C-4.48101807 58.36140442 -4.48101807 58.36140442 -4.45410156 55.15161133 C-4.45379944 53.9505928 -4.45349731 52.74957428 -4.45318604 51.51216125 C-4.43254089 50.21521835 -4.41189575 48.91827545 -4.390625 47.58203125 C-4.38316314 46.2411127 -4.37746994 44.90018324 -4.37347412 43.55924988 C-4.35821299 40.03262134 -4.31892849 36.50665344 -4.2746582 32.98028564 C-4.23371497 29.38082822 -4.21546522 25.78126387 -4.1953125 22.18164062 C-4.15243366 15.12082373 -4.08417745 8.06045503 -4 1 C-2.125 0.375 -2.125 0.375 0 0 Z " fill="#131313" transform="translate(1252,125)"/>
<path d="M0 0 C3 1 3 1 4 3 C4.09061856 4.72606453 4.11754501 6.45564507 4.11352539 8.18408203 C4.11341209 9.80553635 4.11341209 9.80553635 4.11329651 11.45974731 C4.10813522 12.63060883 4.10297394 13.80147034 4.09765625 15.0078125 C4.0962413 16.20356903 4.09482635 17.39932556 4.09336853 18.63131714 C4.08775663 22.46256987 4.07520208 26.29376484 4.0625 30.125 C4.05748653 32.71744707 4.05292336 35.30989506 4.04882812 37.90234375 C4.03778333 44.26824898 4.02103359 50.63412037 4 57 C4.99 57.33 5.98 57.66 7 58 C7 58.66 7 59.32 7 60 C2.25 61.125 2.25 61.125 0 60 C0 40.2 0 20.4 0 0 Z " fill="#141414" transform="translate(1185,223)"/>
<path d="M0 0 C7.92 0 15.84 0 24 0 C24 0.99 24 1.98 24 3 C22.2421875 3.61848958 20.484375 4.23697917 18.7265625 4.85546875 C16.20208261 6.52893619 15.90244176 8.11218637 15 11 C14.76855265 13.7442284 14.62881622 16.39844295 14.5859375 19.14453125 C14.56657135 19.91431808 14.5472052 20.68410492 14.5272522 21.47721863 C14.46774377 23.92220171 14.42118705 26.36723262 14.375 28.8125 C14.33679369 30.47593134 14.29774043 32.13934347 14.2578125 33.80273438 C14.16206617 37.86833241 14.07792991 41.93402301 14 46 C13.67 45.34 13.34 44.68 13 44 C12.34 44 11.68 44 11 44 C10.98018066 43.02651611 10.96036133 42.05303223 10.93994141 41.05004883 C10.86364633 37.42495649 10.77496664 33.80025306 10.68261719 30.17553711 C10.64442591 28.60920919 10.60955606 27.04279651 10.578125 25.47631836 C10.53225929 23.219582 10.47430231 20.96342417 10.4140625 18.70703125 C10.40251129 18.01100296 10.39096008 17.31497467 10.37905884 16.59785461 C10.26080283 12.66798524 9.83622532 9.50224794 8 6 C6.08686905 4.77301338 6.08686905 4.77301338 3.875 4.1875 C3.15054688 3.95417969 2.42609375 3.72085937 1.6796875 3.48046875 C0.84824219 3.24263672 0.84824219 3.24263672 0 3 C0 2.01 0 1.02 0 0 Z " fill="#4B4B4B" transform="translate(856,377)"/>
<path d="M0 0 C0.33 0 0.66 0 1 0 C1 10.89 1 21.78 1 33 C1.66 33 2.32 33 3 33 C3.33 22.11 3.66 11.22 4 0 C4.33 0 4.66 0 5 0 C5 16.5 5 33 5 50 C-0.52338051 48.8953239 -1.80833275 47.45964994 -4.875 43.1875 C-5.29007813 42.65318359 -5.70515625 42.11886719 -6.1328125 41.56835938 C-7.86521495 39.22095405 -9.01528155 37.64946567 -8.9453125 34.67578125 C-8 33 -8 33 -5 32 C-4.34 31.34 -3.68 30.68 -3 30 C-2.34 30.66 -1.68 31.32 -1 32 C-0.67 21.44 -0.34 10.88 0 0 Z " fill="#646464" transform="translate(866,388)"/>
<path d="M0 0 C3.375 -0.125 3.375 -0.125 7 0 C9.51575387 2.51575387 9.26069279 3.3641879 9.29052734 6.84521484 C9.3096669 8.35720963 9.3096669 8.35720963 9.32919312 9.89974976 C9.33141876 10.99244171 9.33364441 12.08513367 9.3359375 13.2109375 C9.3425943 14.3306192 9.3492511 15.4503009 9.35610962 16.60391235 C9.36624981 18.97615919 9.37092622 21.34843464 9.37060547 23.72070312 C9.37497396 27.35334274 9.41126805 30.98476341 9.44921875 34.6171875 C9.45508747 36.91926667 9.45905649 39.22135162 9.4609375 41.5234375 C9.47530853 42.61208099 9.48967957 43.70072449 9.50448608 44.82235718 C9.4952562 46.34380844 9.4952562 46.34380844 9.48583984 47.89599609 C9.48868988 48.78709076 9.49153992 49.67818542 9.49447632 50.59628296 C9 53 9 53 5 57 C5 39.51 5 22.02 5 4 C2.525 3.01 2.525 3.01 0 2 C0 1.34 0 0.68 0 0 Z " fill="#161616" transform="translate(1087,125)"/>
<path d="M0 0 C1.32 0 2.64 0 4 0 C4.23074219 0.58007812 4.46148438 1.16015625 4.69921875 1.7578125 C7.0471624 7.38174077 9.42863738 12.73234276 14.765625 16.12109375 C17.61916887 17.24355419 20.19505404 17.42576439 23.25 17.625 C24.86648438 17.73714844 24.86648438 17.73714844 26.515625 17.8515625 C27.33546875 17.90054687 28.1553125 17.94953125 29 18 C28 21 28 21 26 22 C18.26679813 22.92314151 12.06693926 21.00949505 5 18 C4.67 18.99 4.34 19.98 4 21 C2.68 20.67 1.36 20.34 0 20 C0 13.4 0 6.8 0 0 Z " fill="#5B5B5B" transform="translate(527,417)"/>
<path d="M0 0 C0.66 0 1.32 0 2 0 C3.33871641 3.45627381 4.67005392 6.91534297 6 10.375 C6.3815625 11.35984375 6.763125 12.3446875 7.15625 13.359375 C7.5171875 14.30039062 7.878125 15.24140625 8.25 16.2109375 C8.58515625 17.08024902 8.9203125 17.94956055 9.265625 18.84521484 C10 21 10 21 10 23 C4.06 23 -1.88 23 -8 23 C-5.77150394 15.14161917 -3.01037052 7.59136913 0 0 Z " fill="#F2F2F2" transform="translate(326,390)"/>
<path d="M0 0 C0.66 0 1.32 0 2 0 C3.33871641 3.45627381 4.67005392 6.91534297 6 10.375 C6.3815625 11.35984375 6.763125 12.3446875 7.15625 13.359375 C7.5171875 14.30039062 7.878125 15.24140625 8.25 16.2109375 C8.58515625 17.08024902 8.9203125 17.94956055 9.265625 18.84521484 C10 21 10 21 10 23 C4.06 23 -1.88 23 -8 23 C-5.77150394 15.14161917 -3.01037052 7.59136913 0 0 Z " fill="#F3F3F3" transform="translate(617,390)"/>
<path d="M0 0 C0.66 0.33 1.32 0.66 2 1 C2.625 3.0625 2.625 3.0625 3 5 C1.55947266 5.83917969 1.55947266 5.83917969 0.08984375 6.6953125 C-12.36735292 13.97655554 -24.69138246 21.4709053 -37 29 C-37.66 28.01 -38.32 27.02 -39 26 C-39.66 25.67 -40.32 25.34 -41 25 C-40.21987549 24.52691406 -39.43975098 24.05382812 -38.63598633 23.56640625 C-35.67419484 21.77002817 -32.71263564 19.97326825 -29.7512207 18.17626953 C-28.48210435 17.40626543 -27.21290196 16.63640312 -25.94360352 15.86669922 C-24.7103604 15.11883479 -23.47727759 14.37070594 -22.24435425 13.62231445 C-21.01065398 12.8738106 -19.77637953 12.12625231 -18.54153442 11.37963867 C-15.42184411 9.48950936 -12.32029682 7.57672359 -9.24365234 5.6171875 C-8.64695236 5.24013672 -8.05025238 4.86308594 -7.43547058 4.47460938 C-5.79271267 3.43421191 -4.15534018 2.38532514 -2.51831055 1.3359375 C-1.68726807 0.89507812 -0.85622559 0.45421875 0 0 Z " fill="#202020" transform="translate(1291,100)"/>
<path d="M0 0 C2.45248876 2.19415015 3.65241226 4.09645203 4.82421875 7.16015625 C5.13037109 7.95357422 5.43652344 8.74699219 5.75195312 9.56445312 C6.06068359 10.38880859 6.36941406 11.21316406 6.6875 12.0625 C7.00783203 12.89072266 7.32816406 13.71894531 7.65820312 14.57226562 C10 20.70887193 10 20.70887193 10 23 C4.06 23 -1.88 23 -8 23 C-5.77150394 15.14161917 -3.01037052 7.59136913 0 0 Z " fill="#F4F4F4" transform="translate(1187,390)"/>
<path d="M0 0 C0.99 0 1.98 0 3 0 C2.67 6.27 2.34 12.54 2 19 C-13.84 19 -29.68 19 -46 19 C-45.67 17.68 -45.34 16.36 -45 15 C-45 15.99 -45 16.98 -45 18 C-37.08 17.67 -29.16 17.34 -21 17 C-21 16.34 -21 15.68 -21 15 C-20.13117188 14.96003906 -19.26234375 14.92007812 -18.3671875 14.87890625 C-11.5375358 14.413877 -11.5375358 14.413877 -5.87109375 11.00390625 C-4.37411952 8.71905084 -3.13882372 6.48085761 -2 4 C-1.33333333 2.66666667 -0.66666667 1.33333333 0 0 Z " fill="#626262" transform="translate(278,419)"/>
<path d="M0 0 C4.40132711 1.59554696 8.35749711 3.81661724 12.3828125 6.17578125 C13.07889618 6.58281784 13.77497986 6.98985443 14.49215698 7.40922546 C15.95740204 8.26873164 17.421421 9.13033104 18.88427734 9.99389648 C21.11832803 11.30857373 23.36163269 12.60641098 25.60546875 13.90429688 C27.0318542 14.74376589 28.45765586 15.58422779 29.8828125 16.42578125 C30.55160431 16.80930252 31.22039612 17.19282379 31.90945435 17.58796692 C35.76959114 19.89775357 38.05507852 21.91890493 40 26 C36.58279142 27.14465934 36.1629074 27.07789155 32.65600586 25.40112305 C31.33459462 24.61748036 30.02129435 23.82005677 28.71484375 23.01171875 C27.66859581 22.38412407 27.66859581 22.38412407 26.60121155 21.74385071 C24.37276628 20.40327298 22.15527135 19.0456477 19.9375 17.6875 C18.44013066 16.78338215 16.9420908 15.88037378 15.44335938 14.97851562 C5.1893193 8.79287953 5.1893193 8.79287953 1 6 C0.3125 2.875 0.3125 2.875 0 0 Z " fill="#1D1D1D" transform="translate(1003,184)"/>
<path d="M0 0 C0.33 0 0.66 0 1 0 C1.34901021 7.53540215 1.61476596 15.06996046 1.77718258 22.61162472 C1.85519239 26.11517879 1.96071027 29.61317386 2.1315918 33.11352539 C3.21310494 55.82739437 3.21310494 55.82739437 -0.52069092 61.17999268 C-4.49757832 64.78166072 -8.8850094 66.564112 -14 68 C-14.66 67.34 -15.32 66.68 -16 66 C-16 65.01 -16 64.02 -16 63 C-13.8828125 61.39453125 -13.8828125 61.39453125 -11.125 59.8125 C-10.22007813 59.28269531 -9.31515625 58.75289062 -8.3828125 58.20703125 C-6 57 -6 57 -4 57 C-4 38.85 -4 20.7 -4 2 C-3.67 2 -3.34 2 -3 2 C-2.67 18.83 -2.34 35.66 -2 53 C-0.34702091 51.34702091 -0.83307817 49.38963445 -0.79467773 47.11303711 C-0.77473251 46.07203354 -0.75478729 45.03102997 -0.73423767 43.95848083 C-0.71752518 42.8262056 -0.70081268 41.69393036 -0.68359375 40.52734375 C-0.66281265 39.37456436 -0.64203156 38.22178497 -0.62062073 37.03407288 C-0.55500036 33.33527843 -0.49618245 29.63641041 -0.4375 25.9375 C-0.39432665 23.43684121 -0.35071276 20.93618999 -0.30664062 18.43554688 C-0.19930632 12.29044338 -0.09756357 6.14526596 0 0 Z " fill="#2D2D2D" transform="translate(1345,127)"/>
<path d="M0 0 C2.98012473 4.47018709 2.60733142 8.75895482 2 14 C-0.1855743 18.533043 -2.51929217 20.75964609 -7 23 C-7.33 22.01 -7.66 21.02 -8 20 C-9.65 20 -11.3 20 -13 20 C-12.360625 19.05125 -11.72125 18.1025 -11.0625 17.125 C-8.75491676 13.17951676 -8.48853574 9.64787298 -8.37109375 5.13671875 C-8.24863281 4.43160156 -8.12617187 3.72648437 -8 3 C-5.22569089 1.15046059 -3.35957737 0 0 0 Z " fill="#4B4B4B" transform="translate(1289,412)"/>
<path d="M0 0 C3.25677898 0.26406316 4.61989153 0.56746278 6.8125 3.0625 C8.31947068 6.79026958 8.7014187 10.0689721 8 14 C5.96472975 17.85247583 3.86428089 20.90224752 0 23 C-3.75 23.6875 -3.75 23.6875 -7 24 C-6.34 23.29875 -5.68 22.5975 -5 21.875 C-1.46238524 16.74296732 -2.70750273 9.93119464 -3 4 C-2.34 4 -1.68 4 -1 4 C-0.67 2.68 -0.34 1.36 0 0 Z " fill="#4A4A4A" transform="translate(1280,380)"/>
<path d="M0 0 C1.98 0.99 3.96 1.98 6 3 C6.0758691 10.51132765 6.12852324 18.02255704 6.16479492 25.53417969 C6.1799107 28.09118339 6.20040366 30.64816106 6.22631836 33.20507812 C6.26257862 36.87376317 6.27969836 40.5421064 6.29296875 44.2109375 C6.30845261 45.35992523 6.32393646 46.50891296 6.33988953 47.69271851 C6.34011612 48.7536673 6.34034271 49.81461609 6.34057617 50.90771484 C6.34723801 51.84481293 6.35389984 52.78191101 6.36076355 53.74740601 C6.24171158 54.49076202 6.12265961 55.23411804 6 56 C5.01 56.66 4.02 57.32 3 58 C3 40.84 3 23.68 3 6 C2.01 5.67 1.02 5.34 0 5 C-0.33 4.01 -0.66 3.02 -1 2 C-0.67 1.34 -0.34 0.68 0 0 Z " fill="#131313" transform="translate(1339,123)"/>
<path d="M0 0 C8.58 0 17.16 0 26 0 C25.01 1.65 24.02 3.3 23 5 C22.67 4.34 22.34 3.68 22 3 C15.01199989 2.69702917 15.01199989 2.69702917 9.00390625 5.70703125 C6.58948077 8.95235627 4.76957956 12.37113869 3 16 C2.01 16 1.02 16 0 16 C0 10.72 0 5.44 0 0 Z " fill="#494949" transform="translate(451,377)"/>
<path d="M0 0 C2 1 2 1 4 4 C3.46323639 4.1882283 2.92647278 4.3764566 2.3734436 4.57038879 C-3.84420437 6.94971066 -9.73695834 9.74638248 -14 15 C-17.16288545 23.709173 -16.00972256 33.59197838 -15.625 42.6875 C-15.58288582 45.23880932 -15.54895116 47.79026755 -15.5234375 50.34179688 C-15.44347032 56.56604655 -15.26172923 62.78088139 -15 69 C-15.33 69 -15.66 69 -16 69 C-16.0154612 67.9985495 -16.0154612 67.9985495 -16.03123474 66.97686768 C-16.13933708 60.03395874 -16.25393227 53.09117861 -16.37231445 46.1484375 C-16.41565128 43.55666801 -16.45732725 40.96487021 -16.49731445 38.37304688 C-16.55504702 34.64965272 -16.6187333 30.92640096 -16.68359375 27.203125 C-16.70030624 26.04258606 -16.71701874 24.88204712 -16.73423767 23.68634033 C-16.75418289 22.60552185 -16.77412811 21.52470337 -16.79467773 20.41113281 C-16.81022202 19.46071106 -16.8257663 18.51028931 -16.84178162 17.53106689 C-16.98634656 15.21841825 -17.34999254 13.2172773 -18 11 C-15.04968544 9.13283045 -12.08856877 7.28354701 -9.125 5.4375 C-8.28324219 4.90447266 -7.44148438 4.37144531 -6.57421875 3.82226562 C-5.76855469 3.32275391 -4.96289062 2.82324219 -4.1328125 2.30859375 C-3.01737061 1.60947876 -3.01737061 1.60947876 -1.87939453 0.89624023 C-1.25919434 0.60048096 -0.63899414 0.30472168 0 0 Z " fill="#393939" transform="translate(1205,211)"/>
<path d="M0 0 C0.99 0 1.98 0 3 0 C3.61875 1.175625 3.61875 1.175625 4.25 2.375 C6.62604214 5.9390632 8.91862822 6.15292284 13 7 C13 8.32 13 9.64 13 11 C4.75 11 -3.5 11 -12 11 C-12 9.68 -12 8.36 -12 7 C-10.7625 6.5875 -9.525 6.175 -8.25 5.75 C-4.64024534 4.41942024 -2.63496455 2.83014711 0 0 Z " fill="#5C5C5C" transform="translate(828,427)"/>
<path d="M0 0 C0.33 0 0.66 0 1 0 C1.33 17.16 1.66 34.32 2 52 C2.33 51.01 2.66 50.02 3 49 C3.66 49 4.32 49 5 49 C5.63121465 54.08748222 5.63121465 54.08748222 5 57 C2.91903444 59.32939438 0.43499362 60.62694089 -2.3125 62.0625 C-3.34793945 62.66481445 -3.34793945 62.66481445 -4.40429688 63.27929688 C-6.42578125 64.41015625 -6.42578125 64.41015625 -10 66 C-10.99 65.67 -11.98 65.34 -13 65 C-12.80859375 63.203125 -12.80859375 63.203125 -12 61 C-9.78515625 59.296875 -9.78515625 59.296875 -7.0625 57.75 C-5.71865234 56.96882813 -5.71865234 56.96882813 -4.34765625 56.171875 C-2 55 -2 55 0 55 C0 36.85 0 18.7 0 0 Z " fill="#313131" transform="translate(1091,129)"/>
<path d="M0 0 C7.59 0 15.18 0 23 0 C22.67 1.32 22.34 2.64 22 4 C21.27554688 3.9071875 20.55109375 3.814375 19.8046875 3.71875 C14.00234252 3.15531038 14.00234252 3.15531038 9.00390625 5.640625 C6.5822708 8.90168022 4.77979863 12.35838438 3 16 C2.01 16 1.02 16 0 16 C0 10.72 0 5.44 0 0 Z " fill="#494949" transform="translate(742,377)"/>
<path d="M0 0 C7.26 0 14.52 0 22 0 C22.33 0.99 22.66 1.98 23 3 C21.80503906 2.9690625 21.80503906 2.9690625 20.5859375 2.9375 C14.3134872 2.92035612 14.3134872 2.92035612 8.9375 5.70703125 C6.53457002 8.94497939 4.76984037 12.38725245 3 16 C2.01 16 1.02 16 0 16 C0 10.72 0 5.44 0 0 Z " fill="#494949" transform="translate(669,377)"/>
<path d="M0 0 C2.5 0.25 2.5 0.25 4.5 2.25 C4.75 5.25 4.75 5.25 4.5 8.25 C2.5 10.25 2.5 10.25 -0.5 10.5625 C-1.49 10.459375 -2.48 10.35625 -3.5 10.25 C-5.5 7.25 -5.5 7.25 -5.25 4.6875 C-4.24098289 1.40819438 -3.4742892 0.34742892 0 0 Z " fill="#515151" transform="translate(630.5,358.75)"/>
<path d="M0 0 C3.625 0.375 3.625 0.375 7 1 C7.625 3.8125 7.625 3.8125 8 7 C7.01 8.485 7.01 8.485 6 10 C3 10.375 3 10.375 0 10 C-2.14915785 6.77626323 -2.38286803 5.73296326 -2 2 C-1.34 1.34 -0.68 0.68 0 0 Z " fill="#515151" transform="translate(608,359)"/>
<path d="M0 0 C0.33 0.99 0.66 1.98 1 3 C0.38511719 3.19335938 -0.22976563 3.38671875 -0.86328125 3.5859375 C-2.07564453 3.97652344 -2.07564453 3.97652344 -3.3125 4.375 C-4.11300781 4.63023437 -4.91351562 4.88546875 -5.73828125 5.1484375 C-8.22724528 5.98831811 -8.22724528 5.98831811 -11 8 C-12.32 6.68 -13.64 5.36 -15 4 C-9.77228537 0.95842058 -6.07328688 -0.50610724 0 0 Z M-17 5 C-16.34 5.33 -15.68 5.66 -15 6 C-15.99 6 -16.98 6 -18 6 C-17.67 5.67 -17.34 5.34 -17 5 Z " fill="#555555" transform="translate(1071,376)"/>
<path d="M0 0 C1.32 0 2.64 0 4 0 C5.59892636 3.4976514 6.39496414 6.14909966 6 10 C5 12.3125 5 12.3125 4 14 C3.34 14 2.68 14 2 14 C1.67 14.66 1.34 15.32 1 16 C0.67 10.72 0.34 5.44 0 0 Z " fill="#4F4F4F" transform="translate(527,417)"/>
<path d="M0 0 C0.99 0 1.98 0 3 0 C3 0.66 3 1.32 3 2 C3.99 2.33 4.98 2.66 6 3 C6 3.33 6 3.66 6 4 C11.94 4.33 17.88 4.66 24 5 C24 5.33 24 5.66 24 6 C16.74 6 9.48 6 2 6 C1.67 6.66 1.34 7.32 1 8 C1 7.34 1 6.68 1 6 C0.01 6.33 -0.98 6.66 -2 7 C-1.34 4.69 -0.68 2.38 0 0 Z " fill="#6F6F6F" transform="translate(314,411)"/>
<path d="M0 0 C0.66 0.33 1.32 0.66 2 1 C2.5 3.5 2.5 3.5 3 6 C3.66 6.33 4.32 6.66 5 7 C5.625 9.0625 5.625 9.0625 6 11 C3.41481845 12.01560704 2.3531775 12.14715729 -0.25 11.0625 C-2.97901554 7.84616026 -2.2707357 5.12871935 -2 1 C-1.34 0.67 -0.68 0.34 0 0 Z " fill="#191919" transform="translate(1250,177)"/>
<path d="M0 0 C-1 7.42857143 -1 7.42857143 -2 11 C-3.98 11.33 -5.96 11.66 -8 12 C-7.38385645 10.18447022 -6.75681772 8.3726347 -6.125 6.5625 C-5.77695312 5.55316406 -5.42890625 4.54382813 -5.0703125 3.50390625 C-3.80277362 0.53860544 -3.20594422 0 0 0 Z " fill="#4E4E4E" transform="translate(315,417)"/>
<path d="M0 0 C0.66 0.33 1.32 0.66 2 1 C1.34 2.98 0.68 4.96 0 7 C-2.3125 7.6875 -2.3125 7.6875 -5 8 C-6.875 6.8125 -6.875 6.8125 -8 5 C-7.6875 2.8125 -7.6875 2.8125 -7 1 C-5.5459375 1.0309375 -5.5459375 1.0309375 -4.0625 1.0625 C-1.12534105 1.35618499 -1.12534105 1.35618499 0 0 Z " fill="#272727" transform="translate(1300,207)"/>
<path d="M0 0 C-0.99 1.485 -0.99 1.485 -2 3 C-2 3.66 -2 4.32 -2 5 C-5.96 5 -9.92 5 -14 5 C-14 4.67 -14 4.34 -14 4 C-12.02 4 -10.04 4 -8 4 C-8 3.34 -8 2.68 -8 2 C-9.98 2 -11.96 2 -14 2 C-14 1.67 -14 1.34 -14 1 C-12.04310963 0.63794536 -10.08442332 0.28558579 -8.125 -0.0625 C-7.03445312 -0.25972656 -5.94390625 -0.45695312 -4.8203125 -0.66015625 C-2 -1 -2 -1 0 0 Z " fill="#5B5B5B" transform="translate(192,406)"/>
<path d="M0 0 C4.29 0 8.58 0 13 0 C13 0.99 13 1.98 13 3 C8.38 3 3.76 3 -1 3 C-0.67 2.01 -0.34 1.02 0 0 Z " fill="#484848" transform="translate(613,413)"/>
<path d="M0 0 C0.66 0.33 1.32 0.66 2 1 C1.01 1.66 0.02 2.32 -1 3 C-0.67 2.01 -0.34 1.02 0 0 Z M-3 3 C-2.34 3.33 -1.68 3.66 -1 4 C-1.33 4.33 -1.66 4.66 -2 5 C-1.01 5.99 -0.02 6.98 1 8 C-3.12168689 9.62950412 -5.70700357 10.26264601 -10 9 C-9 6 -9 6 -6.0625 4.25 C-5.051875 3.8375 -4.04125 3.425 -3 3 Z " fill="#5B5B5B" transform="translate(1276,398)"/>
<path d="M0 0 C4.62 0 9.24 0 14 0 C13.34 1.32 12.68 2.64 12 4 C8.04 3.67 4.08 3.34 0 3 C0 2.01 0 1.02 0 0 Z " fill="#484848" transform="translate(701,377)"/>
<path d="M0 0 C2.4375 0.75 2.4375 0.75 4.4375 1.75 C4.4375 2.41 4.4375 3.07 4.4375 3.75 C1.4675 4.41 -1.5025 5.07 -4.5625 5.75 C-4.8925 4.76 -5.2225 3.77 -5.5625 2.75 C-3.69692219 0.29529235 -3.16506129 -0.30878647 0 0 Z " fill="#181818" transform="translate(1297.5625,98.25)"/>
<path d="M0 0 C8.91 0 17.82 0 27 0 C26.67 1.32 26.34 2.64 26 4 C25.01 4 24.02 4 23 4 C23 3.34 23 2.68 23 2 C22.44538086 2.01047363 21.89076172 2.02094727 21.31933594 2.03173828 C18.79627041 2.07342004 16.27327747 2.09936438 13.75 2.125 C12.44095703 2.15013672 12.44095703 2.15013672 11.10546875 2.17578125 C10.26113281 2.18222656 9.41679688 2.18867188 8.546875 2.1953125 C7.77182617 2.20578613 6.99677734 2.21625977 6.19824219 2.22705078 C4 2 4 2 0 0 Z " fill="#686868" transform="translate(1075,410)"/>
<path d="M0 0 C2.97 0 5.94 0 9 0 C9.33 0.99 9.66 1.98 10 3 C6.7 3 3.4 3 0 3 C0 2.01 0 1.02 0 0 Z " fill="#505050" transform="translate(681,434)"/>
<path d="M0 0 C2.31 0 4.62 0 7 0 C7.33 1.65 7.66 3.3 8 5 C5.36 4.34 2.72 3.68 0 3 C0 2.01 0 1.02 0 0 Z " fill="#525252" transform="translate(903,377)"/>
<path d="M0 0 C3.37503669 1.1858237 5.64722731 2.27573689 8 5 C7.34 5 6.68 5 6 5 C5.01 6.485 5.01 6.485 4 8 C1 6 1 6 0.3125 2.875 C0.209375 1.92625 0.10625 0.9775 0 0 Z " fill="#232323" transform="translate(1003,184)"/>
<path d="M0 0 C1.32 0 2.64 0 4 0 C4 0.99 4 1.98 4 3 C4.66 3.33 5.32 3.66 6 4 C3.69 4.33 1.38 4.66 -1 5 C-1.33 4.34 -1.66 3.68 -2 3 C-1.34 2.01 -0.68 1.02 0 0 Z " fill="#161616" transform="translate(1045,98)"/>
<path d="M0 0 C1.32 0.66 2.64 1.32 4 2 C2.25 4 2.25 4 0 6 C-1.32 6 -2.64 6 -4 6 C-3.34 4.68 -2.68 3.36 -2 2 C-1.34 2 -0.68 2 0 2 C0 1.34 0 0.68 0 0 Z " fill="#181818" transform="translate(1198,216)"/>
<path d="M0 0 C0.66 0.99 1.32 1.98 2 3 C1.67 3.99 1.34 4.98 1 6 C-0.65 6.33 -2.3 6.66 -4 7 C-4.33 5.68 -4.66 4.36 -5 3 C-3.35 2.01 -1.7 1.02 0 0 Z " fill="#1D1D1D" transform="translate(1088,209)"/>
<path d="M0 0 C0 0.99 0 1.98 0 3 C-1.65 3.66 -3.3 4.32 -5 5 C-5.33 3.35 -5.66 1.7 -6 0 C-3.50907189 -1.24546405 -2.58919267 -0.7767578 0 0 Z " fill="#1A1A1A" transform="translate(1284,108)"/>
<path d="M0 0 C1.32 0 2.64 0 4 0 C4.33 0.99 4.66 1.98 5 3 C2.525 4.485 2.525 4.485 0 6 C-0.66 4.68 -1.32 3.36 -2 2 C-1.34 1.34 -0.68 0.68 0 0 Z " fill="#1B1B1B" transform="translate(1225,199)"/>
<path d="M0 0 C0.66 0.33 1.32 0.66 2 1 C0.6875 3.9375 0.6875 3.9375 -1 7 C-1.99 7.33 -2.98 7.66 -4 8 C-4 4 -4 4 -2 1.75 C-1.01 0.88375 -1.01 0.88375 0 0 Z " fill="#1B1B1B" transform="translate(1035,104)"/>
<path d="M0 0 C0.66 0 1.32 0 2 0 C1.25 5.75 1.25 5.75 -1 8 C-1 7.34 -1 6.68 -1 6 C-1.66 6 -2.32 6 -3 6 C-2.42655063 3.13275314 -2.1385485 2.1385485 0 0 Z " fill="#4E4E4E" transform="translate(318,405)"/>
<path d="M0 0 C0.33 0.99 0.66 1.98 1 3 C-0.4375 5.6875 -0.4375 5.6875 -2 8 C-2.66 7.01 -3.32 6.02 -4 5 C-4.66 4.67 -5.32 4.34 -6 4 C-4.02 2.68 -2.04 1.36 0 0 Z " fill="#262626" transform="translate(1256,121)"/>
<path d="M0 0 C0.99 0 1.98 0 3 0 C3 2.31 3 4.62 3 7 C2.34 6.34 1.68 5.68 1 5 C0.01 5.33 -0.98 5.66 -2 6 C-1.34 4.02 -0.68 2.04 0 0 Z " fill="#5D5D5D" transform="translate(278,419)"/>
<path d="M0 0 C1.98 0 3.96 0 6 0 C6 0.99 6 1.98 6 3 C3.69 3 1.38 3 -1 3 C-0.67 2.01 -0.34 1.02 0 0 Z " fill="#525252" transform="translate(606,434)"/>
<path d="M0 0 C0.99 0.99 1.98 1.98 3 3 C2.34 3 1.68 3 1 3 C0.67 3.99 0.34 4.98 0 6 C-1.32 5.67 -2.64 5.34 -4 5 C-3.67 4.34 -3.34 3.68 -3 3 C-2.34 3 -1.68 3 -1 3 C-0.67 2.01 -0.34 1.02 0 0 Z " fill="#141414" transform="translate(1265,288)"/>
<path d="M0 0 C1.98 0.99 3.96 1.98 6 3 C5.67 3.99 5.34 4.98 5 6 C3.35 5.67 1.7 5.34 0 5 C0 3.35 0 1.7 0 0 Z " fill="#222222" transform="translate(1138,214)"/>
<path d="M0 0 C2.475 0.99 2.475 0.99 5 2 C4.34 3.65 3.68 5.3 3 7 C1.68 6.01 0.36 5.02 -1 4 C-0.67 2.68 -0.34 1.36 0 0 Z " fill="#252525" transform="translate(1255,185)"/>
<path d="M0 0 C1.32 0.66 2.64 1.32 4 2 C2.68 3.32 1.36 4.64 0 6 C-0.99 5.01 -1.98 4.02 -3 3 C-2.01 2.01 -1.02 1.02 0 0 Z " fill="#282828" transform="translate(1308,104)"/>
<path d="M0 0 C0.66 0.33 1.32 0.66 2 1 C2 1.99 2 2.98 2 4 C0.02 4.66 -1.96 5.32 -4 6 C-2.25 1.125 -2.25 1.125 0 0 Z " fill="#131313" transform="translate(1240,303)"/>
<path d="M0 0 C1.32 0 2.64 0 4 0 C3.67 1.65 3.34 3.3 3 5 C1.68 4.67 0.36 4.34 -1 4 C-0.67 2.68 -0.34 1.36 0 0 Z " fill="#464646" transform="translate(426,377)"/>
<path d="M0 0 C0.66 0.33 1.32 0.66 2 1 C1.01 2.485 1.01 2.485 0 4 C0 4.99 0 5.98 0 7 C-0.66 7 -1.32 7 -2 7 C-3.625 5 -3.625 5 -5 3 C-2.625 1.4375 -2.625 1.4375 0 0 Z " fill="#2B2B2B" transform="translate(1286,103)"/>
<path d="M0 0 C1.98 0 3.96 0 6 0 C5.67 0.99 5.34 1.98 5 3 C3.35 3 1.7 3 0 3 C0 2.01 0 1.02 0 0 Z " fill="#545454" transform="translate(463,434)"/>
<path d="M0 0 C2 1.375 2 1.375 4 3 C4 3.66 4 4.32 4 5 C2.02 5.33 0.04 5.66 -2 6 C-1.34 4.02 -0.68 2.04 0 0 Z " fill="#5B5B5B" transform="translate(309,423)"/>
<path d="M0 0 C2.475 0.495 2.475 0.495 5 1 C4.67 2.32 4.34 3.64 4 5 C3.34 5 2.68 5 2 5 C1.34 3.35 0.68 1.7 0 0 Z " fill="#191919" transform="translate(1197,286)"/>
<path d="M0 0 C1.98 0.66 3.96 1.32 6 2 C4.68 3.32 3.36 4.64 2 6 C1.01 5.67 0.02 5.34 -1 5 C-0.67 3.35 -0.34 1.7 0 0 Z " fill="#2F2F2F" transform="translate(1042,207)"/>
<path d="M0 0 C1.32 0.66 2.64 1.32 4 2 C4 2.66 4 3.32 4 4 C3.01 4 2.02 4 1 4 C0.67 4.66 0.34 5.32 0 6 C-0.66 5.34 -1.32 4.68 -2 4 C-1.34 2.68 -0.68 1.36 0 0 Z " fill="#2B2B2B" transform="translate(1282,201)"/>
</svg>
