<?xml version="1.0" encoding="UTF-8"?>
<svg version="1.1" xmlns="http://www.w3.org/2000/svg" width="2000" height="2000">
<path d="M0 0 C660 0 1320 0 2000 0 C2000 660 2000 1320 2000 2000 C1340 2000 680 2000 0 2000 C0 1340 0 680 0 0 Z " fill="#FEFEFE" transform="translate(0,0)"/>
<path d="M0 0 C1.51013672 0.79277344 1.51013672 0.79277344 3.05078125 1.6015625 C3.62530029 1.90175293 4.19981934 2.20194336 4.79174805 2.51123047 C14.85998127 7.93014859 24.50353914 14.21538651 34.17700195 20.30126953 C38.17986712 22.71998033 42.26269629 24.97865383 46.36328125 27.2265625 C51.2375643 80.31619084 51.2375643 80.31619084 43.80712891 90.51220703 C37.76898285 96.81840795 29.1995675 99.52246189 21.03564453 101.98339844 C15.73197566 103.77879013 11.48296109 106.66400529 6.92578125 109.8515625 C0.38197709 114.2899952 0.38197709 114.2899952 -3.47143555 114.05004883 C-7.06245945 113.11580096 -9.63098916 111.71321606 -12.78515625 109.76171875 C-13.36020905 109.40951767 -13.93526184 109.05731659 -14.52774048 108.69444275 C-16.36145968 107.56831058 -18.18655765 106.42900043 -20.01171875 105.2890625 C-21.79286781 104.19137761 -23.57559073 103.09638049 -25.36035156 102.00457764 C-26.57050035 101.25295409 -27.77136447 100.48619278 -28.96289062 99.7053833 C-32.24369008 97.57528757 -35.38462106 95.87206047 -39.0390625 94.46191406 C-43.72127706 92.47986775 -47.683841 90.49280327 -50.63671875 86.2265625 C-53.3595643 78.09360204 -53.1204999 69.40747017 -52.94238281 60.92382812 C-52.88723867 58.20455281 -52.91480331 55.50764953 -53.02441406 52.79003906 C-53.89156761 31.26090666 -53.89156761 31.26090666 -48.75778198 24.89764404 C-44.05800366 20.95082262 -38.76805024 18.53025491 -33.10601807 16.2600708 C-29.74150273 14.85187597 -26.88543631 13.04967992 -23.828125 11.0625 C-22.87744141 10.47855469 -21.92675781 9.89460937 -20.94726562 9.29296875 C-19.05530093 8.12847591 -17.16475593 6.96167434 -15.27539062 5.79296875 C-14.34404297 5.22191406 -13.41269531 4.65085937 -12.453125 4.0625 C-11.64302979 3.56282715 -10.83293457 3.0631543 -9.99829102 2.54833984 C-3.57280081 -1.04802157 -3.57280081 -1.04802157 0 0 Z " fill="#FCFCFC" transform="translate(1461.63671875,884.7734375)"/>
<path d="M0 0 C3.0279576 1.05565019 5.55888601 2.44657485 8.30932617 4.09912109 C9.43016602 4.76814453 10.55100586 5.43716797 11.70581055 6.12646484 C12.88231685 6.83858217 14.05874925 7.5508216 15.23510742 8.26318359 C16.93064422 9.27717148 18.62620776 10.29112383 20.32446289 11.30055237 C21.49486047 12.00795237 22.65580362 12.73120302 23.80737305 13.46885681 C27.25699715 15.65400486 30.60159081 17.3501946 34.41674805 18.82006836 C39.60901756 21.01650097 44.21239639 23.19402681 47.54760742 27.88818359 C50.32301327 36.90061924 49.33220049 46.68943918 48.78356934 55.99365234 C48.5978703 59.47801174 48.51691143 62.96473441 48.42651367 66.45263672 C48.23466194 73.27028248 47.92843403 80.07854512 47.54760742 86.88818359 C46.53182617 87.45375977 45.51604492 88.01933594 44.46948242 88.60205078 C36.06525039 93.29604557 27.74947646 98.09614449 19.54760742 103.13818359 C18.58983398 103.72341797 17.63206055 104.30865234 16.64526367 104.91162109 C15.70553711 105.48654297 14.76581055 106.06146484 13.79760742 106.65380859 C12.90428711 107.1984375 12.0109668 107.74306641 11.09057617 108.30419922 C9.44987925 109.32616942 7.82567075 110.37533918 6.22338867 111.45654297 C5.52600586 111.92382812 4.82862305 112.39111328 4.11010742 112.87255859 C3.51327148 113.28731445 2.91643555 113.70207031 2.30151367 114.12939453 C-0.09546833 115.16639621 -1.02633719 114.83067793 -3.45239258 113.88818359 C-5.38043585 112.85743084 -7.27708146 111.76722979 -9.15161133 110.64208984 C-10.27124268 109.97387207 -11.39087402 109.3056543 -12.54443359 108.6171875 C-13.74299614 107.89514603 -14.94148107 107.17297571 -16.13989258 106.45068359 C-17.35956155 105.7201991 -18.57953365 104.99022049 -19.79980469 104.26074219 C-21.62802261 103.1677099 -23.45600067 102.07429847 -25.28279114 100.97888184 C-31.02535475 97.53656875 -36.80345185 94.15615305 -42.6015625 90.80834961 C-45.15116619 89.32149334 -47.35537343 87.98520274 -49.45239258 85.88818359 C-49.78038025 83.49960327 -49.78038025 83.49960327 -49.88574219 80.46386719 C-49.92755112 79.32863617 -49.96936005 78.19340515 -50.01243591 77.02377319 C-50.14108382 71.81494743 -50.248507 66.6064296 -50.31738281 61.39648438 C-50.35739345 58.64946604 -50.43377654 55.90723276 -50.54296875 53.16210938 C-51.391207 31.3060558 -51.391207 31.3060558 -48.36968994 25.97952271 C-45.57565198 23.07946916 -42.13053404 21.79263889 -38.36209106 20.5814209 C-34.98652529 19.35606091 -32.05496283 17.37884486 -29.01489258 15.49365234 C-27.76070474 14.75467022 -26.50418075 14.01963876 -25.24536133 13.28857422 C-24.31022705 12.74293823 -24.31022705 12.74293823 -23.35620117 12.1862793 C-22.72794434 11.81978271 -22.0996875 11.45328613 -21.45239258 11.07568359 C-19.52241782 9.94804973 -17.59268946 8.81999568 -15.66308594 7.69172668 C-13.93442067 6.68121677 -12.20514537 5.67175062 -10.47583008 4.66235352 C-7.47975022 2.95586832 -7.47975022 2.95586832 -4.86645508 1.0925293 C-2.45239258 -0.11181641 -2.45239258 -0.11181641 0 0 Z " fill="#FCFCFC" transform="translate(1521.452392578125,789.11181640625)"/>
<path d="M0 0 C3.0279576 1.05565019 5.55888601 2.44657485 8.30932617 4.09912109 C9.43016602 4.76814453 10.55100586 5.43716797 11.70581055 6.12646484 C12.88231685 6.83858217 14.05874925 7.5508216 15.23510742 8.26318359 C16.93064422 9.27717148 18.62620776 10.29112383 20.32446289 11.30055237 C21.49486047 12.00795237 22.65580362 12.73120302 23.80737305 13.46885681 C27.25699715 15.65400486 30.60159081 17.3501946 34.41674805 18.82006836 C39.60901756 21.01650097 44.21239639 23.19402681 47.54760742 27.88818359 C50.32301327 36.90061924 49.33220049 46.68943918 48.78356934 55.99365234 C48.5978703 59.47801174 48.51691143 62.96473441 48.42651367 66.45263672 C48.23466194 73.27028248 47.92843403 80.07854512 47.54760742 86.88818359 C46.83380417 87.27340683 46.12000092 87.65863007 45.38456726 88.05552673 C40.06325701 90.94025247 34.79774715 93.86647199 29.62963867 97.01708984 C29.04268723 97.37407455 28.45573578 97.73105927 27.85099792 98.09886169 C26.01925392 99.21378127 24.18967413 100.33219565 22.36010742 101.45068359 C21.12912254 102.20025415 19.89800327 102.94960406 18.66674805 103.69873047 C18.06732391 104.06404877 17.46789978 104.42936707 16.85031128 104.80575562 C15.67481448 105.52188506 14.49866094 106.23693777 13.32180786 106.95083618 C10.13952006 108.88787842 7.02854798 110.90447643 3.93432617 112.97802734 C0.54760742 114.88818359 0.54760742 114.88818359 -1.31225586 114.70825195 C-4.10198312 113.63927022 -6.52025052 112.21775451 -9.08129883 110.67724609 C-10.760625 109.67371094 -10.760625 109.67371094 -12.47387695 108.64990234 C-13.65437545 107.93792791 -14.83471432 107.22568873 -16.01489258 106.51318359 C-17.70573237 105.49848345 -19.39661848 104.48384172 -21.09135437 103.47566223 C-22.26699027 102.7672743 -23.43408863 102.04455067 -24.59284973 101.30888367 C-28.14278013 99.09271431 -31.59135708 97.40230072 -35.515625 95.93432617 C-40.90913076 93.73695915 -45.77559862 91.54687459 -49.45239258 86.88818359 C-52.48375234 78.76799855 -52.07977732 69.94287018 -51.76464844 61.40014648 C-51.63922338 57.99825961 -51.67221547 54.61917306 -51.74879742 51.21660519 C-52.11224391 31.73872329 -52.11224391 31.73872329 -47.9894104 25.77029419 C-44.36492435 22.35677721 -40.19597613 20.48659494 -35.58163452 18.74020386 C-32.27863529 17.41850235 -29.41261052 15.59296121 -26.37817383 13.73583984 C-24.17549311 12.47107479 -21.97108948 11.20930514 -19.76489258 9.95068359 C-17.53163124 8.67106447 -15.29855114 7.39112897 -13.06567383 6.11083984 C-12.10443604 5.56177979 -11.14319824 5.01271973 -10.15283203 4.44702148 C-7.4329753 2.92718622 -7.4329753 2.92718622 -4.9140625 1.12426758 C-2.45239258 -0.11181641 -2.45239258 -0.11181641 0 0 Z " fill="#FDFDFD" transform="translate(1275.452392578125,789.11181640625)"/>
<path d="M0 0 C3.50345158 1.76671423 6.84019499 3.76797883 10.1875 5.8125 C11.62452271 6.67633301 11.62452271 6.67633301 13.09057617 7.55761719 C39.51610018 23.51610018 39.51610018 23.51610018 42 26 C48.43753596 69.51238626 48.43753596 69.51238626 40.82061768 84.28778076 C35.01289581 91.94040467 25.39563575 95.06696439 16.53466797 97.80761719 C11.83618218 99.39260162 8.05250345 101.76279382 4 104.5625 C0.01208304 107.09808662 -2.27446438 108.520516 -7 108 C-9.89990234 106.58227539 -9.89990234 106.58227539 -13.0859375 104.59765625 C-13.95419662 104.0636747 -13.95419662 104.0636747 -14.83999634 103.51890564 C-16.69162143 102.37708103 -18.53336567 101.22035442 -20.375 100.0625 C-22.17342434 98.94632888 -23.97369291 97.833347 -25.77679443 96.7247467 C-26.99171362 95.96785586 -28.19767866 95.19641594 -29.39459229 94.41136169 C-32.59465074 92.33802986 -35.60987191 90.70342288 -39.20605469 89.41625977 C-43.59197746 87.6939773 -47.30241534 86.0030272 -50 82 C-52.36701221 74.16924504 -51.90151723 65.81503379 -51.62597656 57.72485352 C-51.49992083 53.81004124 -51.50278938 49.9106471 -51.5234375 45.99414062 C-51.49196828 43.50249669 -51.45315708 41.01093237 -51.40625 38.51953125 C-51.40564575 37.35380081 -51.4050415 36.18807037 -51.40441895 34.98701477 C-51.05957255 27.10076336 -51.05957255 27.10076336 -48.06924438 23.9941864 C-45.77606097 22.44474896 -43.4939642 21.19377108 -41 20 C-40.13552246 19.45883545 -39.27104492 18.9176709 -38.38037109 18.36010742 C-37.68508301 17.94607666 -36.98979492 17.5320459 -36.2734375 17.10546875 C-35.47631348 16.62875732 -34.67918945 16.1520459 -33.85791016 15.66088867 C-32.15721774 14.65167739 -30.45636334 13.64273904 -28.75537109 12.6340332 C-24.66141009 10.20251199 -20.58693897 7.75753416 -16.578125 5.1875 C-15.90604004 4.76315674 -15.23395508 4.33881348 -14.54150391 3.90161133 C-13.30069579 3.11555544 -12.06790454 2.31663796 -10.84521484 1.50268555 C-6.76897201 -1.05162579 -4.5562232 -1.54635454 0 0 Z " fill="#141414" transform="translate(1340,888)"/>
<path d="M0 0 C2.97616327 1.57578014 5.85394923 3.24519828 8.72265625 5.01025391 C9.30386734 5.36578339 9.88507843 5.72131287 10.48390198 6.08761597 C12.33786287 7.22228445 14.18867608 8.36195471 16.0390625 9.50244141 C18.45278156 10.98690942 20.86807819 12.46876133 23.28515625 13.94775391 C24.17791763 14.4941452 24.17791763 14.4941452 25.0887146 15.05157471 C31.51424623 18.96466755 38.04861653 22.68290214 44.6015625 26.37744141 C48.79318172 76.83389141 48.79318172 76.83389141 42.47021484 86.30859375 C36.9603477 91.76528255 30.31267326 94.07715642 22.98486328 96.23486328 C17.5416475 98.0730975 13.04397917 101.21405382 8.2890625 104.37744141 C6.69978383 105.39480403 5.10033959 106.39657377 3.48828125 107.37744141 C2.83045654 107.78994141 2.17263184 108.20244141 1.49487305 108.62744141 C-0.94579615 109.59426743 -1.9650334 109.30081166 -4.3984375 108.37744141 C-5.82619739 107.66887741 -7.2287962 106.9084113 -8.609375 106.11181641 C-9.4446875 105.63228516 -10.28 105.15275391 -11.140625 104.65869141 C-12.44386719 103.90072266 -12.44386719 103.90072266 -13.7734375 103.12744141 C-14.57265625 102.66853516 -15.371875 102.20962891 -16.1953125 101.73681641 C-18.04390096 100.6709636 -19.87252802 99.57015693 -21.6862793 98.44604492 C-24.67205194 96.67424225 -27.75300332 95.38697083 -30.96411133 94.07250977 C-45.7057083 87.5300056 -45.7057083 87.5300056 -48.61071777 80.40350342 C-50.15965196 73.08702925 -49.97065565 65.8065659 -49.55249023 58.37329102 C-49.33482971 54.41982011 -49.28601104 50.4906808 -49.26367188 46.53173828 C-49.20245063 44.01260246 -49.1318174 41.49367393 -49.05078125 38.97509766 C-49.02821762 37.80004166 -49.00565399 36.62498566 -48.98240662 35.4143219 C-48.47622623 27.50617302 -48.47622623 27.50617302 -45.50440979 24.39389038 C-43.20191746 22.83104099 -40.90456236 21.58183143 -38.3984375 20.37744141 C-37.32601807 19.7296875 -36.25359863 19.08193359 -35.14868164 18.41455078 C-34.17020264 17.85574219 -33.19172363 17.29693359 -32.18359375 16.72119141 C-31.08466797 16.09083984 -29.98574219 15.46048828 -28.85351562 14.81103516 C-27.73396484 14.17294922 -26.61441406 13.53486328 -25.4609375 12.87744141 C-23.22217177 11.59703813 -20.9838836 10.31579948 -18.74609375 9.03369141 C-17.67375488 8.42525391 -16.60141602 7.81681641 -15.49658203 7.18994141 C-13.47871105 6.00943123 -11.48745283 4.78180355 -9.53076172 3.50244141 C-8.66080566 2.93525391 -7.79084961 2.36806641 -6.89453125 1.78369141 C-6.14228271 1.27128906 -5.39003418 0.75888672 -4.61499023 0.23095703 C-2.3984375 -0.62255859 -2.3984375 -0.62255859 0 0 Z " fill="#141414" transform="translate(1399.3984375,791.62255859375)"/>
<path d="M0 0 C18.81 0 37.62 0 57 0 C57 2.64 57 5.28 57 8 C56.02417969 8.08636719 55.04835938 8.17273438 54.04296875 8.26171875 C52.77066406 8.40222656 51.49835938 8.54273438 50.1875 8.6875 C48.92292969 8.81511719 47.65835938 8.94273437 46.35546875 9.07421875 C42.97712402 9.67759525 42.97712402 9.67759525 41.32226562 11.8984375 C39.39128317 16.4278321 39.51976025 20.67234879 39.48828125 25.55078125 C39.47164429 26.45002319 39.45500732 27.34926514 39.43786621 28.27575684 C39.38021943 31.62110222 39.34785231 34.96684474 39.3125 38.3125 C39.209375 45.799375 39.10625 53.28625 39 61 C60.12 61 81.24 61 103 61 C102.67 45.16 102.34 29.32 102 13 C100.35 12.34 98.7 11.68 97 11 C96.21625 10.649375 95.4325 10.29875 94.625 9.9375 C91.44341697 8.80122035 88.34711199 8.39377788 85 8 C85 5.36 85 2.72 85 0 C103.48 0 121.96 0 141 0 C141 2.31 141 4.62 141 7 C140.33613281 7.12117187 139.67226563 7.24234375 138.98828125 7.3671875 C134.46575541 8.22547708 130.20061476 9.03971311 126 11 C125.01073192 16.78383609 124.83977365 22.40111355 124.82299805 28.26220703 C124.81642685 29.26956909 124.80985565 30.27693115 124.80308533 31.31481934 C124.78346475 34.62915125 124.77171988 37.94343828 124.76171875 41.2578125 C124.75764322 42.39253872 124.7535677 43.52726494 124.74936867 44.6963768 C124.72856404 50.69325322 124.71423359 56.69010709 124.70483398 62.68701172 C124.69373248 68.88226162 124.65927347 75.07715603 124.61966228 81.27227974 C124.59355722 86.03861165 124.58514798 90.80485761 124.58155251 95.57125473 C124.57667711 97.855838 124.56503617 100.14041719 124.54651451 102.42493057 C124.52223566 105.61577247 124.5230668 108.80567656 124.5300293 111.99658203 C124.51721924 112.94008514 124.50440918 113.88358826 124.49121094 114.85568237 C124.52468072 119.05797209 124.63216175 121.38982969 126.84089661 125.05368042 C129.55426831 127.49964409 131.69092061 128.07747273 135.25 128.8125 C136.32765625 129.04582031 137.4053125 129.27914062 138.515625 129.51953125 C139.33546875 129.67808594 140.1553125 129.83664062 141 130 C141 131.98 141 133.96 141 136 C122.52 136 104.04 136 85 136 C85 134.02 85 132.04 85 130 C85.73605469 129.89042969 86.47210938 129.78085937 87.23046875 129.66796875 C95.31588442 128.46134294 95.31588442 128.46134294 102 124 C102.12299166 122.31290653 102.17785258 120.62079097 102.20532227 118.92944336 C102.22550415 117.83321655 102.24568604 116.73698975 102.26647949 115.60754395 C102.28295532 114.44670288 102.29943115 113.28586182 102.31640625 112.08984375 C102.33505737 111.02930786 102.3537085 109.96877197 102.3729248 108.87609863 C102.44146496 104.89665428 102.50145846 100.91706644 102.5625 96.9375 C102.706875 88.048125 102.85125 79.15875 103 70 C81.88 70 60.76 70 39 70 C39.061875 78.476875 39.12375 86.95375 39.1875 95.6875 C39.19418701 98.35674561 39.20087402 101.02599121 39.20776367 103.77612305 C39.23421219 105.89634688 39.26248989 108.01654903 39.29296875 110.13671875 C39.28898071 111.23391235 39.28499268 112.33110596 39.28088379 113.46154785 C39.34745312 119.78887285 39.34745312 119.78887285 42.41918945 125.17895508 C46.41314817 127.99713104 49.2262984 128.29067634 54.00390625 128.71875 C56 129 56 129 57 130 C57 132.31 57 134.62 57 137 C38.19 137 19.38 137 0 137 C0 134.36 0 131.72 0 129 C0.80824219 128.98582031 1.61648438 128.97164062 2.44921875 128.95703125 C4.05216797 128.88548828 4.05216797 128.88548828 5.6875 128.8125 C6.74324219 128.77769531 7.79898437 128.74289062 8.88671875 128.70703125 C13.11991433 127.74566563 14.39055714 126.48058954 17 123 C17.72060147 119.44421468 17.63196341 115.95161494 17.56762695 112.3347168 C17.56835709 111.2610939 17.56908722 110.18747101 17.56983948 109.08131409 C17.56635931 105.53676632 17.52747522 101.99353664 17.48828125 98.44921875 C17.47895472 95.99014504 17.47183785 93.53106203 17.46684265 91.07197571 C17.44776061 84.60267443 17.39864811 78.13393528 17.34332275 71.66485596 C17.29215706 65.06245528 17.26933425 58.4599637 17.24414062 51.85742188 C17.19053164 38.90470822 17.1061656 25.95238402 17 13 C16.01 12.67 15.02 12.34 14 12 C14 11.34 14 10.68 14 10 C12.80375 9.855625 11.6075 9.71125 10.375 9.5625 C6.8994842 9.12960657 3.45049966 8.60383744 0 8 C0 5.36 0 2.72 0 0 Z " fill="#1C1C1C" transform="translate(407,802)"/>
<path d="M0 0 C2.64 0 5.28 0 8 0 C11.19198003 5.99896246 13.45633874 11.96590602 15.5 18.4375 C17.39636443 24.41667644 19.4307498 30.17763688 22.04931641 35.88061523 C23.50790883 39.13229496 24.7214741 42.46417097 25.9375 45.8125 C27.58362191 50.33816281 29.32311391 54.80465854 31.1953125 59.2421875 C34.95289544 68.19521477 38.42300945 77.26209661 41.9375 86.3125 C43.98753181 91.58721515 46.03946904 96.86114387 48.10107422 102.13134766 C49.31510629 105.23506367 50.51424539 108.34376572 51.69970703 111.45849609 C52.21756685 112.79923346 52.7356203 114.13989606 53.25390625 115.48046875 C53.69162354 116.62797607 54.12934082 117.7754834 54.58032227 118.95776367 C56.97185039 124.08258431 59.85345026 127.59827679 65 130 C67.97731561 130.80197053 70.96876361 131.43865993 74 132 C74 134.31 74 136.62 74 139 C55.19 139 36.38 139 17 139 C17 136.36 17 133.72 17 131 C17.89203125 130.86722656 18.7840625 130.73445312 19.703125 130.59765625 C21.45882812 130.33275391 21.45882812 130.33275391 23.25 130.0625 C24.41015625 129.88847656 25.5703125 129.71445312 26.765625 129.53515625 C29.23106961 129.1272264 31.59424562 128.66098697 34 128 C32.83846592 122.09667387 31.23636334 116.59090835 29 111 C28.14311918 108.7927184 27.28915833 106.5843019 26.4375 104.375 C26.02371094 103.31023437 25.60992188 102.24546875 25.18359375 101.1484375 C24.04740402 98.12609783 23.02105162 95.06315487 22 92 C6.16 91.67 -9.68 91.34 -26 91 C-26.99 94.3 -27.98 97.6 -29 101 C-29.88843655 103.50263818 -30.78365329 106.00288597 -31.6875 108.5 C-34.6466392 117.10285963 -34.6466392 117.10285963 -34 126 C-30.14481734 129.55361446 -26.40263126 130.14331272 -21.3125 130.5625 C-20.31863281 130.64628906 -19.32476563 130.73007812 -18.30078125 130.81640625 C-17.54152344 130.87699219 -16.78226563 130.93757812 -16 131 C-16 133.64 -16 136.28 -16 139 C-32.83 139 -49.66 139 -67 139 C-67 136.36 -67 133.72 -67 131 C-66.34773437 130.90203125 -65.69546875 130.8040625 -65.0234375 130.703125 C-63.71246094 130.47882813 -63.71246094 130.47882813 -62.375 130.25 C-61.08722656 130.04117188 -61.08722656 130.04117188 -59.7734375 129.828125 C-55.00315315 128.40375841 -51.87947208 126.30305456 -49.0859375 122.1640625 C-42.9735448 109.52062006 -37.85149103 96.48537679 -32.73291016 83.41601562 C-30.87028992 78.66272555 -28.98821932 73.9172198 -27.10546875 69.171875 C-25.77816169 65.82310837 -24.45149474 62.47408847 -23.125 59.125 C-22.81239227 58.33615417 -22.49978455 57.54730835 -22.17770386 56.73455811 C-18.70175339 47.95618799 -15.27146182 39.16533579 -11.99575806 30.30996704 C-10.2022727 25.47419496 -8.24598795 20.72084656 -6.234375 15.97265625 C-4.04209199 10.69313925 -2.02596537 5.34510013 0 0 Z " fill="#1B1B1B" transform="translate(970,800)"/>
<path d="M0 0 C2.64 0 5.28 0 8 0 C11.95552904 7.35605066 14.39866301 14.94928169 16.91210938 22.89257812 C18.8802334 28.98328147 21.15395007 34.75199467 23.87329102 40.54614258 C25.28266761 43.61562126 26.41489415 46.74031311 27.5 49.9375 C28.89269678 54.03103374 30.40844985 58.0137064 32.09375 61.99609375 C34.58497405 67.91828691 36.92689853 73.89284808 39.25 79.8828125 C39.63329468 80.86957474 40.01658936 81.85633698 40.41149902 82.8730011 C42.01307742 86.99797498 43.61332898 91.12344071 45.20703125 95.25146484 C46.38364677 98.29696356 47.56637475 101.34003243 48.75 104.3828125 C49.10223633 105.29974884 49.45447266 106.21668518 49.81738281 107.16140747 C54.14641771 119.8257646 54.14641771 119.8257646 63 129 C66.63008468 130.17579829 70.28314354 131.14076173 74 132 C74 134.31 74 136.62 74 139 C55.19 139 36.38 139 17 139 C17 136.69 17 134.38 17 132 C17.72445312 131.87882813 18.44890625 131.75765625 19.1953125 131.6328125 C20.16210938 131.46523438 21.12890625 131.29765625 22.125 131.125 C23.07632813 130.96257812 24.02765625 130.80015625 25.0078125 130.6328125 C28.10700044 129.97737066 31.01520457 129.05397821 34 128 C30.32323158 115.86835859 26.19295897 103.97988276 22 92 C6.16 92 -9.68 92 -26 92 C-27.485 96.33125 -28.97 100.6625 -30.5 105.125 C-30.96986328 106.47996582 -31.43972656 107.83493164 -31.92382812 109.23095703 C-32.47200195 110.85300049 -32.47200195 110.85300049 -33.03125 112.5078125 C-33.40830078 113.60754395 -33.78535156 114.70727539 -34.17382812 115.84033203 C-35.02261924 119.08650657 -35.32602116 121.6630425 -35 125 C-30.7934099 129.2065901 -27.08303205 130.08727971 -21.3125 130.5625 C-20.31863281 130.64628906 -19.32476563 130.73007812 -18.30078125 130.81640625 C-17.54152344 130.87699219 -16.78226563 130.93757812 -16 131 C-16 133.31 -16 135.62 -16 138 C-32.83 138 -49.66 138 -67 138 C-67 136.02 -67 134.04 -67 132 C-66.34773437 131.82984375 -65.69546875 131.6596875 -65.0234375 131.484375 C-64.14945313 131.24203125 -63.27546875 130.9996875 -62.375 130.75 C-61.51648438 130.51796875 -60.65796875 130.2859375 -59.7734375 130.046875 C-53.2068193 127.56820785 -49.93806391 124.10267101 -47.05859375 117.83203125 C-46.72194199 117.12818802 -46.38529022 116.42434479 -46.03843689 115.69917297 C-42.34340389 107.84461614 -39.18176523 99.78334347 -36.0625 91.6875 C-35.42433443 90.04866673 -34.78531371 88.41016624 -34.14550781 86.77197266 C-32.79422712 83.31081941 -31.44623691 79.84840974 -30.10009766 76.38525391 C-26.88210166 68.11915504 -23.60848019 59.87501236 -20.34075928 51.628479 C-18.55440874 47.11907094 -16.77112321 42.60845243 -14.98828125 38.09765625 C-14.6483313 37.23754944 -14.30838135 36.37744263 -13.95812988 35.49127197 C-9.28669798 23.66820911 -4.639111 11.83577874 0 0 Z " fill="#1A1A1A" transform="translate(646,800)"/>
<path d="M0 0 C1.04285156 0.35964844 2.08570313 0.71929688 3.16015625 1.08984375 C5.78920305 2.02380348 8.39890253 2.99130669 11 4 C11.474375 3.175 11.94875 2.35 12.4375 1.5 C15 -1 15 -1 24 -1 C24 14.84 24 30.68 24 47 C21.36 47 18.72 47 16 47 C14.19003784 41.34244531 12.64270983 35.9129304 12 30 C11.34 30 10.68 30 10 30 C9.5875 28.96875 9.175 27.9375 8.75 26.875 C5.65991709 19.76494813 1.07166529 13.53583264 -6 10 C-6 9.34 -6 8.68 -6 8 C-6.7425 7.855625 -7.485 7.71125 -8.25 7.5625 C-11 7 -11 7 -12.6953125 6.4765625 C-23.10091243 4.32489607 -36.58245483 5.00309292 -45.6875 10.625 C-54.75812315 17.19116791 -59.70736618 25.41601007 -63.125 35.875 C-63.38925781 36.65230469 -63.65351562 37.42960938 -63.92578125 38.23046875 C-64.30669922 39.38095703 -64.30669922 39.38095703 -64.6953125 40.5546875 C-64.92234863 41.24030762 -65.14938477 41.92592773 -65.38330078 42.63232422 C-70.50126348 62.28157295 -69.21847352 88.70861349 -59.09228516 106.56591797 C-57.51919301 109.13850916 -55.78743213 111.57293012 -54 114 C-53.50628906 114.70511719 -53.01257813 115.41023437 -52.50390625 116.13671875 C-47.51912983 122.64658258 -39.87160118 126.97903792 -32 129 C-28.55860725 129.32776909 -25.14276609 129.37010932 -21.6875 129.375 C-20.78837891 129.39949219 -19.88925781 129.42398438 -18.96289062 129.44921875 C-12.4084492 129.4776545 -7.75314573 128.04900608 -2 125 C-0.00092823 123.9981457 1.99889456 122.99778605 4 122 C4.07426356 117.37357074 4.12865492 112.74748991 4.16479492 108.12060547 C4.17986364 106.54730178 4.20032245 104.97403998 4.22631836 103.40087891 C4.26278738 101.13693904 4.27974508 98.87355543 4.29296875 96.609375 C4.30845261 95.90818542 4.32393646 95.20699585 4.33988953 94.48455811 C4.34094977 91.39458162 4.16568321 89.29745149 2.64868164 86.57397461 C0.32464475 84.35524725 -1.59241568 84.21721576 -4.75 83.8125 C-5.8121875 83.66683594 -6.874375 83.52117187 -7.96875 83.37109375 C-8.9690625 83.24863281 -9.969375 83.12617187 -11 83 C-12.41708375 82.79452286 -13.83385369 82.58684156 -15.25 82.375 C-16.61125 82.189375 -16.61125 82.189375 -18 82 C-18 79.36 -18 76.72 -18 74 C1.8 74 21.6 74 42 74 C42 76.31 42 78.62 42 81 C41.26394531 81.09796875 40.52789063 81.1959375 39.76953125 81.296875 C32.10652313 82.4307831 32.10652313 82.4307831 26 87 C24.36342246 90.27315509 24.7569193 93.90622231 24.68359375 97.5078125 C24.6524221 98.76874222 24.6524221 98.76874222 24.62062073 100.05514526 C24.55514561 102.74501235 24.4962498 105.43497843 24.4375 108.125 C24.39431284 109.94662489 24.35069848 111.76823971 24.30664062 113.58984375 C24.19946632 118.05979394 24.09819315 122.52984386 24 127 C23.01507568 127.38744385 23.01507568 127.38744385 22.01025391 127.78271484 C17.39655777 129.61039943 12.86976782 131.52019936 8.375 133.625 C-8.30358107 140.5038564 -34.59080785 141.13608965 -51.40625 134.6953125 C-68.68051907 126.8467859 -81.09339103 112.56868657 -88 95 C-95.35442638 74.37313226 -93.25072694 51.59608747 -84 32 C-76.48300576 17.36973756 -63.49011922 4.9854302 -47.77734375 -0.1875 C-32.81976746 -4.56327478 -14.80702409 -5.25836368 0 0 Z " fill="#1A1A1A" transform="translate(839,803)"/>
<path d="M0 0 C4.73222455 -0.07445407 9.46410411 -0.1287447 14.19677734 -0.16479492 C15.80491072 -0.17983176 17.41300344 -0.20026672 19.02099609 -0.22631836 C21.33962064 -0.26292822 23.65770049 -0.27977722 25.9765625 -0.29296875 C27.04567368 -0.31619453 27.04567368 -0.31619453 28.13638306 -0.33988953 C33.99963119 -0.34184258 37.90293002 1.18631785 42.3125 5 C45.4512234 8.71996847 45.32383941 12.30432858 45 17 C42.67805289 22.25493293 38.66602812 24.88931459 34 28 C35.01320313 28.45439453 35.01320313 28.45439453 36.046875 28.91796875 C45.86078924 33.52710477 45.86078924 33.52710477 48 38 C48.76640759 43.32408678 48.70097826 47.57208132 46.3125 52.4375 C42.92149788 56.19509694 40.07859454 59.13296154 35 60 C32.3083968 60.08332859 29.6439167 60.11629936 26.953125 60.09765625 C26.18192322 60.0962413 25.41072144 60.09482635 24.6161499 60.09336853 C22.16072662 60.08778534 19.70539558 60.07523595 17.25 60.0625 C15.58203257 60.05748283 13.91406371 60.0529203 12.24609375 60.04882812 C8.16402713 60.03782141 4.08202919 60.02056836 0 60 C0 59.01 0 58.02 0 57 C2.64 56.34 5.28 55.68 8 55 C7.67 38.83 7.34 22.66 7 6 C4.69 5.01 2.38 4.02 0 3 C0 2.01 0 1.02 0 0 Z " fill="#545454" transform="translate(1467,1063)"/>
<path d="M0 0 C233.31 0 466.62 0 707 0 C707 0.99 707 1.98 707 3 C473.69 3 240.38 3 0 3 C0 2.01 0 1.02 0 0 Z " fill="#323232" transform="translate(398,983)"/>
<path d="M0 0 C3.0279576 1.05565019 5.55888601 2.44657485 8.30932617 4.09912109 C9.43016602 4.76814453 10.55100586 5.43716797 11.70581055 6.12646484 C12.88231685 6.83858217 14.05874925 7.5508216 15.23510742 8.26318359 C16.93064422 9.27717148 18.62620776 10.29112383 20.32446289 11.30055237 C21.49486047 12.00795237 22.65580362 12.73120302 23.80737305 13.46885681 C27.25699715 15.65400486 30.60159081 17.3501946 34.41674805 18.82006836 C39.60901756 21.01650097 44.21239639 23.19402681 47.54760742 27.88818359 C50.32301327 36.90061924 49.33220049 46.68943918 48.78356934 55.99365234 C48.5978703 59.47801174 48.51691143 62.96473441 48.42651367 66.45263672 C48.23466194 73.27028248 47.92843403 80.07854512 47.54760742 86.88818359 C46.83380417 87.27340683 46.12000092 87.65863007 45.38456726 88.05552673 C40.06325701 90.94025247 34.79774715 93.86647199 29.62963867 97.01708984 C29.04268723 97.37407455 28.45573578 97.73105927 27.85099792 98.09886169 C26.01925392 99.21378127 24.18967413 100.33219565 22.36010742 101.45068359 C21.12912254 102.20025415 19.89800327 102.94960406 18.66674805 103.69873047 C18.06732391 104.06404877 17.46789978 104.42936707 16.85031128 104.80575562 C15.67481448 105.52188506 14.49866094 106.23693777 13.32180786 106.95083618 C10.13952006 108.88787842 7.02854798 110.90447643 3.93432617 112.97802734 C0.54760742 114.88818359 0.54760742 114.88818359 -1.31225586 114.70825195 C-4.10198312 113.63927022 -6.52025052 112.21775451 -9.08129883 110.67724609 C-10.760625 109.67371094 -10.760625 109.67371094 -12.47387695 108.64990234 C-13.65437545 107.93792791 -14.83471432 107.22568873 -16.01489258 106.51318359 C-17.70573237 105.49848345 -19.39661848 104.48384172 -21.09135437 103.47566223 C-22.26699027 102.7672743 -23.43408863 102.04455067 -24.59284973 101.30888367 C-28.14278013 99.09271431 -31.59135708 97.40230072 -35.515625 95.93432617 C-40.90913076 93.73695915 -45.77559862 91.54687459 -49.45239258 86.88818359 C-52.48375234 78.76799855 -52.07977732 69.94287018 -51.76464844 61.40014648 C-51.63922338 57.99825961 -51.67221547 54.61917306 -51.74879742 51.21660519 C-52.11224391 31.73872329 -52.11224391 31.73872329 -47.9894104 25.77029419 C-44.36492435 22.35677721 -40.19597613 20.48659494 -35.58163452 18.74020386 C-32.27863529 17.41850235 -29.41261052 15.59296121 -26.37817383 13.73583984 C-24.17549311 12.47107479 -21.97108948 11.20930514 -19.76489258 9.95068359 C-17.53163124 8.67106447 -15.29855114 7.39112897 -13.06567383 6.11083984 C-12.10443604 5.56177979 -11.14319824 5.01271973 -10.15283203 4.44702148 C-7.4329753 2.92718622 -7.4329753 2.92718622 -4.9140625 1.12426758 C-2.45239258 -0.11181641 -2.45239258 -0.11181641 0 0 Z M-8.12426758 8.07177734 C-8.68374084 8.405569 -9.24321411 8.73936066 -9.81964111 9.08326721 C-11.61764163 10.15795298 -13.41003263 11.24162218 -15.20239258 12.32568359 C-16.94359744 13.36948215 -18.68583147 14.41143538 -20.43041992 15.4495697 C-21.61155785 16.16221955 -22.7844175 16.88875461 -23.94897461 17.62818909 C-27.11038703 19.61407803 -30.12218022 21.1983265 -33.63598633 22.47583008 C-37.99358744 24.21639367 -41.7272549 25.93484413 -44.45239258 29.88818359 C-46.80685763 37.43231274 -46.35463646 45.49814679 -46.07836914 53.30883789 C-45.95228276 57.07896739 -45.95518239 60.8330905 -45.97583008 64.60498047 C-45.94436108 67.00548265 -45.90554997 69.40590221 -45.85864258 71.80615234 C-45.85803833 72.92813522 -45.85743408 74.0501181 -45.85681152 75.20610046 C-45.65185858 81.08954841 -45.65185858 81.08954841 -42.55088806 85.85574341 C-40.24963477 87.41655482 -37.95383809 88.67900394 -35.45239258 89.88818359 C-34.47085205 90.47535156 -33.48931152 91.06251953 -32.47802734 91.66748047 C-31.62523193 92.1425 -30.77243652 92.61751953 -29.89379883 93.10693359 C-28.4484375 93.91710937 -28.4484375 93.91710937 -26.97387695 94.74365234 C-25.99741211 95.28634766 -25.02094727 95.82904297 -24.01489258 96.38818359 C-22.05711407 97.48059546 -20.10007648 98.57433628 -18.14379883 99.66943359 C-17.1939209 100.19666016 -16.24404297 100.72388672 -15.26538086 101.26708984 C-13.38543536 102.35048145 -11.53372569 103.48435893 -9.71362305 104.66552734 C-4.86362252 107.91770056 -4.86362252 107.91770056 0.72729492 109.03271484 C4.30959191 107.5789572 7.46618272 105.70597109 10.67260742 103.57568359 C12.07369443 102.6713897 13.47610589 101.76914553 14.87963867 100.86865234 C15.62552246 100.38831543 16.37140625 99.90797852 17.13989258 99.41308594 C21.49585417 96.65428082 25.93068598 94.0268085 30.36010742 91.38818359 C32.05443718 90.37830251 33.74846909 89.36792146 35.44213867 88.35693359 C36.16248291 87.92832031 36.88282715 87.49970703 37.625 87.05810547 C39.2922363 86.04357895 40.92373578 84.97076469 42.54760742 83.88818359 C42.98609925 81.50768882 42.98609925 81.50768882 42.88818359 78.70410156 C42.887957 77.62313202 42.88773041 76.54216248 42.88749695 75.42843628 C42.87201309 74.25757477 42.85652924 73.08671326 42.84057617 71.88037109 C42.83633133 70.68461456 42.83208649 69.48885803 42.82771301 68.25686646 C42.81087644 64.42541288 42.77321426 60.59447906 42.73510742 56.76318359 C42.72006706 54.17074326 42.70637754 51.5782947 42.6940918 48.98583984 C42.6609566 42.61977611 42.61070773 36.25401697 42.54760742 29.88818359 C41.5223999 29.31825684 40.49719238 28.74833008 39.44091797 28.16113281 C31.29922929 23.61879056 23.25543353 18.97561587 15.36010742 14.01318359 C12.79406425 12.4105713 10.22771972 10.80847253 7.65942383 9.20947266 C5.97234616 8.15392765 4.29532773 7.08231068 2.62182617 6.00537109 C-1.73751198 3.65740365 -4.23843725 5.73628896 -8.12426758 8.07177734 Z " fill="#2E2E2E" transform="translate(1275.452392578125,789.11181640625)"/>
<path d="M0 0 C1.51013672 0.79277344 1.51013672 0.79277344 3.05078125 1.6015625 C3.62530029 1.90175293 4.19981934 2.20194336 4.79174805 2.51123047 C14.85998127 7.93014859 24.50353914 14.21538651 34.17700195 20.30126953 C38.17986712 22.71998033 42.26269629 24.97865383 46.36328125 27.2265625 C51.2375643 80.31619084 51.2375643 80.31619084 43.80712891 90.51220703 C37.76898285 96.81840795 29.1995675 99.52246189 21.03564453 101.98339844 C15.73197566 103.77879013 11.48296109 106.66400529 6.92578125 109.8515625 C0.38197709 114.2899952 0.38197709 114.2899952 -3.47143555 114.05004883 C-7.06245945 113.11580096 -9.63098916 111.71321606 -12.78515625 109.76171875 C-13.36020905 109.40951767 -13.93526184 109.05731659 -14.52774048 108.69444275 C-16.36145968 107.56831058 -18.18655765 106.42900043 -20.01171875 105.2890625 C-21.79286781 104.19137761 -23.57559073 103.09638049 -25.36035156 102.00457764 C-26.57050035 101.25295409 -27.77136447 100.48619278 -28.96289062 99.7053833 C-32.24369008 97.57528757 -35.38462106 95.87206047 -39.0390625 94.46191406 C-43.72127706 92.47986775 -47.683841 90.49280327 -50.63671875 86.2265625 C-53.3595643 78.09360204 -53.1204999 69.40747017 -52.94238281 60.92382812 C-52.88723867 58.20455281 -52.91480331 55.50764953 -53.02441406 52.79003906 C-53.89156761 31.26090666 -53.89156761 31.26090666 -48.75778198 24.89764404 C-44.05800366 20.95082262 -38.76805024 18.53025491 -33.10601807 16.2600708 C-29.74150273 14.85187597 -26.88543631 13.04967992 -23.828125 11.0625 C-22.87744141 10.47855469 -21.92675781 9.89460937 -20.94726562 9.29296875 C-19.05530093 8.12847591 -17.16475593 6.96167434 -15.27539062 5.79296875 C-14.34404297 5.22191406 -13.41269531 4.65085937 -12.453125 4.0625 C-11.64302979 3.56282715 -10.83293457 3.0631543 -9.99829102 2.54833984 C-3.57280081 -1.04802157 -3.57280081 -1.04802157 0 0 Z M-10.10546875 7.91796875 C-10.74101685 8.30089584 -11.37656494 8.68382294 -12.03137207 9.07835388 C-14.07027427 10.30911773 -16.10341145 11.54908232 -18.13671875 12.7890625 C-19.47491241 13.59758149 -20.81345074 14.40553029 -22.15234375 15.21289062 C-34.5670454 21.89501218 -34.5670454 21.89501218 -45.63671875 30.2265625 C-46.59178812 37.64093824 -46.68036105 45.19516098 -46.9206543 52.65917969 C-47.02224829 55.18465458 -47.16520435 57.70883625 -47.35131836 60.22949219 C-48.31074747 72.43640706 -48.31074747 72.43640706 -45.63671875 84.2265625 C-40.50420987 90.1329582 -33.35255746 93.13103727 -26.26065063 96.09472656 C-22.99944085 97.50145303 -20.21448897 99.20119263 -17.25390625 101.15625 C-16.44050781 101.66027344 -15.62710937 102.16429687 -14.7890625 102.68359375 C-13.19560711 103.67574522 -11.60747498 104.67647416 -10.0234375 105.68359375 C-9.23324219 106.16957031 -8.44304687 106.65554688 -7.62890625 107.15625 C-6.9519873 107.58147949 -6.27506836 108.00670898 -5.57763672 108.44482422 C-3.09268169 109.44568284 -2.11552526 109.18553422 0.36328125 108.2265625 C1.90134865 107.43600588 3.41145907 106.58993909 4.8984375 105.70703125 C5.79240234 105.17787109 6.68636719 104.64871094 7.60742188 104.10351562 C8.53748047 103.54599609 9.46753906 102.98847656 10.42578125 102.4140625 C11.29783203 101.89908203 12.16988281 101.38410156 13.06835938 100.85351562 C14.99957326 99.7046001 16.9113438 98.52264162 18.80712891 97.31616211 C21.53341316 95.62941111 24.32964982 94.32804925 27.25927734 93.02954102 C36.58159694 88.60547161 36.58159694 88.60547161 42.49636841 80.52310181 C44.10305704 73.84900349 44.15732466 67.22336026 43.95019531 60.39135742 C43.86316437 56.7842182 43.98977422 53.22737915 44.13671875 49.62304688 C44.39375895 37.99217523 44.39375895 37.99217523 39.36016846 27.92660522 C34.35271477 23.82554914 28.77284235 21.03722569 22.89343262 18.39578247 C19.64423306 16.89427981 16.80310032 15.09426261 13.82421875 13.11328125 C12.52484375 12.29633789 12.52484375 12.29633789 11.19921875 11.46289062 C9.48533157 10.38422989 7.77462471 9.30050633 6.06640625 8.21289062 C4.80183594 7.42108398 4.80183594 7.42108398 3.51171875 6.61328125 C2.78130371 6.15139404 2.05088867 5.68950684 1.29833984 5.21362305 C-3.20835164 2.91478963 -6.26781784 5.56451001 -10.10546875 7.91796875 Z " fill="#2A2A2A" transform="translate(1461.63671875,884.7734375)"/>
<path d="M0 0 C3.0279576 1.05565019 5.55888601 2.44657485 8.30932617 4.09912109 C9.43016602 4.76814453 10.55100586 5.43716797 11.70581055 6.12646484 C12.88231685 6.83858217 14.05874925 7.5508216 15.23510742 8.26318359 C16.93064422 9.27717148 18.62620776 10.29112383 20.32446289 11.30055237 C21.49486047 12.00795237 22.65580362 12.73120302 23.80737305 13.46885681 C27.25699715 15.65400486 30.60159081 17.3501946 34.41674805 18.82006836 C39.60901756 21.01650097 44.21239639 23.19402681 47.54760742 27.88818359 C50.32301327 36.90061924 49.33220049 46.68943918 48.78356934 55.99365234 C48.5978703 59.47801174 48.51691143 62.96473441 48.42651367 66.45263672 C48.23466194 73.27028248 47.92843403 80.07854512 47.54760742 86.88818359 C46.53182617 87.45375977 45.51604492 88.01933594 44.46948242 88.60205078 C36.06525039 93.29604557 27.74947646 98.09614449 19.54760742 103.13818359 C18.58983398 103.72341797 17.63206055 104.30865234 16.64526367 104.91162109 C15.70553711 105.48654297 14.76581055 106.06146484 13.79760742 106.65380859 C12.90428711 107.1984375 12.0109668 107.74306641 11.09057617 108.30419922 C9.44987925 109.32616942 7.82567075 110.37533918 6.22338867 111.45654297 C5.52600586 111.92382812 4.82862305 112.39111328 4.11010742 112.87255859 C3.51327148 113.28731445 2.91643555 113.70207031 2.30151367 114.12939453 C-0.09546833 115.16639621 -1.02633719 114.83067793 -3.45239258 113.88818359 C-5.38043585 112.85743084 -7.27708146 111.76722979 -9.15161133 110.64208984 C-10.27124268 109.97387207 -11.39087402 109.3056543 -12.54443359 108.6171875 C-13.74299614 107.89514603 -14.94148107 107.17297571 -16.13989258 106.45068359 C-17.35956155 105.7201991 -18.57953365 104.99022049 -19.79980469 104.26074219 C-21.62802261 103.1677099 -23.45600067 102.07429847 -25.28279114 100.97888184 C-31.02535475 97.53656875 -36.80345185 94.15615305 -42.6015625 90.80834961 C-45.15116619 89.32149334 -47.35537343 87.98520274 -49.45239258 85.88818359 C-49.78038025 83.49960327 -49.78038025 83.49960327 -49.88574219 80.46386719 C-49.92755112 79.32863617 -49.96936005 78.19340515 -50.01243591 77.02377319 C-50.14108382 71.81494743 -50.248507 66.6064296 -50.31738281 61.39648438 C-50.35739345 58.64946604 -50.43377654 55.90723276 -50.54296875 53.16210938 C-51.391207 31.3060558 -51.391207 31.3060558 -48.36968994 25.97952271 C-45.57565198 23.07946916 -42.13053404 21.79263889 -38.36209106 20.5814209 C-34.98652529 19.35606091 -32.05496283 17.37884486 -29.01489258 15.49365234 C-27.76070474 14.75467022 -26.50418075 14.01963876 -25.24536133 13.28857422 C-24.31022705 12.74293823 -24.31022705 12.74293823 -23.35620117 12.1862793 C-22.72794434 11.81978271 -22.0996875 11.45328613 -21.45239258 11.07568359 C-19.52241782 9.94804973 -17.59268946 8.81999568 -15.66308594 7.69172668 C-13.93442067 6.68121677 -12.20514537 5.67175062 -10.47583008 4.66235352 C-7.47975022 2.95586832 -7.47975022 2.95586832 -4.86645508 1.0925293 C-2.45239258 -0.11181641 -2.45239258 -0.11181641 0 0 Z M-6.85473633 7.31005859 C-7.74741211 7.84244141 -8.64008789 8.37482422 -9.55981445 8.92333984 C-10.49374023 9.48923828 -11.42766602 10.05513672 -12.38989258 10.63818359 C-13.25807617 11.15767578 -14.12625977 11.67716797 -15.02075195 12.21240234 C-16.96264961 13.37562504 -18.88630592 14.56959325 -20.79541016 15.78588867 C-23.63014316 17.51746255 -26.53304758 18.7868747 -29.59960938 20.05883789 C-39.41797232 24.35735036 -39.41797232 24.35735036 -45.56802368 32.67523193 C-47.03811336 39.583783 -46.91225245 46.4557834 -46.56542969 53.48022461 C-46.38918597 57.21566004 -46.38076518 60.92449654 -46.39575195 64.66357422 C-46.35020907 67.04724505 -46.29519842 69.43075786 -46.22973633 71.81396484 C-46.22376938 72.92137527 -46.21780243 74.02878571 -46.21165466 75.16975403 C-45.92322173 79.88558125 -45.66102035 82.7701547 -42.09945679 86.06474304 C-39.28621274 87.87562628 -36.45341902 89.41325431 -33.45239258 90.88818359 C-32.34992188 91.55358154 -31.24745117 92.21897949 -30.11157227 92.90454102 C-29.20826172 93.42894775 -28.30495117 93.95335449 -27.37426758 94.49365234 C-25.8505957 95.38020508 -25.8505957 95.38020508 -24.29614258 96.28466797 C-23.27520508 96.87570312 -22.25426758 97.46673828 -21.20239258 98.07568359 C-20.16598633 98.67832031 -19.12958008 99.28095703 -18.06176758 99.90185547 C-16.07096615 101.05850094 -14.07698256 102.20969261 -12.0793457 103.35449219 C-10.49028374 104.28223264 -8.91576278 105.23648908 -7.37231445 106.23828125 C-4.59087855 108.01751481 -2.78808569 108.88643519 0.54760742 108.90380859 C4.25303214 107.64936793 7.31682005 105.79107263 10.54760742 103.63818359 C11.9442817 102.73570938 13.34283364 101.8361366 14.74291992 100.93896484 C15.50121094 100.45250488 16.25950195 99.96604492 17.04077148 99.46484375 C21.77570442 96.4868347 26.60210945 93.66228863 31.42260742 90.82568359 C32.39198242 90.25366211 33.36135742 89.68164062 34.36010742 89.09228516 C41.24310817 85.04043322 41.24310817 85.04043322 43.54760742 83.88818359 C43.54760742 66.06818359 43.54760742 48.24818359 43.54760742 29.88818359 C39.58760742 27.90818359 35.62760742 25.92818359 31.54760742 23.88818359 C28.9011852 22.31928672 26.31214591 20.74554674 23.73510742 19.07568359 C22.38154818 18.21665282 21.02736454 17.35860523 19.67260742 16.50146484 C18.99584961 16.07172363 18.3190918 15.64198242 17.62182617 15.19921875 C14.17836738 13.02273879 10.71359968 10.88313587 7.23510742 8.76318359 C6.60693115 8.37283936 5.97875488 7.98249512 5.33154297 7.58032227 C0.29622048 4.52611027 -1.85904292 4.30592304 -6.85473633 7.31005859 Z " fill="#292929" transform="translate(1521.452392578125,789.11181640625)"/>
<path d="M0 0 C4.71391399 -0.074557 9.42747929 -0.12879273 14.1418457 -0.16479492 C15.74314356 -0.17981466 17.34440075 -0.20023663 18.94555664 -0.22631836 C21.25677571 -0.26300438 23.56744756 -0.27979435 25.87890625 -0.29296875 C26.58648575 -0.30845261 27.29406525 -0.32393646 28.02308655 -0.33988953 C33.63166293 -0.34175796 38.44681832 0.75022332 42.7421875 4.53515625 C46.17368233 9.1617579 47.48538029 11.7640799 47.40234375 17.484375 C46.6526633 22.17169741 44.23068961 25.60607554 41 29 C35.59244384 32.69669094 30.33027538 34.13258361 23.8125 34.0625 C22.18248047 34.04896484 22.18248047 34.04896484 20.51953125 34.03515625 C19.68808594 34.02355469 18.85664063 34.01195312 18 34 C18.13818532 37.47951523 18.28682601 40.95850495 18.4375 44.4375 C18.47681641 45.43072266 18.51613281 46.42394531 18.55664062 47.44726562 C18.59853516 48.39150391 18.64042969 49.33574219 18.68359375 50.30859375 C18.72025146 51.18314209 18.75690918 52.05769043 18.79467773 52.95874023 C18.78181066 54.9927402 18.78181066 54.9927402 20 56 C22.32817964 56.36760731 24.6618385 56.70241581 27 57 C27 57.99 27 58.98 27 60 C18.42 60 9.84 60 1 60 C1 59.01 1 58.02 1 57 C1.969375 56.690625 2.93875 56.38125 3.9375 56.0625 C6.84065792 55.30476658 6.84065792 55.30476658 8 54 C8.10859534 52.54292995 8.14902117 51.08068995 8.16113281 49.61962891 C8.17074036 48.68841217 8.1803479 47.75719543 8.19024658 46.79776001 C8.19449646 45.78426483 8.19874634 44.77076965 8.203125 43.7265625 C8.20882507 42.69187836 8.21452515 41.65719421 8.22039795 40.59115601 C8.22986433 38.39704415 8.2363884 36.20291797 8.24023438 34.00878906 C8.24993872 30.64623273 8.28094657 27.28428767 8.3125 23.921875 C8.31902976 21.79427448 8.32428034 19.66666957 8.328125 17.5390625 C8.3466452 16.02489243 8.3466452 16.02489243 8.36553955 14.48013306 C8.36253845 13.542612 8.35953735 12.60509094 8.35644531 11.63916016 C8.36191376 10.40125229 8.36191376 10.40125229 8.36749268 9.13833618 C7.91053536 6.47943049 7.12436027 5.61747781 5 4 C2.39388923 3.27802838 2.39388923 3.27802838 0 3 C0 2.01 0 1.02 0 0 Z " fill="#5C5C5C" transform="translate(401,1063)"/>
<path d="M0 0 C5.99583667 -0.82295797 12.0719748 -1.57699819 18 0 C22.01276308 3.35466994 24.15900283 7.23643211 26.67626953 11.765625 C29.1886895 16.00643422 32.22870311 19.87689589 35.1875 23.8125 C36.32721796 25.36038629 37.46655026 26.90855662 38.60546875 28.45703125 C41.52891222 32.41752151 44.58781186 36.25443641 47.70825195 40.0612793 C49 42 49 42 49 45 C49.66 45 50.32 45 51 45 C50.67 32.46 50.34 19.92 50 7 C47.03 6.01 44.06 5.02 41 4 C40.505 2.02 40.505 2.02 40 0 C48.25 0 56.5 0 65 0 C65 0.99 65 1.98 65 3 C64.43410156 3.20496094 63.86820313 3.40992188 63.28515625 3.62109375 C62.18494141 4.02521484 62.18494141 4.02521484 61.0625 4.4375 C60.33160156 4.70433594 59.60070313 4.97117187 58.84765625 5.24609375 C57.01694322 5.85386948 57.01694322 5.85386948 56 7 C55.87700834 8.68709347 55.82214742 10.37920903 55.79467773 12.07055664 C55.77473251 13.15160172 55.75478729 14.23264679 55.73423767 15.34645081 C55.70916893 17.110485 55.70916893 17.110485 55.68359375 18.91015625 C55.66281265 20.10732773 55.64203156 21.30449921 55.62062073 22.53794861 C55.55499721 26.37940487 55.49618097 30.22093201 55.4375 34.0625 C55.39432695 36.65951267 55.35071307 39.25651806 55.30664062 41.85351562 C55.19930284 48.23560117 55.09756069 54.61775793 55 61 C53.35 61 51.7 61 50 61 C49.4225 59.824375 48.845 58.64875 48.25 57.4375 C45.30085 52.10730822 41.57021889 47.57278495 37.72875977 42.8762207 C33.38656005 37.54827456 29.3787709 32.05122108 25.44921875 26.4140625 C22.4525869 22.15985757 19.21787794 18.08774561 16 14 C15.97526018 19.19612278 15.95712108 24.39221118 15.94506836 29.58837891 C15.94004313 31.35563759 15.93322191 33.12289212 15.92456055 34.89013672 C15.91241572 37.43197657 15.90675355 39.9737614 15.90234375 42.515625 C15.89718246 43.30430969 15.89202118 44.09299438 15.88670349 44.90557861 C15.88633536 48.5145055 16.11807709 51.47230836 17 55 C19.97 55.66 22.94 56.32 26 57 C26 57.99 26 58.98 26 60 C17.75 60 9.5 60 1 60 C1 58.68 1 57.36 1 56 C2.11375 55.7525 3.2275 55.505 4.375 55.25 C7.91072674 54.39523237 7.91072674 54.39523237 9.20996094 52.47070312 C10.39695454 48.75859706 10.28467208 45.07611632 10.265625 41.21875 C10.26753845 40.36825073 10.2694519 39.51775146 10.27142334 38.64147949 C10.27278229 36.84610701 10.26910614 35.05072461 10.26074219 33.25537109 C10.25003846 30.50986627 10.26064721 27.76501576 10.2734375 25.01953125 C10.27211585 23.27343606 10.26955335 21.52734127 10.265625 19.78125 C10.26967346 18.96136597 10.27372192 18.14148193 10.27789307 17.29675293 C10.28844722 11.82021041 10.28844722 11.82021041 8 7 C6.06896092 5.88526866 6.06896092 5.88526866 3.875 5.25 C3.15054687 5.00765625 2.42609375 4.7653125 1.6796875 4.515625 C1.12539062 4.34546875 0.57109375 4.1753125 0 4 C0 2.68 0 1.36 0 0 Z " fill="#565656" transform="translate(1183,1063)"/>
<path d="M0 0 C6.05322331 -1.17358411 12.05037044 -2.05108879 18 0 C23.39353446 4.20111322 26.75272624 10.50310632 30.27050781 16.25732422 C33.14202565 20.81105535 36.3940411 25.07282537 39.625 29.375 C40.76389935 30.92383355 41.90197404 32.47327398 43.0390625 34.0234375 C45.28323429 37.07967011 47.62034077 40.04799335 50 43 C50.0246826 38.05208706 50.04285166 33.1042098 50.05493164 28.15625 C50.05996653 26.47232438 50.06679481 24.78840314 50.07543945 23.10449219 C50.08754196 20.68683797 50.09323668 18.26924144 50.09765625 15.8515625 C50.10281754 15.0963028 50.10797882 14.34104309 50.11329651 13.56289673 C50.19320188 9.65351891 50.19320188 9.65351891 49 6 C46.88153715 5.31270746 46.88153715 5.31270746 44.4375 4.875 C43.61121094 4.70742187 42.78492188 4.53984375 41.93359375 4.3671875 C41.29550781 4.24601562 40.65742187 4.12484375 40 4 C40 2.68 40 1.36 40 0 C48.25 0 56.5 0 65 0 C65 1.32 65 2.64 65 4 C64.43410156 4.12117188 63.86820313 4.24234375 63.28515625 4.3671875 C62.55167969 4.53476563 61.81820313 4.70234375 61.0625 4.875 C60.33160156 5.03742188 59.60070313 5.19984375 58.84765625 5.3671875 C56.79299706 5.82961523 56.79299706 5.82961523 56 8 C55.88112044 9.66399283 55.82288056 11.33249275 55.79467773 13.00048828 C55.77473251 14.04141632 55.75478729 15.08234436 55.73423767 16.15481567 C55.71752518 17.28192963 55.70081268 18.40904358 55.68359375 19.5703125 C55.66281265 20.72167694 55.64203156 21.87304138 55.62062073 23.05929565 C55.55508335 26.7478014 55.49622072 30.43638003 55.4375 34.125 C55.39431877 36.62110138 55.35070462 39.1171953 55.30664062 41.61328125 C55.19939769 47.74210981 55.09763911 53.87101133 55 60 C50.20581055 59.19848633 50.20581055 59.19848633 48.35351562 57.41210938 C47.87591797 56.72955078 47.39832031 56.04699219 46.90625 55.34375 C46.35718994 54.57667725 45.80812988 53.80960449 45.24243164 53.01928711 C44.37992798 51.77223999 44.37992798 51.77223999 43.5 50.5 C42.26067808 48.7606037 41.01975701 47.02234582 39.77734375 45.28515625 C39.15069824 44.40230957 38.52405273 43.51946289 37.87841797 42.60986328 C34.54145255 37.97350244 31.03089846 33.47187562 27.52734375 28.9609375 C23.51237906 23.75830001 19.734425 18.40692725 16 13 C15.92568868 18.17778402 15.87132192 23.35525569 15.83520508 28.53344727 C15.82014447 30.29391896 15.79969174 32.0543533 15.77368164 33.81469727 C15.73717771 36.34921503 15.72024646 38.88323552 15.70703125 41.41796875 C15.69154739 42.20149216 15.67606354 42.98501556 15.66011047 43.7922821 C15.65871213 48.3613418 16.02442003 51.44483323 19 55 C22.57996259 56.36900354 22.57996259 56.36900354 26 57 C26 57.99 26 58.98 26 60 C18.08 60 10.16 60 2 60 C2 59.01 2 58.02 2 57 C3.7015625 56.319375 3.7015625 56.319375 5.4375 55.625 C9.04721692 54.42904194 9.04721692 54.42904194 10 52 C10.11396749 50.63295509 10.16926993 49.26074441 10.19287109 47.88916016 C10.20893402 47.04132965 10.22499695 46.19349915 10.24154663 45.31997681 C10.28597538 41.44574776 10.32705044 37.57168971 10.35009766 33.69726562 C10.36667113 31.6525536 10.39397938 29.60789984 10.43212891 27.56347656 C10.48682435 24.61753245 10.50875886 21.67294557 10.5234375 18.7265625 C10.55744156 17.35608261 10.55744156 17.35608261 10.59213257 15.95791626 C10.63172208 10.67946704 10.63172208 10.67946704 7.64306641 6.47021484 C5.13815394 5.07684861 2.71083288 3.92942842 0 3 C0 2.01 0 1.02 0 0 Z " fill="#565656" transform="translate(1046,1063)"/>
<path d="M0 0 C1.65 0 3.3 0 5 0 C5.38220703 0.95551758 5.76441406 1.91103516 6.15820312 2.89550781 C6.4129541 3.53231476 6.66770508 4.1691217 6.93017578 4.82522583 C7.50621783 6.26547554 8.0820584 7.70580584 8.65771484 9.14620972 C10.248285 13.12523581 11.84243234 17.10276531 13.44335938 21.07763672 C16.20359814 27.9398825 18.9574018 34.79544599 21.5 41.7421875 C21.84740234 42.67385742 22.19480469 43.60552734 22.55273438 44.56542969 C23.16803087 46.22799887 23.76427043 47.89779079 24.33789062 49.57519531 C25.18244189 52.00216076 25.18244189 52.00216076 27 55 C30.10036049 56.12715886 30.10036049 56.12715886 33 56 C33 57.32 33 58.64 33 60 C24.75 60 16.5 60 8 60 C8 58.68 8 57.36 8 56 C10.64 56 13.28 56 16 56 C14.35 51.05 12.7 46.1 11 41 C3.74 40.67 -3.52 40.34 -11 40 C-12.73642306 45.98999418 -12.73642306 45.98999418 -13.625 51.9375 C-13.69976563 52.70964844 -13.77453125 53.48179688 -13.8515625 54.27734375 C-13.90054688 54.84582031 -13.94953125 55.41429687 -14 56 C-11.36 56.33 -8.72 56.66 -6 57 C-6 57.99 -6 58.98 -6 60 C-13.26 60 -20.52 60 -28 60 C-28 58.68 -28 57.36 -28 56 C-26.4229126 55.60167969 -26.4229126 55.60167969 -24.81396484 55.1953125 C-20.12419015 53.16080281 -19.00592057 49.66804263 -17.18325806 45.11376953 C-16.78504852 44.04497559 -16.38683899 42.97618164 -15.9765625 41.875 C-15.54491791 40.77655762 -15.11327332 39.67811523 -14.66854858 38.54638672 C-13.29693866 35.03962874 -11.96081959 31.52052633 -10.625 28 C-9.70411118 25.62931819 -8.78095929 23.25951413 -7.85546875 20.890625 C-3.75470193 10.50865873 -3.75470193 10.50865873 0 0 Z " fill="#555555" transform="translate(566,1063)"/>
<path d="M0 0 C0.47566406 0.28875 0.95132812 0.5775 1.44140625 0.875 C1.77140625 -0.115 2.10140625 -1.105 2.44140625 -2.125 C3.76140625 -2.125 5.08140625 -2.125 6.44140625 -2.125 C6.44140625 4.805 6.44140625 11.735 6.44140625 18.875 C5.12140625 18.875 3.80140625 18.875 2.44140625 18.875 C2.15007812 18.06675781 1.85875 17.25851562 1.55859375 16.42578125 C-1.6063453 7.54873866 -1.6063453 7.54873866 -8.55859375 1.875 C-14.83438786 1.15482691 -20.80992892 0.99548861 -26.55859375 3.875 C-27.75862718 5.69101365 -27.75862718 5.69101365 -28.55859375 7.875 C-29.05359375 8.6175 -29.54859375 9.36 -30.05859375 10.125 C-34.52800879 18.31892758 -34.76998867 28.13464 -32.87109375 37.1328125 C-31.02151607 43.28265829 -28.75110398 48.84655378 -23.55859375 52.875 C-20.82402677 53.98542413 -20.82402677 53.98542413 -17.55859375 53.875 C-16.2128125 53.92914062 -16.2128125 53.92914062 -14.83984375 53.984375 C-8.85684734 54.30670951 -8.85684734 54.30670951 -3.55859375 51.875 C-3.33721982 49.24802936 -3.2769735 46.86606036 -3.37109375 44.25 C-3.38462891 43.54359375 -3.39816406 42.8371875 -3.41210938 42.109375 C-3.44748335 40.36425872 -3.50129154 38.61953392 -3.55859375 36.875 C-6.52859375 35.885 -9.49859375 34.895 -12.55859375 33.875 C-12.55859375 32.885 -12.55859375 31.895 -12.55859375 30.875 C-3.64859375 30.875 5.26140625 30.875 14.44140625 30.875 C14.11140625 32.195 13.78140625 33.515 13.44140625 34.875 C11.46140625 35.535 9.48140625 36.195 7.44140625 36.875 C7.11140625 42.815 6.78140625 48.755 6.44140625 54.875 C0.72543556 57.6436733 -4.1586996 59.58567386 -10.55859375 59.875 C-11.42613281 59.93816406 -12.29367187 60.00132813 -13.1875 60.06640625 C-22.3216285 60.4602282 -29.23478125 57.82574159 -35.9921875 51.6484375 C-38.83644631 48.42825421 -40.75730042 44.75418977 -42.55859375 40.875 C-43.10966797 39.72257812 -43.10966797 39.72257812 -43.671875 38.546875 C-46.27864989 30.69209956 -45.47637862 20.58072974 -41.94140625 13.15234375 C-32.79403695 -1.91239156 -16.46503719 -8.7328374 0 0 Z " fill="#515151" transform="translate(1314.55859375,1065.125)"/>
<path d="M0 0 C1.65 0 3.3 0 5 0 C7.62270387 6.71858607 10.17523346 13.4440662 12.5625 20.25 C14.17430472 24.80924823 15.93034429 29.20110285 17.96875 33.58203125 C19.78828973 37.84830053 21.19468904 42.26847276 22.65625 46.66796875 C24.07254015 50.17987427 25.69749805 52.99693059 28 56 C30.62766389 56.96219702 30.62766389 56.96219702 33 57 C33 57.99 33 58.98 33 60 C24.75 60 16.5 60 8 60 C8 59.01 8 58.02 8 57 C10.31 56.67 12.62 56.34 15 56 C14.54762239 54.08191891 14.08785537 52.16557967 13.625 50.25 C13.36976562 49.18265625 13.11453125 48.1153125 12.8515625 47.015625 C12.03100609 43.74981711 12.03100609 43.74981711 10 40 C3.07 39.67 -3.86 39.34 -11 39 C-11.495 40.711875 -11.99 42.42375 -12.5 44.1875 C-12.7784375 45.15042969 -13.056875 46.11335938 -13.34375 47.10546875 C-13.96677608 49.85345876 -14.12302812 52.19598416 -14 55 C-11.36 55.66 -8.72 56.32 -6 57 C-6 57.99 -6 58.98 -6 60 C-13.59 60 -21.18 60 -29 60 C-29 58.68 -29 57.36 -29 56 C-27.91460938 55.80792969 -26.82921875 55.61585937 -25.7109375 55.41796875 C-21.82589969 54.34765843 -21.82589969 54.34765843 -20.1015625 51.11328125 C-19.58202972 49.85732008 -19.09172432 48.589027 -18.625 47.3125 C-18.34736816 46.6205957 -18.06973633 45.92869141 -17.78369141 45.21582031 C-16.82983284 42.81996124 -15.9161187 40.4105259 -15 38 C-14.24721989 36.0810769 -13.49190254 34.16314768 -12.734375 32.24609375 C-11.17212343 28.28349088 -9.62366335 24.31593095 -8.0859375 20.34375 C-6.09946316 15.22799643 -4.02602596 10.15831094 -1.875 5.109375 C-1.17988235 3.43364495 -0.57369502 1.72108506 0 0 Z " fill="#535353" transform="translate(1414,1063)"/>
<path d="M0 0 C1.65 0 3.3 0 5 0 C5.17740723 0.54889893 5.35481445 1.09779785 5.53759766 1.66333008 C7.31229644 7.08025506 9.27131245 12.39079894 11.375 17.6875 C13.54042398 23.17369471 15.59904993 28.666746 17.5 34.25 C19.26204898 39.21155897 21.23464249 44.00155623 23.5 48.75 C24.0465625 49.89984375 24.593125 51.0496875 25.15625 52.234375 C27.20990435 55.31485652 28.47889458 56.05943074 32 57 C32 57.99 32 58.98 32 60 C24.08 60 16.16 60 8 60 C8 58.68 8 57.36 8 56 C10.31 56 12.62 56 15 56 C14.72285156 55.19175781 14.44570313 54.38351562 14.16015625 53.55078125 C13.61681641 51.94783203 13.61681641 51.94783203 13.0625 50.3125 C12.52302734 48.72888672 12.52302734 48.72888672 11.97265625 47.11328125 C11 44 11 44 10 39 C3.07 39 -3.86 39 -11 39 C-12.20795667 44.435805 -13.30157654 49.52901623 -14 55 C-11.69 55.66 -9.38 56.32 -7 57 C-7 57.99 -7 58.98 -7 60 C-14.26 60 -21.52 60 -29 60 C-29 58.68 -29 57.36 -29 56 C-25.535 55.505 -25.535 55.505 -22 55 C-21.72671875 54.31083496 -21.4534375 53.62166992 -21.171875 52.91162109 C-19.89274072 49.73350538 -18.57418094 46.57367568 -17.25 43.4140625 C-16.71853082 42.14071646 -16.18728785 40.86727598 -15.65625 39.59375 C-14.82882548 37.60949973 -14.0003135 35.62574659 -13.16796875 33.64355469 C-12.35831759 31.71439772 -11.55374132 29.78318787 -10.75 27.8515625 C-10.27046875 26.70510254 -9.7909375 25.55864258 -9.296875 24.37744141 C-7.98352705 20.95709963 -6.96264386 17.53327641 -6 14 C-4.36703292 9.13529702 -2.38827792 4.5491008 0 0 Z " fill="#545454" transform="translate(853,1063)"/>
<path d="M0 0 C0.66 0 1.32 0 2 0 C6.72616466 11.37275934 11.32246714 22.77554636 15.60546875 34.32421875 C15.87866943 35.05890381 16.15187012 35.79358887 16.43334961 36.55053711 C16.96943265 37.99435537 17.50288649 39.43915312 18.03344727 40.88500977 C19.08247176 44.19583121 19.08247176 44.19583121 21 47 C21 48.65 21 50.3 21 52 C7.8 52 -5.4 52 -19 52 C-18.32909476 48.64547381 -17.75624092 46.06906363 -16.55712891 42.97924805 C-16.1212999 41.84733284 -16.1212999 41.84733284 -15.67666626 40.69255066 C-15.36313202 39.89037613 -15.04959778 39.0882016 -14.7265625 38.26171875 C-14.40215179 37.42212112 -14.07774109 36.5825235 -13.74349976 35.71748352 C-12.70778583 33.03933797 -11.66654442 30.36338274 -10.625 27.6875 C-9.59185945 25.02185255 -8.55984349 22.35577167 -7.52792358 19.68965149 C-6.88667595 18.03414891 -6.2445003 16.37900539 -5.60122681 14.72428894 C-3.69922479 9.82881307 -1.83522708 4.9209172 0 0 Z " fill="#F3F3F3" transform="translate(967,831)"/>
<path d="M0 0 C0.66 0 1.32 0 2 0 C6.1606027 10.25031078 10.25298344 20.49547125 13.91015625 30.9375 C16.61188145 38.65401106 16.61188145 38.65401106 20.11328125 46.0234375 C21 48 21 48 21 52 C7.8 52 -5.4 52 -19 52 C-18.29908354 47.79450124 -17.73683171 44.90023131 -16.23413086 41.09619141 C-15.87383286 40.17569 -15.51353485 39.2551886 -15.14231873 38.30679321 C-14.75375198 37.33156708 -14.36518524 36.35634094 -13.96484375 35.3515625 C-13.56672989 34.33903412 -13.16861603 33.32650574 -12.75843811 32.28329468 C-11.4902795 29.06166781 -10.21401379 25.84332418 -8.9375 22.625 C-8.07433244 20.43640977 -7.21169613 18.24760994 -6.34960938 16.05859375 C-4.23922287 10.70328507 -2.12217767 5.35064628 0 0 Z " fill="#F3F3F3" transform="translate(643,831)"/>
<path d="M0 0 C1.04929687 -0.01417969 2.09859375 -0.02835938 3.1796875 -0.04296875 C6.125 0.1875 6.125 0.1875 10.125 2.1875 C13.095 2.1875 16.065 2.1875 19.125 2.1875 C19.125 8.4575 19.125 14.7275 19.125 21.1875 C18.135 21.1875 17.145 21.1875 16.125 21.1875 C15.73828125 20.28386719 15.3515625 19.38023438 14.953125 18.44921875 C14.17195312 16.67998047 14.17195312 16.67998047 13.375 14.875 C12.86453125 13.70324219 12.3540625 12.53148437 11.828125 11.32421875 C10.13820812 8.21182596 9.23163025 6.80023155 6.125 5.1875 C2.39371332 4.53763875 -1.13648733 4.58864027 -4.875 5.1875 C-7.40549243 6.98723117 -7.40549243 6.98723117 -7.875 10.1875 C-8.03311395 13.36107286 -7.9880863 16.19608057 -6.875 19.1875 C-2.6065226 23.44790844 2.6568387 25.2735471 8.15429688 27.45507812 C13.55659232 29.69280619 18.35584321 32.29251616 21.5 37.4375 C22.71688503 42.79179413 23.11251558 47.92502303 20.5625 52.9375 C17.57328007 57.52808775 13.26857114 60.47297629 8.125 62.1875 C5.63232972 62.3094395 3.17988198 62.37261037 0.6875 62.375 C-0.63121094 62.38917969 -1.94992187 62.40335938 -3.30859375 62.41796875 C-6.875 62.1875 -6.875 62.1875 -8.84765625 61.11328125 C-11.72871354 59.58326745 -11.72871354 59.58326745 -18.875 61.1875 C-18.875 54.5875 -18.875 47.9875 -18.875 41.1875 C-17.555 41.1875 -16.235 41.1875 -14.875 41.1875 C-14.49988281 42.00734375 -14.12476563 42.8271875 -13.73828125 43.671875 C-13.22652344 44.74953125 -12.71476563 45.8271875 -12.1875 46.9375 C-11.68863281 48.00484375 -11.18976562 49.0721875 -10.67578125 50.171875 C-8.15894078 54.38662736 -5.52693786 56.63685405 -0.875 58.1875 C4.58297517 58.63900998 4.58297517 58.63900998 9.5625 56.875 C12.45359949 53.75261255 12.29280186 50.40855252 12.453125 46.3203125 C11.9748838 43.21174472 11.12592391 41.64566628 9.125 39.1875 C6.48673 37.72742858 3.71191769 36.75609335 0.875 35.75 C-6.26722608 33.01353213 -12.09110961 30.66593237 -16.3125 23.875 C-17.40670422 18.64713538 -17.50698679 14.01323962 -15.75 8.9375 C-11.64359346 2.91477041 -7.2978939 0.04460815 0 0 Z " fill="#535353" transform="translate(781.875,1061.8125)"/>
<path d="M0 0 C17.49 0 34.98 0 53 0 C53 5.61 53 11.22 53 17 C51.68 17 50.36 17 49 17 C48.38125 15.14375 48.38125 15.14375 47.75 13.25 C45.873273 8.3743746 45.873273 8.3743746 42 5 C40.12242628 4.73693905 38.23431131 4.54468864 36.34375 4.40234375 C35.34537109 4.32363037 34.34699219 4.24491699 33.31835938 4.16381836 C32.55330078 4.1097583 31.78824219 4.05569824 31 4 C31.11740882 10.94186117 31.24224341 17.88355992 31.37231445 24.82519531 C31.41570516 27.18812001 31.45737713 29.55107691 31.49731445 31.9140625 C31.55491693 35.30478636 31.6186401 38.6953475 31.68359375 42.0859375 C31.70030624 43.14743011 31.71701874 44.20892273 31.73423767 45.30258179 C31.75418289 46.28344757 31.77412811 47.26431335 31.79467773 48.27490234 C31.81799416 49.57396011 31.81799416 49.57396011 31.84178162 50.89926147 C31.87096592 53.05757893 31.87096592 53.05757893 33 55 C34.89533342 55.46523063 34.89533342 55.46523063 37.0625 55.625 C38.361875 55.74875 39.66125 55.8725 41 56 C41 57.32 41 58.64 41 60 C31.43 60 21.86 60 12 60 C12 59.01 12 58.02 12 57 C13.11375 56.87625 14.2275 56.7525 15.375 56.625 C19.03103677 56.3534187 19.03103677 56.3534187 21 54 C21.33069425 51.77803673 21.33069425 51.77803673 21.31884766 49.18310547 C21.33871735 48.18221893 21.35858704 47.1813324 21.37905884 46.15011597 C21.39638565 44.52506638 21.39638565 44.52506638 21.4140625 42.8671875 C21.43342865 41.76021515 21.4527948 40.6532428 21.4727478 39.51272583 C21.53266754 35.96689631 21.57897873 32.42103455 21.625 28.875 C21.66316835 26.47524603 21.70221939 24.07550592 21.7421875 21.67578125 C21.83837916 15.78397698 21.92339015 9.89208964 22 4 C20.22958654 4.0940209 18.46017488 4.20704132 16.69140625 4.328125 C15.70599854 4.3890332 14.72059082 4.44994141 13.70532227 4.51269531 C10.77655763 5.04024826 9.82541019 5.51337208 7.9375 7.75 C6.30829559 10.482859 4.97738841 12.97898129 4 16 C2.68 16 1.36 16 0 16 C0 10.72 0 5.44 0 0 Z " fill="#5A5A5A" transform="translate(902,1063)"/>
<path d="M0 0 C17.49 0 34.98 0 53 0 C53 5.61 53 11.22 53 17 C51.35 17 49.7 17 48 17 C47.7525 15.7625 47.505 14.525 47.25 13.25 C46.2336763 9.39615509 45.54009653 7.15859544 42 5 C36.555 4.505 36.555 4.505 31 4 C31.33 20.5 31.66 37 32 54 C34.64 54.99 37.28 55.98 40 57 C40 57.99 40 58.98 40 60 C31.09 60 22.18 60 13 60 C13 59.01 13 58.02 13 57 C14.134375 56.690625 15.26875 56.38125 16.4375 56.0625 C19.78775099 55.37075469 19.78775099 55.37075469 21 54 C21.12263388 52.43551617 21.17779522 50.86567228 21.20532227 49.29663086 C21.22526749 48.29566879 21.24521271 47.29470673 21.26576233 46.26341248 C21.28247482 45.1748848 21.29918732 44.08635712 21.31640625 42.96484375 C21.33718735 41.85645645 21.35796844 40.74806915 21.37937927 39.60609436 C21.44499623 36.04996192 21.50381596 32.49375297 21.5625 28.9375 C21.60567368 26.53319507 21.64928758 24.12889801 21.69335938 21.72460938 C21.80068992 15.81648815 21.90243331 9.90829009 22 4 C20.2181302 4.12422049 18.43699733 4.25904717 16.65625 4.3984375 C15.66431641 4.47239746 14.67238281 4.54635742 13.65039062 4.62255859 C10.88211529 4.8268964 10.88211529 4.8268964 8.5 6.625 C6.58669065 9.65440648 5.28694217 12.65395035 4 16 C2.68 16 1.36 16 0 16 C0 10.72 0 5.44 0 0 Z " fill="#5A5A5A" transform="translate(974,1063)"/>
<path d="M0 0 C17.16 0 34.32 0 52 0 C52 5.61 52 11.22 52 17 C48 16 48 16 46.83984375 14.2578125 C46.39318359 13.20207031 46.39318359 13.20207031 45.9375 12.125 C44.53817371 8.8699148 43.64974284 7.64974284 41 5 C37.7 4.67 34.4 4.34 31 4 C31.33 21.16 31.66 38.32 32 56 C34.64 56.33 37.28 56.66 40 57 C40 57.99 40 58.98 40 60 C30.76 60 21.52 60 12 60 C12 59.01 12 58.02 12 57 C14.31 57 16.62 57 19 57 C19 56.34 19 55.68 19 55 C19.66 55 20.32 55 21 55 C21.33 37.84 21.66 20.68 22 3 C11.39078082 2.73367313 11.39078082 2.73367313 7.4375 7.8125 C5.76864283 10.45196846 4.36814051 13.19436624 3 16 C2.01 16 1.02 16 0 16 C0 10.72 0 5.44 0 0 Z " fill="#595959" transform="translate(688,1063)"/>
<path d="M0 0 C17.16 0 34.32 0 52 0 C52 5.28 52 10.56 52 16 C50.68 15.67 49.36 15.34 48 15 C47.30959426 13.34302621 46.6469365 11.6744239 46 10 C44.08577504 7.08457671 44.08577504 7.08457671 41 5 C37.7 4.67 34.4 4.34 31 4 C31.33 21.16 31.66 38.32 32 56 C34.64 56.33 37.28 56.66 40 57 C40 57.99 40 58.98 40 60 C30.76 60 21.52 60 12 60 C12 59.01 12 58.02 12 57 C15.07617188 56.70703125 15.07617188 56.70703125 18.15234375 56.4140625 C19.06693359 56.20910156 19.06693359 56.20910156 20 56 C21.23211948 53.53576104 21.15779908 51.84765337 21.20532227 49.09130859 C21.22526749 48.07040131 21.24521271 47.04949402 21.26576233 45.99765015 C21.28247482 44.89240997 21.29918732 43.7871698 21.31640625 42.6484375 C21.33718735 41.5192691 21.35796844 40.39010071 21.37937927 39.22671509 C21.44491335 35.60954028 21.50377774 31.99229119 21.5625 28.375 C21.60568154 25.92707556 21.64929571 23.47915872 21.69335938 21.03125 C21.80059867 15.0209125 21.90235787 9.01050065 22 3 C20.21420081 3.11507674 18.42925129 3.24339973 16.64477539 3.37744141 C15.65071182 3.44750397 14.65664825 3.51756653 13.63246155 3.5897522 C10.83911382 3.79098828 10.83911382 3.79098828 8.68359375 5.9609375 C8.27238281 6.75757813 7.86117187 7.55421875 7.4375 8.375 C6.78587891 9.56222656 6.78587891 9.56222656 6.12109375 10.7734375 C5.56615234 11.87558594 5.56615234 11.87558594 5 13 C4.01 14.485 4.01 14.485 3 16 C2.01 16 1.02 16 0 16 C0 10.72 0 5.44 0 0 Z " fill="#555555" transform="translate(616,1063)"/>
<path d="M0 0 C8.25 0 16.5 0 25 0 C25 0.99 25 1.98 25 3 C22.69 3.33 20.38 3.66 18 4 C17.97470729 11.08413941 17.95715739 18.16826723 17.94506836 25.25244141 C17.94003026 27.66390417 17.93319966 30.07536386 17.92456055 32.48681641 C17.91247213 35.94694779 17.90676656 39.4070389 17.90234375 42.8671875 C17.89718246 43.95055389 17.89202118 45.03392029 17.88670349 46.15011597 C17.88662796 47.1510025 17.88655243 48.15188904 17.88647461 49.18310547 C17.88314369 50.50881058 17.88314369 50.50881058 17.87974548 51.86129761 C17.86126056 54.05276775 17.86126056 54.05276775 19 56 C24.94 56 30.88 56 37 56 C37.66 54.68 38.32 53.36 39 52 C39.66666667 50.66666667 40.33333333 49.33333333 41 48 C41.66 48 42.32 48 43 48 C43.66 46.02 44.32 44.04 45 42 C45.99 42 46.98 42 48 42 C47.67 47.94 47.34 53.88 47 60 C31.49 60 15.98 60 0 60 C0 59.01 0 58.02 0 57 C0.969375 56.690625 1.93875 56.38125 2.9375 56.0625 C5.84065792 55.30476658 5.84065792 55.30476658 7 54 C7.10859534 52.54292995 7.14902117 51.08068995 7.16113281 49.61962891 C7.17074036 48.68841217 7.1803479 47.75719543 7.19024658 46.79776001 C7.1966214 45.27751724 7.1966214 45.27751724 7.203125 43.7265625 C7.20882507 42.69187836 7.21452515 41.65719421 7.22039795 40.59115601 C7.22986433 38.39704415 7.2363884 36.20291797 7.24023438 34.00878906 C7.24993872 30.64623273 7.28094657 27.28428767 7.3125 23.921875 C7.31902976 21.79427448 7.32428034 19.66666957 7.328125 17.5390625 C7.3404718 16.52961578 7.3528186 15.52016907 7.36553955 14.48013306 C7.36253845 13.542612 7.35953735 12.60509094 7.35644531 11.63916016 C7.36009094 10.81388824 7.36373657 9.98861633 7.36749268 9.13833618 C6.91231531 6.48978752 6.09802141 5.62834413 4 4 C1.89667109 3.28552357 1.89667109 3.28552357 0 3 C0 2.01 0 1.02 0 0 Z " fill="#515151" transform="translate(473,1063)"/>
<path d="M0 0 C9.24 0 18.48 0 28 0 C28 1.32 28 2.64 28 4 C24.7 4.66 21.4 5.32 18 6 C18.0686904 12.65727666 18.15656529 19.31391396 18.26245117 25.97070312 C18.29576336 28.23658171 18.32377545 30.50254454 18.34643555 32.76855469 C18.37986593 36.0205485 18.43217562 39.27176585 18.48828125 42.5234375 C18.49467117 43.54118256 18.5010611 44.55892761 18.50764465 45.60751343 C18.53733589 47.01874985 18.53733589 47.01874985 18.56762695 48.45849609 C18.57873001 49.28900482 18.58983307 50.11951355 18.60127258 50.97518921 C18.73285263 51.64337677 18.86443268 52.31156433 19 53 C21.91765 54.9451 23.62537285 55.45276317 27 56 C27 57.32 27 58.64 27 60 C18.42 60 9.84 60 1 60 C1 59.01 1 58.02 1 57 C3.31 56.34 5.62 55.68 8 55 C8.02526838 48.03996553 8.04283222 41.0799428 8.05493164 34.11987305 C8.05997341 31.75007688 8.06680665 29.38028385 8.07543945 27.01049805 C8.0875119 23.61245961 8.09322971 20.21446215 8.09765625 16.81640625 C8.10281754 15.74975235 8.10797882 14.68309845 8.11329651 13.5841217 C8.11337204 12.60318039 8.11344757 11.62223907 8.11352539 10.61157227 C8.115746 9.74331314 8.11796661 8.87505402 8.12025452 7.98048401 C8.21954667 5.99856319 8.21954667 5.99856319 7 5 C4.67182036 4.63239269 2.3381615 4.29758419 0 4 C0 2.68 0 1.36 0 0 Z " fill="#585858" transform="translate(1133,1063)"/>
<path d="M0 0 C5.94 0 11.88 0 18 0 C17.67 9.9 17.34 19.8 17 30 C18.98 30 20.96 30 23 30 C23 30.66 23 31.32 23 32 C21.02 32 19.04 32 17 32 C17.13816959 35.64616671 17.28681534 39.29183074 17.4375 42.9375 C17.47681641 43.97841797 17.51613281 45.01933594 17.55664062 46.09179688 C17.59853516 47.08115234 17.64042969 48.07050781 17.68359375 49.08984375 C17.72025146 50.00628662 17.75690918 50.92272949 17.79467773 51.86694336 C17.77003864 53.9820728 17.77003864 53.9820728 19 55 C21.32817964 55.36760731 23.6618385 55.70241581 26 56 C26 56.99 26 57.98 26 59 C17.42 59 8.84 59 0 59 C0 58.01 0 57.02 0 56 C0.969375 55.690625 1.93875 55.38125 2.9375 55.0625 C5.84065792 54.30476658 5.84065792 54.30476658 7 53 C7.10859534 51.54292995 7.14902117 50.08068995 7.16113281 48.61962891 C7.17074036 47.68841217 7.1803479 46.75719543 7.19024658 45.79776001 C7.1966214 44.27751724 7.1966214 44.27751724 7.203125 42.7265625 C7.20882507 41.69187836 7.21452515 40.65719421 7.22039795 39.59115601 C7.22986433 37.39704415 7.2363884 35.20291797 7.24023438 33.00878906 C7.24993872 29.64623273 7.28094657 26.28428767 7.3125 22.921875 C7.31902976 20.79427448 7.32428034 18.66666957 7.328125 16.5390625 C7.3404718 15.52961578 7.3528186 14.52016907 7.36553955 13.48013306 C7.36253845 12.542612 7.35953735 11.60509094 7.35644531 10.63916016 C7.36009094 9.81388824 7.36373657 8.98861633 7.36749268 8.13833618 C6.91231531 5.48978752 6.09802141 4.62834413 4 3 C1.89667109 2.28552357 1.89667109 2.28552357 0 2 C0 1.34 0 0.68 0 0 Z " fill="#525252" transform="translate(402,1064)"/>
<path d="M0 0 C14.46969697 0 14.46969697 0 20 5 C21.84746521 8.69493043 21.3419438 12.95884604 21 17 C19.35869755 21.66475434 17.33271449 24.55107442 13 27 C7.89504422 27.73058401 4.6528792 27.3264396 0 25 C0 16.75 0 8.5 0 0 Z " fill="#F5F5F5" transform="translate(1484,1093)"/>
<path d="M0 0 C2.59102128 1.26637966 2.89729483 2.36779691 3.85449219 5.05786133 C4.15742187 5.89381836 4.46035156 6.72977539 4.77246094 7.59106445 C5.0728125 8.47084961 5.37316406 9.35063477 5.68261719 10.25708008 C5.9984375 11.12526367 6.31425781 11.99344727 6.63964844 12.88793945 C8.04872823 16.86203247 8.93261719 19.66535191 8.93261719 23.94458008 C3.32261719 23.94458008 -2.28738281 23.94458008 -8.06738281 23.94458008 C-8.06738281 21.63458008 -8.06738281 19.32458008 -8.06738281 16.94458008 C-8.26074219 17.9577832 -8.45410156 18.97098633 -8.65332031 20.01489258 C-8.91613204 21.36649575 -9.17916464 22.718056 -9.44238281 24.06958008 C-9.631875 25.06731445 -9.631875 25.06731445 -9.82519531 26.08520508 C-10.62585809 30.16858522 -11.73970192 34.0073195 -13.06738281 37.94458008 C-13.23595764 40.6952324 -13.23595764 40.6952324 -13.06738281 42.94458008 C-10.42738281 43.60458008 -7.78738281 44.26458008 -5.06738281 44.94458008 C-5.06738281 45.93458008 -5.06738281 46.92458008 -5.06738281 47.94458008 C-12.65738281 47.94458008 -20.24738281 47.94458008 -28.06738281 47.94458008 C-28.06738281 46.62458008 -28.06738281 45.30458008 -28.06738281 43.94458008 C-26.98199219 43.75250977 -25.89660156 43.56043945 -24.77832031 43.36254883 C-20.89328251 42.29223851 -20.89328251 42.29223851 -19.16894531 39.05786133 C-18.64966155 37.80179718 -18.15928549 36.53354185 -17.69238281 35.25708008 C-17.41620117 34.57170166 -17.14001953 33.88632324 -16.85546875 33.18017578 C-15.89652387 30.77886622 -14.98092272 28.36351809 -14.06738281 25.94458008 C-12.88913259 22.87586132 -11.70616767 19.8090594 -10.51806641 16.74414062 C-9.72647109 14.69239897 -8.94528353 12.63660712 -8.17529297 10.57666016 C-7.81483887 9.62944092 -7.45438477 8.68222168 -7.08300781 7.70629883 C-6.7662207 6.860271 -6.44943359 6.01424316 -6.12304688 5.14257812 C-3.60671109 -0.09668439 -3.60671109 -0.09668439 0 0 Z " fill="#5D5D5D" transform="translate(1413.0673828125,1075.055419921875)"/>
<path d="M0 0 C0.66 0.33 1.32 0.66 2 1 C4.09821215 0.60061233 4.09821215 0.60061233 6 0 C6.48919922 1.30324219 6.48919922 1.30324219 6.98828125 2.6328125 C7.64376953 4.36144531 7.64376953 4.36144531 8.3125 6.125 C8.74175781 7.26195312 9.17101562 8.39890625 9.61328125 9.5703125 C10.94572502 13.01510148 10.94572502 13.01510148 12.66796875 16.2421875 C14 19 14 19 14 22 C9.05 22 4.1 22 -1 22 C-1 22.66 -1 23.32 -1 24 C-2.32 24 -3.64 24 -5 24 C-5.12375 24.86625 -5.2475 25.7325 -5.375 26.625 C-6 30 -6 30 -7.0625 33.0625 C-7.97248633 35.9137905 -8.17440775 38.03506817 -8 41 C-5.69 41.66 -3.38 42.32 -1 43 C-1 43.99 -1 44.98 -1 46 C-8.26 46 -15.52 46 -23 46 C-23 44.68 -23 43.36 -23 42 C-19.535 41.505 -19.535 41.505 -16 41 C-15.72671875 40.31083496 -15.4534375 39.62166992 -15.171875 38.91162109 C-13.89274072 35.73350538 -12.57418094 32.57367568 -11.25 29.4140625 C-10.71853082 28.14071646 -10.18728785 26.86727598 -9.65625 25.59375 C-8.82882548 23.60949973 -8.0003135 21.62574659 -7.16796875 19.64355469 C-6.35831759 17.71439772 -5.55374132 15.78318787 -4.75 13.8515625 C-4.03070312 12.13187256 -4.03070312 12.13187256 -3.296875 10.37744141 C-1.97692369 6.93990255 -0.95760154 3.55204675 0 0 Z " fill="#5B5B5B" transform="translate(847,1077)"/>
<path d="M0 0 C1.95869709 0.99883677 3.87706125 2.07857922 5.76171875 3.2109375 C6.88255859 3.87996094 8.00339844 4.54898438 9.15820312 5.23828125 C10.33470943 5.95039857 11.51114183 6.66263801 12.6875 7.375 C14.38310839 8.3890307 16.07874134 9.40302812 17.77685547 10.41285706 C18.94666319 11.1195713 20.10760621 11.84114345 21.25976562 12.57627869 C24.70802581 14.75404607 28.07904906 16.48420708 31.86914062 18.00219727 C36.98140469 20.22982155 41.62015503 22.42521722 45 27 C47.93061151 35.99278017 46.68545772 45.90117375 46.125 55.1875 C46.03462505 57.78683268 45.95251039 60.3864665 45.87890625 62.98632812 C45.68135478 69.33082903 45.38105499 75.66401271 45 82 C44.01 81.505 44.01 81.505 43 81 C42.34 81.66 41.68 82.32 41 83 C41.02300171 82.35599747 41.04600342 81.71199493 41.06970215 81.04847717 C41.29424707 74.31535546 41.40516114 67.58699579 41.45166016 60.8503418 C41.4836879 58.34069328 41.54421206 55.83123442 41.63427734 53.32299805 C42.70309904 40.0935475 42.70309904 40.0935475 38.53671265 28.05969238 C34.81541078 24.9349725 30.59460568 23.2916327 26.03289795 21.74594116 C23.10639543 20.67210531 20.62379282 19.07954224 18.01953125 17.3828125 C16.70952148 16.56683594 16.70952148 16.56683594 15.37304688 15.734375 C14.52806641 15.20328125 13.68308594 14.6721875 12.8125 14.125 C10.24681336 12.52261038 7.68085397 10.92069944 5.11254883 9.32250977 C3.41962719 8.26269739 1.73895018 7.18333609 0.0625 6.09765625 C-2.02932651 4.73542072 -2.02932651 4.73542072 -4.8125 5.3125 C-5.534375 5.539375 -6.25625 5.76625 -7 6 C-7 4.02 -7 2.04 -7 0 C-4.23570941 -1.3821453 -2.95835085 -0.82547574 0 0 Z " fill="#222222" transform="translate(1278,790)"/>
<path d="M0 0 C0.66 0 1.32 0 2 0 C3.33891561 3.28942366 4.67017703 6.58189109 6 9.875 C6.3815625 10.81214844 6.763125 11.74929688 7.15625 12.71484375 C7.69765625 14.05869141 7.69765625 14.05869141 8.25 15.4296875 C8.58515625 16.25710449 8.9203125 17.08452148 9.265625 17.93701172 C10 20 10 20 10 22 C4.06 22 -1.88 22 -8 22 C-7.67 22.66 -7.34 23.32 -7 24 C-0.73 24.33 5.54 24.66 12 25 C12 25.33 12 25.66 12 26 C4.74 26 -2.52 26 -10 26 C-11.73642306 31.98999418 -11.73642306 31.98999418 -12.625 37.9375 C-12.69976563 38.70964844 -12.77453125 39.48179688 -12.8515625 40.27734375 C-12.90054688 40.84582031 -12.94953125 41.41429687 -13 42 C-10.36 42.33 -7.72 42.66 -5 43 C-5 43.99 -5 44.98 -5 46 C-12.26 46 -19.52 46 -27 46 C-27 44.68 -27 43.36 -27 42 C-25.41445313 41.60167969 -25.41445313 41.60167969 -23.796875 41.1953125 C-20.05686093 39.59271836 -19.01472857 37.62323072 -17.453125 33.9296875 C-16.6935139 31.92082051 -15.95983144 29.9019916 -15.25 27.875 C-14.51498639 25.84799015 -13.77065531 23.82432687 -13.015625 21.8046875 C-12.69883789 20.90733887 -12.38205078 20.00999023 -12.05566406 19.08544922 C-11 17 -11 17 -8 16 C-8 15.34 -8 14.68 -8 14 C-7.34 14 -6.68 14 -6 14 C-4.02 9.38 -2.04 4.76 0 0 Z " fill="#5B5B5B" transform="translate(565,1077)"/>
<path d="M0 0 C11.6875 0 11.6875 0 16.3125 4 C18.75815203 8.34782583 18.63335997 12.12078245 18 17 C16.71320376 20.93187741 15.73164943 22.47739326 12.375 24.875 C9 26 9 26 0 26 C0 17.42 0 8.84 0 0 Z " fill="#FAFAFA" transform="translate(419,1067)"/>
<path d="M0 0 C8.91 0 17.82 0 27 0 C26.67 1.32 26.34 2.64 26 4 C24.02 4.66 22.04 5.32 20 6 C19.67 11.94 19.34 17.88 19 24 C13.29479076 26.76346072 8.3941254 28.73691434 2 29 C1.06285156 29.03996094 0.12570312 29.07992188 -0.83984375 29.12109375 C-8.55967896 29.29354736 -8.55967896 29.29354736 -12 27 C-8.04 26.67 -4.08 26.34 0 26 C-4.455 25.01 -4.455 25.01 -9 24 C-4.64360304 22.91090076 -1.0087266 23.00920195 3.44140625 23.16015625 C6.24424385 23.19946334 6.24424385 23.19946334 9 21 C9.22137393 18.37302936 9.28162025 15.99106036 9.1875 13.375 C9.17396484 12.66859375 9.16042969 11.9621875 9.14648438 11.234375 C9.1111104 9.48925872 9.05730221 7.74453392 9 6 C6.03 5.01 3.06 4.02 0 3 C0 2.01 0 1.02 0 0 Z " fill="#575757" transform="translate(1302,1096)"/>
<path d="M0 0 C11.46428571 0 11.46428571 0 15 3 C18.39877711 6.82155183 18.51248752 9.62311246 18.3515625 14.58984375 C17.84446859 18.0662542 16.63533132 19.72079454 14 22 C9.20177589 24.87893447 6.16707097 24 0 24 C0 16.08 0 8.16 0 0 Z " fill="#F2F2F2" transform="translate(1484,1066)"/>
<path d="M0 0 C0.33 0 0.66 0 1 0 C1.00586624 0.62196259 1.01173248 1.24392517 1.01777649 1.88473511 C1.08156397 8.34094159 1.16594469 14.79664278 1.26245117 21.25244141 C1.29576665 23.6638321 1.32377768 26.07530202 1.34643555 28.48681641 C1.37985972 31.94728458 1.43216953 35.40702227 1.48828125 38.8671875 C1.49467117 39.95055389 1.5010611 41.03392029 1.50764465 42.15011597 C1.53733589 43.65144577 1.53733589 43.65144577 1.56762695 45.18310547 C1.58428154 46.50881058 1.58428154 46.50881058 1.60127258 47.86129761 C1.79864265 48.91995529 1.79864265 48.91995529 2 50 C2.99 50.66 3.98 51.32 5 52 C5 53.32 5 54.64 5 56 C4.37053467 56.33378662 3.74106934 56.66757324 3.0925293 57.01147461 C-4.83136971 61.26763005 -12.51676235 65.87306861 -20.1875 70.5625 C-21.41848488 71.31207056 -22.64960415 72.06142047 -23.88085938 72.81054688 C-24.48028351 73.17586517 -25.07970764 73.54118347 -25.69729614 73.91757202 C-26.87279294 74.63370147 -28.04894648 75.34875418 -29.22579956 76.06265259 C-32.40808736 77.99969483 -35.51905944 80.01629284 -38.61328125 82.08984375 C-42 84 -42 84 -44.08666992 83.74438477 C-46 83 -46 83 -48 81 C-48 78 -48 78 -47 76 C-46.11497803 76.21962402 -45.22995605 76.43924805 -44.31811523 76.66552734 C-40.39705307 77.06077826 -39.18246478 76.44193273 -35.91015625 74.3515625 C-34.49609497 73.46730591 -34.49609497 73.46730591 -33.0534668 72.56518555 C-32.06644775 71.92492432 -31.07942871 71.28466309 -30.0625 70.625 C-28.0080461 69.3316601 -25.95335811 68.03869199 -23.8984375 66.74609375 C-22.39555176 65.78872314 -22.39555176 65.78872314 -20.86230469 64.81201172 C-17.00862586 62.3724003 -13.10620492 60.02068439 -9.1875 57.6875 C-8.57849854 57.32156738 -7.96949707 56.95563477 -7.34204102 56.57861328 C-5.25263235 55.32502903 -3.18026989 54.09013494 -1 53 C-0.67 35.51 -0.34 18.02 0 0 Z " fill="#383838" transform="translate(1318,820)"/>
<path d="M0 0 C1.20308991 0.63810294 2.39836854 1.29331857 3.5625 2 C3.8925 1.01 4.2225 0.02 4.5625 -1 C5.8825 -1 7.2025 -1 8.5625 -1 C8.5625 5.93 8.5625 12.86 8.5625 20 C7.2425 20 5.9225 20 4.5625 20 C4.27117187 19.19175781 3.97984375 18.38351562 3.6796875 17.55078125 C0.48113824 8.72598836 0.48113824 8.72598836 -6.4375 3 C-9.61984401 2.53831279 -12.71122481 2.31340619 -15.92578125 2.23828125 C-17.16908203 2.12033203 -17.16908203 2.12033203 -18.4375 2 C-18.7675 1.34 -19.0975 0.68 -19.4375 0 C-21.4175 0.33 -23.3975 0.66 -25.4375 1 C-19.77844536 -4.65905464 -6.77266419 -3.05688033 0 0 Z " fill="#606060" transform="translate(1312.4375,1064)"/>
<path d="M0 0 C1.32 0 2.64 0 4 0 C4.56267578 1.22976563 4.56267578 1.22976563 5.13671875 2.484375 C5.64847656 3.56203125 6.16023437 4.6396875 6.6875 5.75 C7.18636719 6.81734375 7.68523438 7.8846875 8.19921875 8.984375 C10.71605922 13.19912736 13.34806214 15.44935405 18 17 C19.33180544 17.06712729 20.6666976 17.08522675 22 17.0625 C22.680625 17.05347656 23.36125 17.04445313 24.0625 17.03515625 C24.701875 17.02355469 25.34125 17.01195312 26 17 C26.99 17 27.98 17 29 17 C28.67 17.33 28.34 17.66 28 18 C28.66 18.66 29.32 19.32 30 20 C26.46502138 21.17832621 23.24106929 21.18397309 19.5625 21.1875 C18.24378906 21.20167969 16.92507813 21.21585938 15.56640625 21.23046875 C12 21 12 21 10.02734375 19.92578125 C7.14628646 18.39576745 7.14628646 18.39576745 0 20 C0 13.4 0 6.8 0 0 Z " fill="#5E5E5E" transform="translate(763,1103)"/>
<path d="M0 0 C0.66 0 1.32 0 2 0 C3.33891561 3.28942366 4.67017703 6.58189109 6 9.875 C6.3815625 10.81214844 6.763125 11.74929688 7.15625 12.71484375 C7.5171875 13.61074219 7.878125 14.50664063 8.25 15.4296875 C8.75273438 16.67081299 8.75273438 16.67081299 9.265625 17.93701172 C10 20 10 20 10 22 C4.06 22 -1.88 22 -8 22 C-5.87460394 14.39331935 -3.14771471 7.24098798 0 0 Z " fill="#EFEFEF" transform="translate(565,1077)"/>
<path d="M0 0 C3.89438978 2.59625985 4.67244854 5.64781937 6.1875 9.875 C6.46013672 10.59558594 6.73277344 11.31617188 7.01367188 12.05859375 C8.35390769 15.70645364 9 18.00977617 9 22 C3.39 22 -2.22 22 -8 22 C-5.84929147 14.47252015 -3.5111511 7.0223022 0 0 Z " fill="#EEEEEE" transform="translate(1413,1077)"/>
<path d="M0 0 C2.7103832 3.24136471 4.13944318 6.4957618 5.625 10.4375 C6.05039062 11.54996094 6.47578125 12.66242188 6.9140625 13.80859375 C8 17 8 17 9 22 C3.39 22 -2.22 22 -8 22 C-7.3418836 18.70941801 -6.77220346 16.09837452 -5.625 13.046875 C-5.36203125 12.345625 -5.0990625 11.644375 -4.828125 10.921875 C-4.41820312 9.84679688 -4.41820312 9.84679688 -4 8.75 C-3.72671875 8.0178125 -3.4534375 7.285625 -3.171875 6.53125 C-1.13225446 1.13225446 -1.13225446 1.13225446 0 0 Z " fill="#F2F2F2" transform="translate(852,1077)"/>
<path d="M0 0 C0.99 0 1.98 0 3 0 C2.67 5.94 2.34 11.88 2 18 C-13.51 18 -29.02 18 -45 18 C-44.505 16.515 -44.505 16.515 -44 15 C-44 15.66 -44 16.32 -44 17 C-36.41 16.67 -28.82 16.34 -21 16 C-21 15.67 -21 15.34 -21 15 C-19.62714844 14.96132812 -19.62714844 14.96132812 -18.2265625 14.921875 C-17.03804688 14.86515625 -15.84953125 14.8084375 -14.625 14.75 C-13.44164062 14.70359375 -12.25828125 14.6571875 -11.0390625 14.609375 C-7.916514 14.34581034 -7.916514 14.34581034 -6.65625 12.09375 C-6.4396875 11.4028125 -6.223125 10.711875 -6 10 C-5.33333333 8.66666667 -4.66666667 7.33333333 -4 6 C-3.34 6 -2.68 6 -2 6 C-1.34 4.02 -0.68 2.04 0 0 Z " fill="#5F5F5F" transform="translate(518,1105)"/>
<path d="M0 0 C1.04929687 -0.01417969 2.09859375 -0.02835938 3.1796875 -0.04296875 C6.125 0.1875 6.125 0.1875 10.125 2.1875 C13.095 2.1875 16.065 2.1875 19.125 2.1875 C19.125 8.4575 19.125 14.7275 19.125 21.1875 C18.135 21.1875 17.145 21.1875 16.125 21.1875 C15.73828125 20.28386719 15.3515625 19.38023438 14.953125 18.44921875 C14.43234375 17.26972656 13.9115625 16.09023437 13.375 14.875 C12.86453125 13.70324219 12.3540625 12.53148437 11.828125 11.32421875 C10.14032394 8.21572276 9.21184962 6.82171451 6.125 5.1875 C3.54626391 4.61765552 3.54626391 4.61765552 0.875 4.5 C-0.01703125 4.43425781 -0.9090625 4.36851563 -1.828125 4.30078125 C-2.50359375 4.26339844 -3.1790625 4.22601562 -3.875 4.1875 C-3.875 3.5275 -3.875 2.8675 -3.875 2.1875 C-5.195 1.8575 -6.515 1.5275 -7.875 1.1875 C-5.17835792 -0.16082104 -3.00912479 0.01839318 0 0 Z " fill="#5A5A5A" transform="translate(781.875,1061.8125)"/>
<path d="M0 0 C1.32 0.33 2.64 0.66 4 1 C3.39219824 6.77411669 1.22466112 11.70278804 -1 17 C-1.66946148 18.66554602 -2.33692351 20.33190174 -3 22 C-2.34 22 -1.68 22 -1 22 C-1 22.66 -1 23.32 -1 24 C-2.32 24 -3.64 24 -5 24 C-5.185625 25.299375 -5.185625 25.299375 -5.375 26.625 C-5.98058121 29.89513853 -6.88306035 32.87256899 -8 36 C-9 33 -9 33 -9 30 C-9.66 30.33 -10.32 30.66 -11 31 C-9.01187183 24.70426078 -6.68503567 18.59064256 -4.15771484 12.49389648 C-2.47121481 8.37358177 -1.15268763 4.2908659 0 0 Z " fill="#585858" transform="translate(847,1077)"/>
<path d="M0 0 C2.6015625 -0.29296875 2.6015625 -0.29296875 5.625 -0.1875 C7.12933594 -0.14689453 7.12933594 -0.14689453 8.6640625 -0.10546875 C9.43492187 -0.07066406 10.20578125 -0.03585937 11 0 C11.05058526 7.08411622 11.08568494 14.16818612 11.10986328 21.25244141 C11.11993954 23.66391744 11.13360081 26.07538122 11.15087891 28.48681641 C11.1750559 31.94697085 11.18646669 35.4069642 11.1953125 38.8671875 C11.20563507 39.95055389 11.21595764 41.03392029 11.22659302 42.15011597 C11.22674408 43.1510025 11.22689514 44.15188904 11.22705078 45.18310547 C11.231492 46.06690887 11.23593323 46.95071228 11.24050903 47.86129761 C11 50 11 50 9 52 C9 35.5 9 19 9 2 C5.37 2.33 1.74 2.66 -2 3 C-1.34 2.01 -0.68 1.02 0 0 Z " fill="#C5C5C5" transform="translate(699,1066)"/>
<path d="M0 0 C5.28 0 10.56 0 16 0 C16 4.95 16 9.9 16 15 C12.50201151 13.83400384 12.25835936 13.20212888 10.5 10.125 C8.91361895 7.36917138 7.43705733 5.07181359 5 3 C2.39388923 2.27802838 2.39388923 2.27802838 0 2 C0 1.34 0 0.68 0 0 Z " fill="#4C4C4C" transform="translate(938,1064)"/>
<path d="M0 0 C4.62 0 9.24 0 14 0 C13.29875 0.61875 12.5975 1.2375 11.875 1.875 C8.59264013 5.09208567 6.59870063 8.97267587 4.4296875 12.98828125 C3.95789063 13.65214844 3.48609375 14.31601563 3 15 C2.01 15 1.02 15 0 15 C0 10.05 0 5.1 0 0 Z " fill="#4A4A4A" transform="translate(688,1064)"/>
<path d="M0 0 C4.62 0 9.24 0 14 0 C14 4.95 14 9.9 14 15 C13.01 15 12.02 15 11 15 C10.63648438 14.20335937 10.63648438 14.20335937 10.265625 13.390625 C8.32112547 9.29221829 6.60189524 5.90475423 3 3 C2.01 2.67 1.02 2.34 0 2 C0 1.34 0 0.68 0 0 Z " fill="#4D4D4D" transform="translate(1012,1064)"/>
<path d="M0 0 C2 2 2 2 2.25 4.4375 C2 7 2 7 0 10 C-2.85550958 10.43930917 -4.38370746 10.36977553 -6.875 8.875 C-8 7 -8 7 -7.8125 3.875 C-7.544375 2.92625 -7.27625 1.9775 -7 1 C-4.48718205 -0.25640898 -2.78302919 -0.20872719 0 0 Z " fill="#595959" transform="translate(867,1046)"/>
<path d="M0 0 C0.66 0 1.32 0 2 0 C1.67 3.3 1.34 6.6 1 10 C7.27 10.33 13.54 10.66 20 11 C20 11.33 20 11.66 20 12 C12.74 12 5.48 12 -2 12 C-2.33 12.66 -2.66 13.32 -3 14 C-3.66 14 -4.32 14 -5 14 C-5.99 14.495 -5.99 14.495 -7 15 C-6.54803755 13.39402675 -6.08817673 11.79027492 -5.625 10.1875 C-5.36976563 9.29417969 -5.11453125 8.40085937 -4.8515625 7.48046875 C-4 5 -4 5 -2 2 C-1.34 2 -0.68 2 0 2 C0 1.34 0 0.68 0 0 Z " fill="#707070" transform="translate(557,1091)"/>
<path d="M0 0 C0 16.5 0 33 0 50 C-0.33 50 -0.66 50 -1 50 C-1 33.83 -1 17.66 -1 1 C-8.49377871 1.4737386 -8.49377871 1.4737386 -13 5.5625 C-13.86625 6.52349609 -13.86625 6.52349609 -14.75 7.50390625 C-15.1625 7.99761719 -15.575 8.49132813 -16 9 C-16 6 -16 6 -14.1875 2.8125 C-11 0 -11 0 0 0 Z " fill="#EDEDED" transform="translate(924,1067)"/>
<path d="M0 0 C1.49536133 0.97583008 1.49536133 0.97583008 3 3 C3.19166626 5.87913188 3.20910542 8.52039075 3.07421875 11.38671875 C3.04777786 12.20372757 3.02133698 13.02073639 2.99409485 13.86250305 C2.90633415 16.47157907 2.79718662 19.07926267 2.6875 21.6875 C2.62424082 23.45633034 2.56237477 25.22521109 2.50195312 26.99414062 C2.35079406 31.33017754 2.18045018 35.66508727 2 40 C0 38 0 38 -0.22705078 34.28466797 C-0.22673351 32.68713948 -0.21539982 31.08958973 -0.1953125 29.4921875 C-0.1924826 28.65156769 -0.18965271 27.81094788 -0.18673706 26.94485474 C-0.1755243 24.25475954 -0.15041803 21.5649949 -0.125 18.875 C-0.1149716 17.05339022 -0.10584551 15.23177523 -0.09765625 13.41015625 C-0.07558142 8.93997642 -0.04104434 4.47004429 0 0 Z " fill="#D2D2D2" transform="translate(1061,1075)"/>
<path d="M0 0 C0.66 0.33 1.32 0.66 2 1 C1.01 2.32 0.02 3.64 -1 5 C3.95 3.515 3.95 3.515 9 2 C3.20070106 7.79929894 -5.83388485 7.21996445 -13.6875 7.265625 C-16 7 -16 7 -19 5 C-13.06 4.505 -13.06 4.505 -7 4 C-11.455 3.01 -11.455 3.01 -16 2 C-12.43870818 1.10967704 -9.92499122 0.92283063 -6.3125 1 C-4.54206418 1.03751917 -2.77021439 1.04681559 -1 1 C-0.67 0.67 -0.34 0.34 0 0 Z " fill="#8F8F8F" transform="translate(1309,1118)"/>
<path d="M0 0 C1.2375 0.1546875 1.2375 0.1546875 2.5 0.3125 C4.79013653 3.7477048 4.67842973 5.297831 4.5 9.3125 C2.19 9.6425 -0.12 9.9725 -2.5 10.3125 C-4.64915785 7.08876323 -4.88286803 6.04546326 -4.5 2.3125 C-2.5 0.3125 -2.5 0.3125 0 0 Z " fill="#555555" transform="translate(845.5,1045.6875)"/>
<path d="M0 0 C0.598125 0.226875 1.19625 0.45375 1.8125 0.6875 C-1.9375 3.6875 -1.9375 3.6875 -4.1875 3.6875 C-4.1875 21.1775 -4.1875 38.6675 -4.1875 56.6875 C-4.5175 56.6875 -4.8475 56.6875 -5.1875 56.6875 C-5.26343591 49.0520666 -5.31605169 41.41673023 -5.35229492 33.78100586 C-5.36740063 31.18233603 -5.38788634 28.58369177 -5.41381836 25.98510742 C-5.45012243 22.25433042 -5.46720858 18.52388987 -5.48046875 14.79296875 C-5.49595261 13.62726852 -5.51143646 12.4615683 -5.52738953 11.26054382 C-5.52761612 10.17964981 -5.52784271 9.0987558 -5.52807617 7.98510742 C-5.53473801 7.03246506 -5.54139984 6.07982269 -5.54826355 5.09831238 C-5.1875 2.6875 -5.1875 2.6875 -3.80293274 0.83686829 C-2.1875 -0.3125 -2.1875 -0.3125 0 0 Z " fill="#E0E0E0" transform="translate(1243.1875,1067.3125)"/>
<path d="M0 0 C0.66 0 1.32 0 2 0 C1.51486435 1.07510078 1.51486435 1.07510078 1.01992798 2.17192078 C-0.02420575 5.06711824 -0.2732754 7.18833073 -0.31884766 10.24926758 C-0.33871735 11.26994827 -0.35858704 12.29062897 -0.37905884 13.34223938 C-0.39061005 14.4319957 -0.40216125 15.52175201 -0.4140625 16.64453125 C-0.43342865 17.7694548 -0.4527948 18.89437836 -0.4727478 20.0533905 C-0.5324371 23.63968366 -0.57888694 27.22600909 -0.625 30.8125 C-0.66318953 33.24675864 -0.70224183 35.68100392 -0.7421875 38.11523438 C-0.83812998 44.07670405 -0.92320875 50.03825453 -1 56 C-2.32 55.67 -3.64 55.34 -5 55 C-4.01 55 -3.02 55 -2 55 C-2.00444122 54.35520187 -2.00888245 53.71040375 -2.01345825 53.04606628 C-2.05763884 46.3467327 -2.08784447 39.64744038 -2.10986328 32.94799805 C-2.11993288 30.44635335 -2.13358934 27.94472045 -2.15087891 25.44311523 C-2.17508492 21.85137014 -2.18647346 18.2597804 -2.1953125 14.66796875 C-2.20563507 13.54601608 -2.21595764 12.42406342 -2.22659302 11.26811218 C-2.22674408 10.22725967 -2.22689514 9.18640717 -2.22705078 8.11401367 C-2.231492 7.19690109 -2.23593323 6.27978851 -2.24050903 5.33488464 C-2 3 -2 3 0 0 Z " fill="#B5B5B5" transform="translate(1103,1068)"/>
<path d="M0 0 C0.99 0.33 1.98 0.66 3 1 C2.34 1 1.68 1 1 1 C0.80664062 1.66386719 0.61328125 2.32773438 0.4140625 3.01171875 C-2.17223199 11.78207381 -2.17223199 11.78207381 -4 16 C-4.99 15.67 -5.98 15.34 -7 15 C-7 15.66 -7 16.32 -7 17 C-7.66 17 -8.32 17 -9 17 C-8.27239851 14.77353944 -7.53634777 12.55066668 -6.78515625 10.33203125 C-6.18917143 8.56186739 -5.61961812 6.78277799 -5.0625 5 C-4 3 -4 3 -1.875 2.1875 C-1.25625 2.125625 -0.6375 2.06375 0 2 C0 1.34 0 0.68 0 0 Z " fill="#5F5F5F" transform="translate(564,1076)"/>
<path d="M0 0 C1.32 0.33 2.64 0.66 4 1 C3.39363767 6.76044212 1.24341721 11.72014369 -1 17 C-1.66 16.34 -2.32 15.68 -3 15 C-3.99 15.495 -3.99 15.495 -5 16 C-4.80664062 15.43152344 -4.61328125 14.86304688 -4.4140625 14.27734375 C-2.81863577 9.54635062 -1.33099414 4.81205575 0 0 Z " fill="#616161" transform="translate(847,1077)"/>
<path d="M0 0 C-1.00744299 2.1698772 -1.88483973 3.8787326 -3.54223633 5.62402344 C-5.63842384 9.0405528 -5.47926461 12.37102579 -5.51171875 16.265625 C-5.52966995 17.05902283 -5.54762115 17.85242065 -5.56611633 18.66986084 C-5.62016926 21.19652031 -5.65409812 23.72299144 -5.6875 26.25 C-5.7206776 27.96617201 -5.75516767 29.68231919 -5.79101562 31.3984375 C-5.87589255 35.59882232 -5.94272721 39.79915177 -6 44 C-6.33 44 -6.66 44 -7 44 C-7.1239816 38.69816541 -7.21451776 33.39718206 -7.2746582 28.09423828 C-7.29973866 26.29200534 -7.33381188 24.48987349 -7.37719727 22.68798828 C-7.4381375 20.09121723 -7.46627346 17.49579535 -7.48828125 14.8984375 C-7.51408768 14.0982016 -7.5398941 13.2979657 -7.56648254 12.47348022 C-7.56854297 8.32520298 -7.22350606 5.74679887 -4.59448242 2.44384766 C-2 0 -2 0 0 0 Z " fill="#B1B1B1" transform="translate(870,886)"/>
<path d="M0 0 C2.8125 0.125 2.8125 0.125 6 1 C7.875 4.0625 7.875 4.0625 9 7 C5.2241456 6.47557578 2.77627845 5.67345333 0 3 C0 2.01 0 1.02 0 0 Z " fill="#1A1A1A" transform="translate(1263,894)"/>
<path d="M0 0 C0.66 0.33 1.32 0.66 2 1 C0.40207236 2.65189143 -1.20355876 4.2963339 -2.8125 5.9375 C-3.70582031 6.85402344 -4.59914063 7.77054688 -5.51953125 8.71484375 C-8 11 -8 11 -11 12 C-9.49650623 8.33213607 -7.36271208 6.31089607 -4.375 3.75 C-3.14910156 2.69039062 -3.14910156 2.69039062 -1.8984375 1.609375 C-1.27195312 1.07828125 -0.64546875 0.5471875 0 0 Z " fill="#C6C6C6" transform="translate(794,812)"/>
<path d="M0 0 C0.73605469 0.08121094 1.47210937 0.16242188 2.23046875 0.24609375 C2.23046875 0.57609375 2.23046875 0.90609375 2.23046875 1.24609375 C1.65039062 1.23707031 1.0703125 1.22804688 0.47265625 1.21875 C-4.50825866 1.40204352 -4.50825866 1.40204352 -8.703125 3.87109375 C-10.16472337 5.60958965 -11.51120788 7.3561414 -12.76953125 9.24609375 C-13.09953125 8.58609375 -13.42953125 7.92609375 -13.76953125 7.24609375 C-10.17284721 0.30077284 -7.72753636 -0.5001972 0 0 Z " fill="#E3E3E3" transform="translate(634.76953125,1066.75390625)"/>
<path d="M0 0 C1.98 0.495 1.98 0.495 4 1 C3.25 6.75 3.25 6.75 1 9 C0.34 8.34 -0.32 7.68 -1 7 C-0.625 3.375 -0.625 3.375 0 0 Z " fill="#6F6F6F" transform="translate(847,1077)"/>
<path d="M0 0 C1.43088528 2.86177057 0.59991697 4.93375773 0 8 C1.65 8 3.3 8 5 8 C4.67 8.66 4.34 9.32 4 10 C2.02 10 0.04 10 -2 10 C-1.85950482 8.52031676 -1.71245174 7.04125484 -1.5625 5.5625 C-1.48128906 4.73878906 -1.40007812 3.91507813 -1.31640625 3.06640625 C-1 1 -1 1 0 0 Z " fill="#4B4B4B" transform="translate(1405,1091)"/>
<path d="M0 0 C0.625 1.8125 0.625 1.8125 1 4 C0.01 5.485 0.01 5.485 -1 7 C-1.66 6.67 -2.32 6.34 -3 6 C-3 6.66 -3 7.32 -3 8 C-3.66 8 -4.32 8 -5 8 C-3.8141763 4.62496331 -2.72426311 2.35277269 0 0 Z " fill="#575757" transform="translate(560,1085)"/>
<path d="M0 0 C-1.5830577 4.2742558 -4.50568404 6.26531794 -8 9 C-6.68994234 5.06982701 -4.75047804 0 0 0 Z " fill="#D7D7D7" transform="translate(915,1067)"/>
<path d="M0 0 C0.598125 0.226875 1.19625 0.45375 1.8125 0.6875 C-1.9375 3.6875 -1.9375 3.6875 -4.1875 3.6875 C-4.1875 5.9975 -4.1875 8.3075 -4.1875 10.6875 C-4.5175 10.6875 -4.8475 10.6875 -5.1875 10.6875 C-5.55141205 3.28795489 -5.55141205 3.28795489 -3.9375 0.625 C-2.1875 -0.3125 -2.1875 -0.3125 0 0 Z " fill="#C9C9C9" transform="translate(1243.1875,1067.3125)"/>
<path d="M0 0 C0.66 0 1.32 0 2 0 C2.1953125 6.0546875 2.1953125 6.0546875 2 8 C1.34 8.66 0.68 9.32 0 10 C0 8.02 0 6.04 0 4 C-0.99 4.495 -0.99 4.495 -2 5 C-1.34 3.35 -0.68 1.7 0 0 Z " fill="#686868" transform="translate(838,1103)"/>
<path d="M0 0 C0.33 0 0.66 0 1 0 C1 1.98 1 3.96 1 6 C-0.32 6.33 -1.64 6.66 -3 7 C-2.25 2.25 -2.25 2.25 0 0 Z " fill="#535353" transform="translate(1408,1083)"/>
<path d="M0 0 C2.475 0.495 2.475 0.495 5 1 C4.67 2.32 4.34 3.64 4 5 C3.01 5 2.02 5 1 5 C0.67 3.35 0.34 1.7 0 0 Z " fill="#1D1D1D" transform="translate(1526,793)"/>
<path d="M0 0 C-1.44253657 3.36591866 -3.33264727 5.51047079 -6 8 C-5.62403791 5.21788056 -5.32681541 3.4120716 -3.5625 1.1875 C-2 0 -2 0 0 0 Z " fill="#D3D3D3" transform="translate(870,886)"/>
</svg>
